<svg xmlns:dc="http://purl.org/dc/elements/1.1/" xmlns:cc="http://creativecommons.org/ns#" xmlns:rdf="http://www.w3.org/1999/02/22-rdf-syntax-ns#" xmlns:svg="http://www.w3.org/2000/svg" xmlns="http://www.w3.org/2000/svg" xmlns:sodipodi="http://sodipodi.sourceforge.net/DTD/sodipodi-0.dtd" xmlns:inkscape="http://www.inkscape.org/namespaces/inkscape" viewBox="0 0 8.4666665 10.583333625" version="1.1" x="0px" y="0px"><g transform="translate(0,-288.53332)"><path style="color:#000000;font-style:normal;font-variant:normal;font-weight:normal;font-stretch:normal;font-size:medium;line-height:normal;font-family:sans-serif;text-indent:0;text-align:start;text-decoration:none;text-decoration-line:none;text-decoration-style:solid;text-decoration-color:#000000;letter-spacing:normal;word-spacing:normal;text-transform:none;direction:ltr;block-progression:tb;writing-mode:lr-tb;baseline-shift:baseline;text-anchor:start;white-space:normal;clip-rule:nonzero;display:inline;overflow:visible;visibility:visible;opacity:1;isolation:auto;mix-blend-mode:normal;color-interpolation:sRGB;color-interpolation-filters:linearRGB;solid-color:#000000;solid-opacity:1;fill:#000000;fill-opacity:1;fill-rule:evenodd;stroke:none;stroke-width:0.26458335;stroke-linecap:round;stroke-linejoin:round;stroke-miterlimit:4;stroke-dasharray:none;stroke-dashoffset:0;stroke-opacity:1;color-rendering:auto;image-rendering:auto;shape-rendering:auto;text-rendering:auto;enable-background:accumulate" d="m 1.3203125,290.51758 a 0.1323049,0.1323049 0 0 0 -0.1289063,0.13476 l 0,2.37696 a 0.1323049,0.1323049 0 1 0 0.2636719,0 l 0,-2.37696 a 0.1323049,0.1323049 0 0 0 -0.1347656,-0.13476 z"/><path style="color:#000000;font-style:normal;font-variant:normal;font-weight:normal;font-stretch:normal;font-size:medium;line-height:normal;font-family:sans-serif;text-indent:0;text-align:start;text-decoration:none;text-decoration-line:none;text-decoration-style:solid;text-decoration-color:#000000;letter-spacing:normal;word-spacing:normal;text-transform:none;direction:ltr;block-progression:tb;writing-mode:lr-tb;baseline-shift:baseline;text-anchor:start;white-space:normal;clip-rule:nonzero;display:inline;overflow:visible;visibility:visible;opacity:1;isolation:auto;mix-blend-mode:normal;color-interpolation:sRGB;color-interpolation-filters:linearRGB;solid-color:#000000;solid-opacity:1;fill:#000000;fill-opacity:1;fill-rule:evenodd;stroke:none;stroke-width:0.26458335;stroke-linecap:round;stroke-linejoin:round;stroke-miterlimit:4;stroke-dasharray:none;stroke-dashoffset:0;stroke-opacity:1;color-rendering:auto;image-rendering:auto;shape-rendering:auto;text-rendering:auto;enable-background:accumulate" d="m 7.1425781,290.51758 a 0.1323049,0.1323049 0 0 0 -0.1308593,0.13476 l 0,2.37696 a 0.1323049,0.1323049 0 1 0 0.2636718,0 l 0,-2.37696 a 0.1323049,0.1323049 0 0 0 -0.1328125,-0.13476 z"/><path style="color:#000000;font-style:normal;font-variant:normal;font-weight:normal;font-stretch:normal;font-size:medium;line-height:normal;font-family:sans-serif;text-indent:0;text-align:start;text-decoration:none;text-decoration-line:none;text-decoration-style:solid;text-decoration-color:#000000;letter-spacing:normal;word-spacing:normal;text-transform:none;direction:ltr;block-progression:tb;writing-mode:lr-tb;baseline-shift:baseline;text-anchor:start;white-space:normal;clip-rule:nonzero;display:inline;overflow:visible;visibility:visible;opacity:1;isolation:auto;mix-blend-mode:normal;color-interpolation:sRGB;color-interpolation-filters:linearRGB;solid-color:#000000;solid-opacity:1;fill:#000000;fill-opacity:1;fill-rule:evenodd;stroke:none;stroke-width:0.26458335px;stroke-linecap:butt;stroke-linejoin:miter;stroke-miterlimit:4;stroke-dasharray:none;stroke-dashoffset:0;stroke-opacity:1;color-rendering:auto;image-rendering:auto;shape-rendering:auto;text-rendering:auto;enable-background:accumulate" d="m 4.2324219,290.3418 c -0.5444458,0 -1.0882229,0.1111 -1.5976563,0.33398 l -0.5449218,0.23828 -0.7675782,0 0,0.26563 0.8222656,0 0.5957032,-0.26172 c 0.951379,-0.41623 2.0349491,-0.41623 2.9863281,0 l 0.5957031,0.26172 0.8222656,0 0,-0.26563 -0.7675781,0 -0.5449219,-0.23828 C 5.3225979,290.4529 4.7768676,290.3418 4.2324219,290.3418 Z"/><path style="opacity:1;fill:#000000;fill-opacity:1;stroke:none;stroke-width:1;stroke-linecap:round;stroke-linejoin:round;stroke-miterlimit:4;stroke-dasharray:none;stroke-opacity:1" d="m 1.4552088,290.25311 a 0.13229167,0.13229168 0 0 1 -0.1322917,0.13229 0.13229167,0.13229168 0 0 1 -0.1322916,-0.13229 0.13229167,0.13229168 0 0 1 0.1322916,-0.13229 0.13229167,0.13229168 0 0 1 0.1322917,0.13229 z"/><path style="opacity:1;fill:#000000;fill-opacity:1;stroke:none;stroke-width:1;stroke-linecap:round;stroke-linejoin:round;stroke-miterlimit:4;stroke-dasharray:none;stroke-opacity:1" d="m 7.2760428,290.25311 a 0.13229167,0.13229168 0 0 1 -0.1322917,0.13229 0.13229167,0.13229168 0 0 1 -0.1322916,-0.13229 0.13229167,0.13229168 0 0 1 0.1322916,-0.13229 0.13229167,0.13229168 0 0 1 0.1322917,0.13229 z"/><path style="color:#000000;font-style:normal;font-variant:normal;font-weight:normal;font-stretch:normal;font-size:medium;line-height:normal;font-family:sans-serif;text-indent:0;text-align:start;text-decoration:none;text-decoration-line:none;text-decoration-style:solid;text-decoration-color:#000000;letter-spacing:normal;word-spacing:normal;text-transform:none;direction:ltr;block-progression:tb;writing-mode:lr-tb;baseline-shift:baseline;text-anchor:start;white-space:normal;clip-rule:nonzero;display:inline;overflow:visible;visibility:visible;opacity:1;isolation:auto;mix-blend-mode:normal;color-interpolation:sRGB;color-interpolation-filters:linearRGB;solid-color:#000000;solid-opacity:1;fill:#000000;fill-opacity:1;fill-rule:nonzero;stroke:none;stroke-width:0.26458335;stroke-linecap:round;stroke-linejoin:round;stroke-miterlimit:4;stroke-dasharray:none;stroke-dashoffset:0;stroke-opacity:1;color-rendering:auto;image-rendering:auto;shape-rendering:auto;text-rendering:auto;enable-background:accumulate" d="m 1.5820312,292.89844 c -0.3637415,0 -0.66210796,0.29835 -0.66210932,0.66211 l 0,0.39648 a 0.13281251,0.13281251 0 0 0 0.26562502,0 l 0,-0.39648 c 8e-7,-0.22077 0.1757247,-0.39649 0.3964843,-0.39649 l 5.2910157,0 c 0.2207599,0 0.3964843,0.17572 0.3964843,0.39649 l 0,0.39648 a 0.1328125,0.1328125 0 0 0 0.265625,0 l 0,-0.39648 c 0,-0.36376 -0.2983677,-0.66211 -0.6621093,-0.66211 l -5.2910157,0 z"/><path style="color:#000000;font-style:normal;font-variant:normal;font-weight:normal;font-stretch:normal;font-size:medium;line-height:normal;font-family:sans-serif;text-indent:0;text-align:start;text-decoration:none;text-decoration-line:none;text-decoration-style:solid;text-decoration-color:#000000;letter-spacing:normal;word-spacing:normal;text-transform:none;direction:ltr;block-progression:tb;writing-mode:lr-tb;baseline-shift:baseline;text-anchor:start;white-space:normal;clip-rule:nonzero;display:inline;overflow:visible;visibility:visible;opacity:1;isolation:auto;mix-blend-mode:normal;color-interpolation:sRGB;color-interpolation-filters:linearRGB;solid-color:#000000;solid-opacity:1;fill:#000000;fill-opacity:1;fill-rule:nonzero;stroke:none;stroke-width:0.26458332;stroke-linecap:round;stroke-linejoin:round;stroke-miterlimit:4;stroke-dasharray:none;stroke-dashoffset:0;stroke-opacity:1;color-rendering:auto;image-rendering:auto;shape-rendering:auto;text-rendering:auto;enable-background:accumulate" d="m 0.92578125,293.82422 a 0.13230489,0.13230489 0 0 0 -0.1328125,0.13281 l 0,0.92578 a 0.13230489,0.13230489 0 0 0 0.1328125,0.13281 l 1.98437495,0 a 0.13230489,0.13230489 0 1 0 0,-0.26367 l -1.8515624,0 0,-0.66211 3.8359374,0 a 0.13281,0.13281 0 0 0 0,-0.26562 l -3.96874995,0 z m 5.02734375,0 a 0.13281,0.13281 0 1 0 0,0.26562 l 1.4550781,0 0,0.66211 -3.4394531,0 a 0.13230489,0.13230489 0 1 0 0,0.26367 l 3.5722656,0 a 0.13230489,0.13230489 0 0 0 0.1328125,-0.13281 l 0,-0.92578 a 0.13230489,0.13230489 0 0 0 -0.1328125,-0.13281 l -1.5878906,0 z"/><path style="color:#000000;font-style:normal;font-variant:normal;font-weight:normal;font-stretch:normal;font-size:medium;line-height:normal;font-family:sans-serif;text-indent:0;text-align:start;text-decoration:none;text-decoration-line:none;text-decoration-style:solid;text-decoration-color:#000000;letter-spacing:normal;word-spacing:normal;text-transform:none;direction:ltr;block-progression:tb;writing-mode:lr-tb;baseline-shift:baseline;text-anchor:start;white-space:normal;clip-rule:nonzero;display:inline;overflow:visible;visibility:visible;opacity:1;isolation:auto;mix-blend-mode:normal;color-interpolation:sRGB;color-interpolation-filters:linearRGB;solid-color:#000000;solid-opacity:1;fill:#000000;fill-opacity:1;fill-rule:evenodd;stroke:none;stroke-width:0.26458335px;stroke-linecap:butt;stroke-linejoin:miter;stroke-miterlimit:4;stroke-dasharray:none;stroke-dashoffset:0;stroke-opacity:1;color-rendering:auto;image-rendering:auto;shape-rendering:auto;text-rendering:auto;enable-background:accumulate" d="m 1.3222656,294.88281 0,0.5293 1.0585938,0 0,-0.5293 -0.2636719,0 0,0.26563 -0.5292969,0 0,-0.26563 -0.265625,0 z"/><path style="color:#000000;font-style:normal;font-variant:normal;font-weight:normal;font-stretch:normal;font-size:medium;line-height:normal;font-family:sans-serif;text-indent:0;text-align:start;text-decoration:none;text-decoration-line:none;text-decoration-style:solid;text-decoration-color:#000000;letter-spacing:normal;word-spacing:normal;text-transform:none;direction:ltr;block-progression:tb;writing-mode:lr-tb;baseline-shift:baseline;text-anchor:start;white-space:normal;clip-rule:nonzero;display:inline;overflow:visible;visibility:visible;opacity:1;isolation:auto;mix-blend-mode:normal;color-interpolation:sRGB;color-interpolation-filters:linearRGB;solid-color:#000000;solid-opacity:1;fill:#000000;fill-opacity:1;fill-rule:evenodd;stroke:none;stroke-width:0.26458335px;stroke-linecap:butt;stroke-linejoin:miter;stroke-miterlimit:4;stroke-dasharray:none;stroke-dashoffset:0;stroke-opacity:1;color-rendering:auto;image-rendering:auto;shape-rendering:auto;text-rendering:auto;enable-background:accumulate" d="m 6.0859375,294.88281 0,0.5293 1.0585937,0 0,-0.5293 -0.265625,0 0,0.26563 -0.5292968,0 0,-0.26563 -0.2636719,0 z"/><path style="color:#000000;font-style:normal;font-variant:normal;font-weight:normal;font-stretch:normal;font-size:medium;line-height:normal;font-family:sans-serif;text-indent:0;text-align:start;text-decoration:none;text-decoration-line:none;text-decoration-style:solid;text-decoration-color:#000000;letter-spacing:normal;word-spacing:normal;text-transform:none;direction:ltr;block-progression:tb;writing-mode:lr-tb;baseline-shift:baseline;text-anchor:start;white-space:normal;clip-rule:nonzero;display:inline;overflow:visible;visibility:visible;opacity:1;isolation:auto;mix-blend-mode:normal;color-interpolation:sRGB;color-interpolation-filters:linearRGB;solid-color:#000000;solid-opacity:1;fill:#000000;fill-opacity:1;fill-rule:nonzero;stroke:none;stroke-width:0.26458335;stroke-linecap:round;stroke-linejoin:round;stroke-miterlimit:4;stroke-dasharray:none;stroke-dashoffset:0;stroke-opacity:1;color-rendering:auto;image-rendering:auto;shape-rendering:auto;text-rendering:auto;enable-background:accumulate" d="m 6.4804688,291.95294 a 0.1323049,0.1323049 0 0 0 -0.017578,0.002 c 0,0 -0.2581843,0.0363 -0.4394531,0.0898 -0.025762,0.008 -0.080588,0.003 -0.1621094,-0.0176 -0.081521,-0.0201 -0.1855819,-0.0508 -0.3066408,-0.0508 l -0.1289063,0 c -0.1282301,0 -0.2359315,0.0393 -0.3164062,0.0625 -0.080475,0.0232 -0.1168976,0.0222 -0.125,0.0176 -0.2544577,-0.14427 -0.5078125,-0.10156 -0.5078125,-0.10156 a 0.1323049,0.1323049 0 0 0 -0.099609,0.18164 c 0,0 0.1041944,0.27454 0.1074219,0.40039 l 0.011719,0.47265 a 0.1323049,0.1323049 0 1 0 0.2636718,-0.008 l -0.011719,-0.4707 c -0.00336,-0.13104 -0.037476,-0.18283 -0.072266,-0.28125 0.063191,0.004 0.086783,-0.0145 0.1777344,0.0371 0.1183698,0.067 0.2378801,0.0344 0.3300782,0.008 0.092198,-0.0266 0.1751736,-0.0547 0.2421874,-0.0547 l 0.1289063,0 c 0.073928,0 0.1542481,0.0212 0.2421875,0.043 0.087939,0.0217 0.1879772,0.0489 0.3007812,0.0156 0.074929,-0.0222 0.1262216,-0.0278 0.2109376,-0.043 -0.039107,0.0934 -0.08047,0.11366 -0.076172,0.28125 l 0.011719,0.47265 a 0.1323049,0.1323049 0 1 0 0.2636719,-0.008 l -0.011719,-0.4707 c -0.0059,-0.23011 0.09375,-0.36914 0.09375,-0.36914 a 0.1323049,0.1323049 0 0 0 -0.109375,-0.20899 z"/><path style="color:#000000;font-style:normal;font-variant:normal;font-weight:normal;font-stretch:normal;font-size:medium;line-height:normal;font-family:sans-serif;text-indent:0;text-align:start;text-decoration:none;text-decoration-line:none;text-decoration-style:solid;text-decoration-color:#000000;letter-spacing:normal;word-spacing:normal;text-transform:none;direction:ltr;block-progression:tb;writing-mode:lr-tb;baseline-shift:baseline;text-anchor:start;white-space:normal;clip-rule:nonzero;display:inline;overflow:visible;visibility:visible;opacity:1;isolation:auto;mix-blend-mode:normal;color-interpolation:sRGB;color-interpolation-filters:linearRGB;solid-color:#000000;solid-opacity:1;fill:#000000;fill-opacity:1;fill-rule:nonzero;stroke:none;stroke-width:0.26458335;stroke-linecap:round;stroke-linejoin:round;stroke-miterlimit:4;stroke-dasharray:none;stroke-dashoffset:0;stroke-opacity:1;color-rendering:auto;image-rendering:auto;shape-rendering:auto;text-rendering:auto;enable-background:accumulate" d="m 3.9667969,291.95294 a 0.1323049,0.1323049 0 0 0 -0.017578,0.002 c 0,0 -0.2581844,0.0363 -0.4394532,0.0898 -0.025762,0.008 -0.080588,0.003 -0.1621094,-0.0176 -0.081521,-0.0201 -0.1855817,-0.0508 -0.3066407,-0.0508 l -0.1289062,0 c -0.1282302,0 -0.2359316,0.0393 -0.3164063,0.0625 -0.080475,0.0232 -0.1168975,0.0222 -0.125,0.0176 -0.2544576,-0.14427 -0.5078125,-0.10156 -0.5078125,-0.10156 a 0.1323049,0.1323049 0 0 0 -0.099609,0.18164 c 0,0 0.1041943,0.27454 0.1074219,0.40039 l 0.011719,0.47265 a 0.1323049,0.1323049 0 1 0 0.2636719,-0.008 l -0.011719,-0.4707 c -0.00336,-0.13104 -0.037476,-0.18283 -0.072266,-0.28125 0.063191,0.004 0.086783,-0.0145 0.1777344,0.0371 0.1183697,0.067 0.23788,0.0344 0.3300781,0.008 0.092198,-0.0266 0.1751735,-0.0547 0.2421875,-0.0547 l 0.1289062,0 c 0.073929,0 0.1542481,0.0212 0.2421875,0.043 0.087939,0.0217 0.1879772,0.0489 0.3007813,0.0156 0.074929,-0.0222 0.1262215,-0.0278 0.2109375,-0.043 -0.039107,0.0934 -0.08047,0.11366 -0.076172,0.28125 l 0.011719,0.47265 a 0.1323049,0.1323049 0 1 0 0.2636718,-0.008 l -0.011719,-0.4707 c -0.0059,-0.23011 0.09375,-0.36914 0.09375,-0.36914 a 0.1323049,0.1323049 0 0 0 -0.109375,-0.20899 z"/></g><text x="0" y="23.4666669" fill="#000000" font-size="5px" font-weight="bold" font-family="'Helvetica Neue', Helvetica, Arial-Unicode, Arial, Sans-serif">Created by anbileru adaleru</text><text x="0" y="28.4666669" fill="#000000" font-size="5px" font-weight="bold" font-family="'Helvetica Neue', Helvetica, Arial-Unicode, Arial, Sans-serif">from the Noun Project</text></svg>