<svg xmlns="http://www.w3.org/2000/svg" xmlns:xlink="http://www.w3.org/1999/xlink" version="1.1" x="0px" y="0px" viewBox="0 0 100 125" enable-background="new 0 0 100 100" xml:space="preserve"><g><path fill="#000000" d="M74.2,44.7c-0.6-2.9-1.2-5.3-1.1-6.2c0.1-1.6,1.2-3.1,2.3-4.7c1.3-1.9,2.7-3.9,1.7-5.7   c-1.1-2.3-7.4-7.7-10-9.9c-0.3-0.3-0.7-0.4-1-0.6c0.2-0.4,0.3-0.8,0.3-1.2v-1.6c0-1.6-1.3-2.9-2.9-2.9h-0.7   c0.1-0.3,0.2-0.6,0.4-0.7C63.6,11,64,10.4,64,9.8c0-0.5-0.2-1-0.5-1.3l-1.8-1.7c-0.4-0.4-1-0.7-1.6-0.7h-2c-0.6,0-1.2,0.2-1.6,0.7   l-1.8,1.7c-0.3,0.3-0.5,0.8-0.5,1.3c0,0.6,0.3,1.2,0.9,1.5c0.2,0.1,0.3,0.4,0.4,0.7h-0.7c-1.6,0-2.9,1.3-2.9,2.9v1.6   c0,0.4,0.1,0.9,0.3,1.2c-0.4,0.1-0.7,0.3-1,0.6c-2.6,2.2-8.9,7.6-10,9.9c-0.9,1.9,0.4,3.8,1.7,5.7c1,1.5,2.1,3.1,2.3,4.7   c0.1,0.9-0.4,3.3-1.1,6.2c-1.8,8.4-5.3,24.1-3.2,43c0.8,4.2,4.4,7.3,8.7,7.3h19.3c4.3,0,7.9-3.1,8.7-7.3   C79.5,68.8,76.1,53.2,74.2,44.7z M56,9.8l1.8-1.7C57.8,8,58,7.9,58.1,7.9h2c0.1,0,0.3,0,0.3,0.1l1.7,1.7c-0.9,0.5-1.2,1.5-1.3,2.2   h-3.5C57.2,11.3,56.9,10.3,56,9.8z M53.6,14.9c0-0.6,0.5-1.1,1.1-1.1h8.7c0.6,0,1.1,0.5,1.1,1.1v1.6c0,0.6-0.5,1.1-1.1,1.1h-8.7   c-0.6,0-1.1-0.5-1.1-1.1V14.9z M75.6,87.4c-0.6,3.3-3.5,5.8-6.9,5.8H49.5c-3.4,0-6.3-2.4-6.9-5.7c-2-18.6,1.4-34,3.2-42.4   c0.7-3.3,1.2-5.5,1.1-6.7c-0.2-2.1-1.4-3.9-2.6-5.5c-1.1-1.5-2-3-1.6-3.9c0.8-1.6,5.7-6,9.6-9.3c0.2-0.2,0.5-0.3,0.8-0.3h12.1   c0.3,0,0.6,0.1,0.8,0.3c4.1,3.4,8.8,7.7,9.6,9.3c0.5,0.9-0.5,2.4-1.6,3.9c-1.1,1.6-2.4,3.5-2.6,5.5c-0.1,1.2,0.4,3.4,1.1,6.7   C74.3,53.4,77.7,68.9,75.6,87.4z"/><path fill="#000000" d="M66.2,44.1H51.8c-1.7,0-3.2,1.2-3.6,2.9c-1.3,6.6-4.3,23.5-2.6,37.6c0.3,2.8,2.9,5,5.7,5h16   c2.8,0,5.3-2.2,5.6-5c1.7-14.2-1.7-31.1-3.2-37.8C69.4,45.2,67.9,44.1,66.2,44.1z M71.2,84.4c-0.2,1.8-2,3.4-3.8,3.4h-16   c-1.9,0-3.6-1.6-3.9-3.4c-1.7-13.9,1.2-30.5,2.6-37c0.2-0.8,0.9-1.5,1.8-1.5h14.4c0.9,0,1.6,0.6,1.8,1.4   C69.5,53.8,72.8,70.5,71.2,84.4z"/><path fill="#000000" d="M36.2,29.5l-4.6-1.3l-1.3-4.6c-0.1-0.4-0.5-0.7-0.9-0.7s-0.8,0.3-0.9,0.7l-1.3,4.6l-4.6,1.3   c-0.4,0.1-0.7,0.5-0.7,0.9c0,0.4,0.3,0.8,0.7,0.9l4.6,1.3l1.3,4.6c0.1,0.4,0.5,0.7,0.9,0.7s0.8-0.3,0.9-0.7l1.3-4.6l4.6-1.3   c0.4-0.1,0.7-0.5,0.7-0.9C36.8,29.9,36.6,29.6,36.2,29.5z M30.5,30.9c-0.3,0.1-0.6,0.3-0.6,0.6l-0.5,1.9l-0.5-1.9   c-0.1-0.3-0.3-0.6-0.6-0.6l-1.9-0.5l1.9-0.5c0.3-0.1,0.6-0.3,0.6-0.6l0.5-1.9l0.5,1.9c0.1,0.3,0.3,0.6,0.6,0.6l1.9,0.5L30.5,30.9z"/><path fill="#000000" d="M45.7,15.4c0-0.4-0.3-0.8-0.7-0.9l-6.9-1.9l-1.9-6.9C36.1,5.3,35.8,5,35.4,5s-0.8,0.3-0.9,0.7l-1.9,6.9   l-6.9,1.9c-0.4,0.1-0.7,0.5-0.7,0.9c0,0.4,0.3,0.8,0.7,0.9l6.9,1.9l1.9,6.9c0.1,0.4,0.5,0.7,0.9,0.7s0.8-0.3,0.9-0.7l1.9-6.9   l6.9-1.9C45.4,16.1,45.7,15.8,45.7,15.4z M37.1,16.5c-0.3,0.1-0.6,0.3-0.6,0.6l-1.1,4.2l-1.1-4.2c-0.1-0.3-0.3-0.6-0.6-0.6   l-4.2-1.1l4.2-1.1c0.3-0.1,0.6-0.3,0.6-0.6l1.1-4.2l1.1,4.2c0.1,0.3,0.3,0.6,0.6,0.6l4.2,1.1L37.1,16.5z"/></g><text x="0" y="115" fill="#000000" font-size="5px" font-weight="bold" font-family="'Helvetica Neue', Helvetica, Arial-Unicode, Arial, Sans-serif">Created by parkjisun</text><text x="0" y="120" fill="#000000" font-size="5px" font-weight="bold" font-family="'Helvetica Neue', Helvetica, Arial-Unicode, Arial, Sans-serif">from the Noun Project</text></svg>