<svg xmlns="http://www.w3.org/2000/svg" xmlns:xlink="http://www.w3.org/1999/xlink" version="1.1" x="0px" y="0px" viewBox="0 0 100 125" enable-background="new 0 0 100 100" xml:space="preserve"><path d="M74.1,71.4L75,18.9c0,0,0,0,0,0c0,0,0,0,0,0c0-3.9-10.7-5.2-14-5.5c-0.1,0-0.2,0-0.3,0v-0.6c0-0.5-0.3-1-0.7-1.3  c-0.3-0.2-0.7-0.5-0.7-1c0-0.1,0-0.3,0-0.5c0.4-0.1,0.7-0.3,1-0.4c0.2-0.1,0.3-0.2,0.4-0.4c0.1-0.2,0.1-0.4,0.1-0.5V8.4  c0-0.1,0-0.1,0-0.2c0-0.1-0.7-3.2-6.4-3.2c0,0-0.1,0-0.1,0c-5.6,0-6.3,3.1-6.4,3.2c0,0.1,0,0.1,0,0.2v0.4c0,0.2,0.1,0.5,0.2,0.7  c0.1,0.1,0.2,0.2,0.3,0.3c0.2,0.1,0.5,0.3,0.9,0.4c-0.1,0.9-0.5,1.3-0.7,1.4c-0.4,0.3-0.7,0.7-0.7,1.3v0.6c-0.1,0-0.2-0.1-0.3,0  c-3.3,0.3-14,1.6-14,5.5v3.9l-14.2,8.4c-0.2,0.1-0.4,0.4-0.4,0.6c0,0.3,0.1,0.5,0.3,0.6c5.6,4.4,10.6,9.4,14.9,14.9l0.3,17.1  c-1.2,0.3-2.1,1.5-2.1,2.8v4c-3.2,1.5-5.2,4.2-5.2,6.1v7.3c0,1.5,0.7,3,2,4c1.3,1,3.2,1.9,4.6,2.6c0.5,0.2,0.9,0.4,1.2,0.6  c0,0,0,0,0,0c0,0,0,0,0,0C40.2,93.9,47,95,55,95c15,0,21.6-3.5,24.2-5.6c1.2-0.9,1.9-2.4,1.9-3.9v-8.2  C81.1,74.8,77.6,72.3,74.1,71.4z M79.6,77.4c0,4.1-10.3,8.4-25.5,8.4C48.9,85.8,42.4,85,38,84v-4.1c3.9,2,9.8,3.2,16.3,3.2  c9.1,0,14.1-1.9,16.3-3.1c3.2-1.7,3.4-4.3,3.5-7C77.2,73.8,79.6,75.9,79.6,77.4z M34.9,21.2c3.3,2.3,11.3,3.5,19.3,3.5  c7.9,0,15.9-1.2,19.2-3.4L72.6,72c0,0,0,0,0,0l0,0.6c-0.1,2.8-0.1,4.7-2.7,6.1c-1.7,0.9-6.5,2.9-15.6,2.9c-0.9,0-1.8,0-2.6-0.1  l-4.6-19.1c-0.7-3-1.6-6-2.6-8.8l-9.6-30.4V21.2z M49.3,8.5c0.1-0.3,0.9-1.9,4.9-2c0,0,0,0,0,0c4,0,4.8,1.6,4.9,2l0,0.1  c-0.2,0.1-0.5,0.2-0.8,0.3c-0.1,0-0.1,0-0.2,0c-0.9,0.3-2.3,0.5-4.2,0.5c-2.5,0-4-0.4-4.7-0.8V8.5z M54,10.9c1.5,0,2.7-0.2,3.7-0.4  c0,0.1,0,0.1,0,0.1c0,0.9,0.5,1.7,1.4,2.2v5.2c0,0,0,0.1,0,0.1c0,0,0,0.1,0,0.1c0,0.3-0.9,1.1-4.8,1.1c-4.1,0-5-0.9-5-1.1  c0,0,0-0.1,0-0.1c0,0,0-0.1,0-0.1l0-5.2c0.5-0.3,1.1-1.1,1.4-2.3C51.5,10.8,52.6,10.9,54,10.9z M47.6,14.9c0.1,0,0.1,0,0.2,0v3.3  c0,0,0,0.1,0,0.1c0,0,0,0.1,0,0.1c0,1.2,1.1,2.6,6.5,2.6c4.2,0,6.4-0.9,6.4-2.6c0,0,0-0.1,0-0.1c0,0,0-0.1,0-0.1v-3.3  c0.1,0,0.1,0,0.2,0c8.7,0.8,12.6,2.8,12.6,4l0,0c0,1.7-7.5,4.3-19.3,4.3c-11.8,0-19.3-2.5-19.3-4.3C34.9,17.7,38.9,15.7,47.6,14.9z   M21,32l12.8-7.5l9.3,29.7c1,2.8,1.9,5.7,2.6,8.7l0.7,2.8C40.9,52.4,32.2,40.9,21,32z M46.3,69.8c1.9,5.2,3.2,9.8,3.7,11.6  c-4.9-0.4-9.2-1.6-12.1-3.3V67.2c0-1.3-0.9-2.5-2.1-2.8c0,0,0-0.1,0-0.1c0-0.3,0-0.6,0-0.7l0,0l-0.2-14.2  C40.1,55.7,43.7,62.5,46.3,69.8z M35.1,65.8c0.8,0,1.4,0.6,1.4,1.4v20.3c0,0.8-0.6,1.4-1.4,1.4s-1.4-0.6-1.4-1.4v-4.4c0,0,0,0,0,0  V71.8c0,0,0,0,0,0v-4.5C33.7,66.5,34.3,65.8,35.1,65.8z M32.2,72.9v8.9c-2.2-1.3-3.7-3.4-3.7-4.5C28.5,76.3,29.8,74.2,32.2,72.9z   M28.5,84.7v-4c0.9,1.1,2.2,2.2,3.7,2.9v3.9c0,0.6,0.2,1.2,0.5,1.6c-1-0.5-2-1.1-2.8-1.7C29,86.8,28.5,85.8,28.5,84.7z M79.6,85.5  c0,1.1-0.5,2-1.3,2.7c-2.5,2-8.8,5.3-23.3,5.3c-7.8,0-14.4-1-19.6-3.1c0,0-0.1,0-0.1-0.1c1.5-0.1,2.7-1.4,2.7-2.9v-1.9  c4.6,1,10.9,1.7,16.1,1.7c12,0,21.9-2.7,25.5-6.6V85.5z"/><text x="0" y="115" fill="#000000" font-size="5px" font-weight="bold" font-family="'Helvetica Neue', Helvetica, Arial-Unicode, Arial, Sans-serif">Created by parkjisun</text><text x="0" y="120" fill="#000000" font-size="5px" font-weight="bold" font-family="'Helvetica Neue', Helvetica, Arial-Unicode, Arial, Sans-serif">from the Noun Project</text></svg>