<svg xmlns="http://www.w3.org/2000/svg" xmlns:xlink="http://www.w3.org/1999/xlink" version="1.1" x="0px" y="0px" viewBox="0 0 100 125" enable-background="new 0 0 100 100" xml:space="preserve"><path fill="#000000" d="M94.1,51.4C93.9,43.9,87.8,38,80.3,38h-5.9V20.5c0-3.7-3-6.8-6.8-6.8c-3.7,0-6.8,3-6.8,6.8V38H55  c-7.5,0-13.6,5.9-13.8,13.4l0,2h-1.3v-33c0-3.7-3-6.8-6.8-6.8s-6.8,3-6.8,6.8v33H9.3c-1.9,0-3.5,1.6-3.5,3.5v2.6  c0,1.6,1,2.9,2.4,3.3L5,85.2c0,0.3,0,0.6,0.2,0.8c0.2,0.2,0.4,0.3,0.7,0.3h9.4h9.5h0.9h7.9h8.7H52h8.3h30.3c1.2,0,2.4-0.5,3.2-1.4  c0.9-0.9,1.3-2,1.3-3.3L94.1,51.4z M7.7,59.6V57c0-0.9,0.7-1.6,1.6-1.6h18c0.5,0,1-0.4,1-1v-34c0-2.7,2.2-4.8,4.8-4.8  c2.7,0,4.8,2.2,4.8,4.8v34c0,0.5,0.4,1,1,1h18c0.9,0,1.6,0.7,1.6,1.6v2.6c0,0.9-0.7,1.6-1.6,1.6H9.3C8.4,61.2,7.7,60.5,7.7,59.6z   M58.5,62.7c1.1-0.6,1.9-1.8,1.9-3.1V57c0-1.9-1.6-3.5-3.5-3.5h-7.4c1.1-4.5,5.6-5,7.5-5h21.8c4,0,7.3,3,7.8,6.9l2.8,29H61.1  L58.5,62.7z M32.7,84.4h-6.8V63.1h6.8V84.4z M10.1,63.1h6l-1.6,21.3H7.1L10.1,63.1z M18,63.1H24v21.3h-7.5L18,63.1z M34.6,63.1h6.8  v21.3h-6.8V63.1z M43.4,63.1h5.5l2,21.3h-7.5V63.1z M52.8,84.4l-2-21.3h5.9l2.5,21.3H52.8z M92.4,83.6c-0.3,0.3-0.6,0.5-1,0.6  l-2.8-29.1c-0.6-4.9-4.8-8.6-9.7-8.6H57c-5.1,0-8.6,2.6-9.5,6.9h-4.4l0-2C43.3,45,48.6,39.9,55,39.9h6.8c0.5,0,1-0.4,1-1V20.5  c0-2.7,2.2-4.8,4.8-4.8c2.7,0,4.8,2.2,4.8,4.8V39c0,0.5,0.4,1,1,1h6.8c6.5,0,11.7,5.1,11.9,11.5l0.9,30.3  C93.1,82.4,92.8,83.1,92.4,83.6z"/><text x="0" y="115" fill="#000000" font-size="5px" font-weight="bold" font-family="'Helvetica Neue', Helvetica, Arial-Unicode, Arial, Sans-serif">Created by parkjisun</text><text x="0" y="120" fill="#000000" font-size="5px" font-weight="bold" font-family="'Helvetica Neue', Helvetica, Arial-Unicode, Arial, Sans-serif">from the Noun Project</text></svg>