<svg xmlns="http://www.w3.org/2000/svg" xmlns:xlink="http://www.w3.org/1999/xlink" version="1.1" x="0px" y="0px" viewBox="0 0 100 125" style="enable-background:new 0 0 100 100;" xml:space="preserve"><g><path d="M80.8,16.6H19.2c-0.6,0-1.1,0.5-1,1.1l6.4,61.2c0.3,2.5,2.4,4.5,5,4.5h40.7c2.6,0,4.7-1.9,5-4.5l6.4-61.2   C81.8,17.1,81.4,16.6,80.8,16.6z M51.1,77.4h-2.4L41.3,70l8.6-8.6l8.6,8.6L51.1,77.4z M59.9,71.4l6,6H53.9L59.9,71.4z M45.8,77.4   H33.9l6-6L45.8,77.4z M26.4,37.9l2,2l-1.7,1.7L26.4,37.9z M28.4,57.1l-1.4-12.9l2.8-2.8l8.6,8.6l-8.6,8.6L28.4,57.1z M48.6,22.6   h2.4l7.4,7.4l-8.6,8.6L41.3,30L48.6,22.6z M39.9,28.6l-5.9-5.9h11.9L39.9,28.6z M53.9,22.6h11.9l-5.9,5.9L53.9,22.6z M51.3,40   l8.6-8.6l8.6,8.6l-8.6,8.6L51.3,40z M58.4,50l-8.6,8.6L41.3,50l8.6-8.6L58.4,50z M48.4,40l-8.6,8.6L31.3,40l8.6-8.6L48.4,40z    M39.9,51.4l8.6,8.6l-8.6,8.6L31.3,60L39.9,51.4z M51.3,60l8.6-8.6l8.6,8.6l-8.6,8.6L51.3,60z M61.3,50l8.6-8.6l3.1,3.1l-1.3,12.3   l-1.8,1.8L61.3,50z M71.3,60L71.3,60L71.3,60L71.3,60z M71.3,40l2.4-2.4l-0.5,4.3L71.3,40z M74,34.5l-4.1,4.1L61.3,30l7.4-7.4h6.6   L74,34.5z M31.1,22.6l7.4,7.4l-8.6,8.6l-3.8-3.8l-1.3-12.2H31.1z M28.9,62.3l0.9-0.9l8.6,8.6l-7.4,7.4h-0.5L28.9,62.3z M69.5,77.4   h-0.8L61.3,70l8.6-8.6l1.2,1.2L69.5,77.4z"/></g><text x="0" y="115" fill="#000000" font-size="5px" font-weight="bold" font-family="'Helvetica Neue', Helvetica, Arial-Unicode, Arial, Sans-serif">Created by Michal Beno</text><text x="0" y="120" fill="#000000" font-size="5px" font-weight="bold" font-family="'Helvetica Neue', Helvetica, Arial-Unicode, Arial, Sans-serif">from the Noun Project</text></svg>