<svg xmlns="http://www.w3.org/2000/svg" xmlns:xlink="http://www.w3.org/1999/xlink" width="1024" zoomAndPan="magnify" viewBox="0 0 768 767.999994" height="1024" preserveAspectRatio="xMidYMid meet" version="1.0"><path fill="#ffffff" d="M 366.253906 725.386719 C 329.503906 740.964844 280.207031 732.949219 245.425781 715.40625 C 210.644531 697.859375 182.96875 668.0625 166.9375 632.667969 C 165.578125 629.796875 169.964844 627.679688 171.324219 630.550781 C 187.65625 664.734375 214.878906 692.71875 249.054688 709.355469 C 266.898438 717.976562 286.105469 723.574219 305.761719 725.386719 C 325.875 727.355469 345.082031 724.175781 365.042969 721.757812 C 367.007812 721.605469 368.21875 724.480469 366.253906 725.386719 Z M 501.898438 562.035156 C 494.339844 595.765625 480.273438 627.527344 459.253906 655.054688 C 448.972656 668.515625 437.023438 680.917969 423.867188 691.808594 C 416.914062 697.558594 409.652344 703.003906 401.941406 707.84375 C 396.195312 711.472656 386.363281 714.648438 382.886719 720.699219 C 382.128906 722.210938 382.734375 724.027344 384.550781 724.175781 C 392.113281 725.238281 401.035156 717.523438 407.082031 713.4375 C 414.039062 708.902344 420.691406 704.0625 427.042969 698.765625 C 440.957031 687.273438 453.355469 674.113281 464.246094 659.742188 C 485.566406 631.308594 500.691406 598.03125 505.832031 562.789062 C 506.4375 560.671875 502.503906 559.765625 501.898438 562.035156 Z M 233.175781 714.042969 C 210.1875 701.339844 189.621094 683.339844 175.257812 661.40625 C 173.59375 658.988281 169.511719 660.800781 171.023438 663.523438 C 185.085938 686.96875 205.199219 705.269531 229.09375 718.582031 C 240.886719 725.238281 253.4375 730.53125 266.292969 734.613281 C 272.796875 736.582031 279.296875 738.246094 285.953125 739.605469 C 293.210938 741.117188 299.5625 741.421875 306.820312 741.117188 C 308.332031 741.117188 309.390625 738.546875 307.425781 738.09375 C 281.71875 732.34375 256.464844 727.050781 233.175781 714.042969 Z M 386.515625 706.179688 C 406.023438 695.589844 423.414062 682.128906 439.140625 666.550781 C 446.855469 658.988281 453.960938 650.972656 460.765625 642.5 C 467.570312 633.878906 474.980469 625.257812 477.402344 614.367188 C 477.703125 612.855469 476.191406 611.34375 474.679688 612.554688 C 466.664062 619.207031 461.523438 628.433594 455.171875 636.601562 C 448.519531 645.375 441.257812 653.695312 433.546875 661.558594 C 418.574219 676.835938 401.488281 690.296875 383.792969 702.398438 C 381.828125 703.757812 384.246094 707.386719 386.515625 706.179688 Z M 478.308594 603.023438 C 478.761719 603.328125 479.214844 603.476562 479.671875 603.628906 C 480.125 603.78125 480.730469 603.78125 481.183594 603.628906 C 481.484375 603.476562 481.785156 603.476562 482.242188 603.328125 C 482.695312 603.175781 483.148438 602.871094 483.449219 602.417969 C 483.753906 602.269531 483.902344 601.964844 484.054688 601.664062 C 484.359375 601.207031 484.507812 600.753906 484.507812 600.300781 C 484.507812 600 484.507812 599.546875 484.507812 599.242188 C 484.359375 598.488281 484.054688 597.882812 483.601562 597.425781 C 483.449219 597.277344 483.449219 597.125 483.300781 596.972656 C 483.148438 596.671875 482.84375 596.519531 482.542969 596.21875 C 481.9375 595.765625 481.332031 595.613281 480.578125 595.460938 C 480.125 595.460938 479.820312 595.460938 479.367188 595.460938 C 479.367188 595.460938 479.214844 595.460938 479.214844 595.460938 C 478.914062 595.613281 478.613281 595.613281 478.308594 595.765625 C 477.855469 595.914062 477.554688 596.21875 477.25 596.671875 C 476.949219 596.824219 476.796875 597.125 476.644531 597.425781 C 476.34375 597.882812 476.191406 598.335938 476.191406 598.789062 C 475.890625 600.300781 476.644531 601.8125 477.855469 602.722656 C 478.007812 602.871094 478.15625 603.023438 478.308594 603.023438 Z M 376.6875 716.917969 C 376.382812 716.464844 376.082031 716.3125 375.628906 716.011719 C 375.175781 715.707031 374.722656 715.554688 374.265625 715.554688 C 373.8125 715.554688 373.207031 715.554688 372.753906 715.707031 C 372.300781 715.859375 371.847656 716.011719 371.546875 716.3125 C 371.394531 716.613281 371.089844 716.765625 370.941406 717.070312 C 370.636719 717.671875 370.335938 718.128906 370.335938 718.882812 C 370.335938 719.1875 370.335938 719.488281 370.335938 719.941406 C 370.488281 720.546875 370.789062 721.152344 371.242188 721.605469 C 371.847656 722.363281 372.300781 723.117188 372.90625 723.875 C 373.207031 724.328125 373.511719 724.480469 373.964844 724.78125 C 374.417969 725.085938 374.871094 725.238281 375.324219 725.238281 C 375.78125 725.238281 376.382812 725.238281 376.839844 725.085938 C 377.292969 724.933594 377.746094 724.78125 378.046875 724.480469 C 378.199219 724.175781 378.5 724.027344 378.652344 723.722656 C 378.953125 723.117188 379.257812 722.664062 379.257812 721.910156 C 379.257812 721.605469 379.257812 721.304688 379.257812 720.851562 C 379.105469 720.246094 378.804688 719.640625 378.351562 719.1875 C 377.746094 718.429688 377.292969 717.671875 376.6875 716.917969 Z M 701.667969 433.773438 C 707.5625 467.652344 698.1875 502.59375 679.585938 530.875 C 662.195312 557.042969 639.511719 581.242188 610.328125 594.101562 C 577.664062 608.46875 538.949219 612.703125 513.542969 639.628906 C 504.46875 658.988281 493.734375 677.589844 480.425781 694.078125 C 460.617188 718.734375 435.816406 734.917969 406.023438 745.203125 C 379.257812 754.277344 344.628906 764.257812 314.988281 759.722656 C 299.5625 762.597656 283.078125 760.933594 267.804688 758.511719 C 251.777344 755.941406 235.59375 752.3125 220.625 745.808594 C 154.839844 717.371094 120.058594 645.527344 97.832031 581.394531 C 84.824219 543.882812 74.996094 505.316406 68.796875 465.988281 C 64.105469 436.496094 60.328125 401.253906 67.738281 371.152344 C 67.433594 354.515625 71.820312 338.027344 81.800781 323.960938 C 84.21875 320.632812 88.757812 323.960938 86.941406 327.441406 C 65.769531 368.28125 100.097656 412.445312 134.878906 431.65625 C 171.023438 451.621094 215.332031 458.273438 255.707031 462.660156 C 301.226562 467.652344 347.199219 466.292969 391.808594 455.402344 C 425.984375 447.082031 460.464844 433.46875 489.953125 413.957031 C 504.167969 404.582031 518.230469 393.386719 531.085938 382.195312 C 536.984375 377.050781 541.824219 370.546875 546.8125 364.5 C 545.753906 362.230469 544.695312 359.960938 543.488281 357.390625 C 539.402344 348.617188 534.414062 340.449219 528.515625 332.734375 C 517.324219 318.214844 503.714844 306.113281 488.136719 296.585938 C 451.542969 274.050781 407.234375 268.148438 365.195312 265.277344 C 280.8125 259.527344 190.226562 255.898438 115.523438 302.03125 C 110.683594 305.054688 106.148438 297.34375 110.230469 293.863281 C 140.476562 267.546875 178.582031 253.476562 217.597656 246.066406 C 253.136719 239.261719 289.734375 238.957031 325.875 239.867188 C 362.167969 240.773438 398.765625 242.890625 434.304688 250.90625 C 468.027344 258.46875 499.933594 272.386719 525.945312 295.527344 C 537.4375 305.8125 547.265625 317.15625 555.585938 330.011719 C 562.085938 339.996094 573.125 355.726562 569.800781 368.429688 C 570.859375 378.714844 570.859375 389.304688 570.402344 399.738281 C 570.554688 399.589844 570.554688 399.589844 570.707031 399.4375 C 585.375 386.730469 605.1875 377.65625 624.542969 375.539062 C 663.558594 371.152344 694.859375 394.597656 701.667969 433.773438 Z M 515.8125 563.699219 C 526.246094 528.757812 534.867188 493.214844 541.371094 457.367188 C 544.695312 438.761719 548.175781 420.007812 551.199219 401.253906 C 551.351562 400.195312 551.5 398.984375 551.652344 397.925781 C 549.234375 401.554688 546.964844 404.882812 544.847656 407.757812 C 531.386719 426.664062 511.425781 439.820312 491.617188 451.316406 C 406.78125 500.324219 303.34375 503.046875 209.433594 485.199219 C 166.9375 477.03125 116.582031 465.082031 88.304688 429.234375 C 87.394531 428.023438 86.488281 426.8125 85.582031 425.605469 C 88.152344 442.242188 91.023438 458.730469 94.199219 475.214844 C 108.71875 547.363281 130.039062 626.316406 177.828125 684.246094 C 193.554688 703.304688 212.761719 720.546875 235.445312 730.832031 C 248.75 736.882812 262.664062 740.664062 277.179688 742.933594 C 289.582031 744.746094 302.285156 745.503906 314.535156 747.925781 C 328.898438 744.292969 344.023438 742.933594 358.539062 739.757812 C 376.835938 735.824219 394.683594 729.472656 411.316406 720.851562 C 470.898438 689.84375 497.363281 624.957031 515.8125 563.699219 Z M 657.359375 422.730469 C 650.097656 412.898438 637.546875 412.292969 626.507812 414.109375 C 613.050781 416.378906 601.101562 422.125 589.761719 429.535156 C 583.410156 433.773438 577.359375 438.160156 571.160156 442.394531 C 569.800781 443.300781 568.4375 444.207031 566.773438 445.117188 C 565.113281 458.425781 562.84375 471.585938 560.421875 484.746094 C 553.316406 522.558594 543.488281 560.21875 530.785156 596.671875 C 529.574219 600.300781 528.210938 603.929688 526.851562 607.410156 C 540.765625 596.21875 558.910156 589.109375 576.300781 583.511719 C 605.035156 574.285156 630.742188 562.035156 648.132812 536.320312 C 655.542969 525.28125 659.929688 510.910156 662.347656 498.054688 C 664.769531 485.046875 667.488281 471.585938 666.886719 458.273438 C 666.429688 446.476562 664.464844 432.410156 657.359375 422.730469 Z M 89.058594 317.761719 C 90.269531 318.214844 91.628906 318.367188 92.992188 318.0625 C 92.386719 318.0625 91.78125 318.0625 91.175781 318.214844 C 91.328125 318.214844 91.328125 318.214844 91.480469 318.214844 C 92.992188 318.367188 94.351562 318.0625 95.5625 317.457031 C 96.773438 316.851562 97.832031 315.945312 98.585938 314.886719 C 99.34375 313.675781 99.796875 312.46875 99.949219 311.105469 C 100.097656 310.046875 99.949219 308.988281 99.492188 307.929688 C 99.191406 306.871094 98.738281 305.964844 97.980469 305.207031 C 97.074219 304.148438 96.015625 303.390625 94.65625 302.9375 C 93.292969 302.484375 91.933594 302.332031 90.570312 302.636719 C 89.210938 302.9375 87.847656 303.542969 86.789062 304.449219 C 86.335938 304.90625 85.730469 305.507812 85.429688 305.964844 C 85.429688 305.964844 85.429688 305.964844 85.429688 306.113281 C 85.128906 306.71875 84.824219 307.324219 84.523438 307.929688 C 84.523438 307.929688 84.523438 307.929688 84.523438 308.082031 C 84.070312 309.441406 83.917969 310.652344 84.21875 312.164062 C 84.523438 313.527344 85.128906 314.734375 86.035156 315.792969 C 86.789062 316.550781 87.847656 317.308594 89.058594 317.761719 Z M 339.03125 320.179688 C 352.792969 311.410156 368.519531 306.113281 385.003906 308.835938 C 389.691406 309.59375 394.230469 310.804688 398.613281 312.769531 C 403 314.734375 407.988281 315.644531 412.074219 318.214844 C 420.691406 323.8125 427.042969 333.640625 430.070312 343.324219 C 436.421875 363.894531 425.53125 384.613281 409.804688 397.925781 C 390.75 413.804688 365.949219 418.042969 342.8125 424.394531 C 332.832031 427.117188 322.546875 430.746094 313.625 436.191406 C 309.847656 438.460938 306.972656 441.789062 303.644531 444.511719 C 301.980469 445.722656 300.015625 446.78125 298.203125 447.839844 C 296.386719 451.015625 293.058594 452.828125 289.582031 453.132812 C 289.582031 453.132812 289.429688 453.132812 289.429688 453.132812 C 289.28125 453.132812 289.128906 453.132812 288.976562 453.132812 C 288.675781 453.132812 288.371094 453.132812 288.070312 452.980469 C 285.5 452.828125 282.929688 451.769531 280.660156 449.652344 C 275.367188 444.511719 273.703125 436.191406 270.375 429.6875 C 266.898438 423.03125 262.964844 416.679688 258.429688 410.78125 C 249.507812 399.136719 240.28125 387.941406 234.839844 374.027344 C 225.160156 349.070312 224.101562 318.820312 240.738281 296.433594 C 254.496094 277.980469 280.960938 268.605469 302.738281 277.226562 C 321.035156 284.03125 336.613281 300.214844 339.03125 320.179688 Z M 321.945312 341.207031 C 319.222656 343.472656 316.046875 339.542969 318.464844 337.121094 C 323.152344 332.28125 328.296875 327.742188 333.890625 323.660156 C 330.261719 305.507812 312.71875 291.59375 294.875 288.570312 C 275.0625 285.242188 258.128906 302.636719 252.984375 320.332031 C 246.632812 341.660156 254.648438 363.589844 266.746094 381.136719 C 273.25 390.511719 280.660156 398.984375 286.707031 408.816406 C 288.976562 412.445312 291.699219 416.832031 294.117188 421.371094 C 295.328125 420.308594 296.539062 419.402344 297.597656 418.496094 C 306.972656 411.386719 317.40625 407 328.597656 403.371094 C 352.039062 395.808594 380.316406 394.445312 398.613281 376.144531 C 405.269531 369.488281 409.957031 360.566406 409.199219 350.886719 C 408.898438 346.046875 406.78125 341.507812 403.90625 337.574219 C 400.882812 333.640625 397.253906 328.046875 393.171875 325.324219 C 370.789062 310.347656 339.484375 326.535156 321.945312 341.207031 Z M 277.484375 298.703125 C 273.550781 301.121094 269.621094 303.996094 266.898438 307.777344 C 264.328125 311.105469 262.363281 315.039062 260.847656 318.972656 C 259.488281 322.753906 258.582031 326.988281 258.277344 331.070312 C 257.976562 335.304688 259.035156 339.691406 260.394531 343.777344 C 261.304688 346.195312 265.539062 345.441406 265.539062 342.867188 C 265.539062 339.238281 266.140625 335.910156 266.898438 332.433594 C 267.199219 331.375 267.65625 329.40625 268.257812 327.894531 C 268.5625 327.136719 268.863281 326.382812 269.167969 325.476562 C 269.316406 325.019531 269.46875 324.71875 269.769531 324.265625 C 269.921875 323.960938 269.921875 323.960938 269.921875 323.960938 C 269.921875 323.960938 269.921875 323.8125 270.074219 323.660156 C 270.980469 322.148438 271.738281 320.785156 272.796875 319.425781 C 273.402344 318.667969 273.855469 317.910156 274.460938 317.15625 C 274.609375 317.003906 274.761719 316.851562 274.761719 316.703125 C 274.914062 316.398438 275.214844 316.25 275.367188 315.945312 C 276.578125 314.734375 277.785156 313.375 279.148438 312.164062 C 279.753906 311.558594 280.507812 311.105469 281.113281 310.5 C 281.566406 310.199219 281.871094 309.894531 282.324219 309.59375 C 282.324219 309.59375 282.324219 309.59375 282.472656 309.59375 C 282.472656 309.59375 282.625 309.59375 282.777344 309.441406 C 284.441406 308.382812 286.253906 306.71875 286.253906 304.449219 C 286.105469 302.183594 285.648438 300.0625 283.683594 298.855469 C 281.871094 298.097656 279.449219 297.492188 277.484375 298.703125 Z M 289.128906 297.039062 C 289.128906 297.039062 289.128906 297.191406 289.128906 297.191406 C 289.128906 297.339844 289.128906 297.191406 289.128906 297.039062 C 289.128906 297.191406 289.128906 297.191406 289.128906 297.039062 Z M 299.261719 299.460938 C 299.261719 299.15625 299.410156 299.003906 299.410156 298.703125 C 299.410156 298.402344 299.5625 298.25 299.5625 297.945312 C 299.5625 297.945312 299.5625 297.796875 299.5625 297.796875 C 299.5625 297.339844 299.5625 296.886719 299.5625 296.433594 C 299.5625 296.433594 299.5625 296.28125 299.5625 296.28125 C 299.410156 295.679688 299.261719 295.222656 299.109375 294.617188 C 298.804688 294.015625 298.351562 293.410156 297.898438 293.105469 C 297.445312 292.652344 296.839844 292.199219 296.234375 292.046875 C 295.628906 291.746094 294.875 291.746094 294.269531 291.746094 C 293.511719 291.746094 292.910156 291.898438 292.304688 292.199219 C 291.851562 292.5 291.546875 292.652344 291.09375 292.957031 C 290.339844 293.558594 289.882812 294.316406 289.582031 295.222656 C 289.429688 295.679688 289.429688 296.132812 289.28125 296.585938 C 289.28125 296.738281 289.429688 296.886719 289.429688 297.191406 C 289.429688 297.339844 289.429688 297.339844 289.429688 297.492188 C 289.429688 297.492188 289.429688 297.339844 289.429688 297.339844 C 289.429688 297.191406 289.429688 297.039062 289.582031 296.886719 C 289.582031 297.039062 289.582031 297.339844 289.582031 297.492188 C 289.582031 298.097656 289.582031 298.855469 289.882812 299.460938 C 289.734375 299.15625 289.734375 298.855469 289.582031 298.402344 C 289.582031 298.097656 289.582031 297.796875 289.582031 297.492188 C 289.582031 297.796875 289.429688 298.097656 289.429688 298.402344 C 289.429688 299.15625 289.582031 299.761719 289.882812 300.367188 C 290.1875 300.972656 290.640625 301.578125 291.09375 301.878906 C 291.546875 302.332031 292.152344 302.785156 292.757812 302.9375 C 293.210938 303.089844 293.664062 303.089844 294.117188 303.242188 C 295.027344 303.390625 295.933594 303.089844 296.839844 302.785156 C 297.292969 302.484375 297.597656 302.332031 298.050781 302.03125 C 298.804688 301.425781 299.261719 300.667969 299.5625 299.914062 C 299.261719 299.609375 299.261719 299.609375 299.261719 299.460938 Z M 318.464844 401.402344 C 323.304688 401.101562 327.539062 399.136719 332.074219 397.773438 C 336.761719 396.414062 341.453125 395.355469 346.140625 394.292969 C 355.0625 392.328125 363.832031 391.269531 372.453125 387.941406 C 386.214844 382.496094 398.765625 371.757812 399.824219 356.179688 C 399.976562 353.003906 395.4375 352.699219 394.984375 355.726562 C 391.960938 371.757812 376.082031 380.683594 361.714844 384.613281 C 354.152344 386.730469 346.59375 388.546875 338.878906 390.363281 C 331.472656 392.027344 322.246094 393.691406 317.40625 400.042969 C 316.953125 400.648438 317.710938 401.554688 318.464844 401.402344 Z M 218.054688 308.988281 C 207.011719 326.078125 206.410156 347.40625 212.304688 366.3125 C 215.632812 377.050781 220.925781 386.582031 227.125 395.808594 C 233.78125 405.789062 241.339844 417.132812 251.171875 424.242188 C 253.136719 425.753906 255.859375 423.335938 254.800781 421.21875 C 250.113281 411.6875 241.945312 403.976562 235.746094 395.355469 C 229.546875 386.730469 224.101562 377.355469 220.171875 367.523438 C 213.0625 349.828125 212.003906 328.652344 222.136719 311.863281 C 223.800781 309.140625 219.867188 306.265625 218.054688 308.988281 Z M 224.554688 276.46875 C 207.164062 289.175781 194.914062 307.476562 190.378906 328.652344 C 187.960938 340.144531 187.808594 352.246094 189.925781 363.894531 C 191.890625 374.179688 195.066406 387.640625 204.140625 393.839844 C 205.046875 394.445312 206.105469 393.691406 206.105469 392.632812 C 204.898438 382.347656 199 372.816406 197.03125 362.53125 C 195.066406 351.792969 195.066406 340.75 197.183594 330.011719 C 201.265625 310.5 212.304688 292.5 227.582031 279.796875 C 229.695312 277.980469 226.824219 274.804688 224.554688 276.46875 Z M 417.667969 407.152344 C 407.988281 414.410156 396.042969 418.496094 384.703125 422.125 C 382.433594 422.882812 382.433594 425.90625 384.851562 426.359375 C 411.46875 430.445312 437.933594 406.394531 446.097656 382.496094 C 455.019531 356.027344 446.25 325.777344 425.230469 307.777344 C 423.867188 306.566406 421.601562 308.988281 422.960938 310.199219 C 441.257812 327.742188 448.367188 356.027344 438.839844 379.925781 C 434.453125 390.664062 427.042969 400.042969 417.667969 407.152344 Z M 448.214844 302.484375 C 427.347656 283.878906 396.800781 279.039062 371.242188 289.929688 C 368.824219 290.988281 370.636719 294.46875 373.058594 293.558594 C 396.648438 284.9375 425.53125 289.929688 444.132812 307.324219 C 453.507812 316.097656 460.164062 327.894531 463.1875 340.449219 C 466.210938 352.851562 464.851562 365.558594 464.246094 378.109375 C 464.246094 379.625 466.210938 380.53125 467.117188 379.167969 C 474.679688 366.765625 473.773438 351.1875 469.839844 337.574219 C 465.910156 324.113281 458.648438 311.710938 448.214844 302.484375 Z M 468.027344 403.671875 C 466.96875 405.183594 468.933594 406.699219 470.292969 405.789062 C 482.84375 397.472656 490.253906 382.800781 492.675781 368.128906 C 495.546875 351.035156 491.617188 333.1875 482.542969 318.667969 C 480.878906 316.097656 476.496094 318.0625 478.15625 320.785156 C 486.171875 334.703125 489.195312 351.035156 486.019531 366.917969 C 483.300781 380.683594 476.039062 392.480469 468.027344 403.671875 Z M 178.28125 303.84375 C 165.730469 321.238281 159.378906 342.566406 160.589844 364.042969 C 161.191406 375.539062 164.367188 386.582031 169.207031 396.867188 C 173.140625 405.183594 179.792969 418.796875 189.320312 421.519531 C 190.378906 421.824219 191.890625 420.914062 191.589844 419.707031 C 190.378906 415.320312 187.65625 412.445312 184.933594 408.816406 C 181.609375 404.429688 178.734375 399.589844 176.316406 394.597656 C 171.777344 385.21875 168.90625 375.085938 167.695312 364.648438 C 165.277344 344.230469 170.570312 323.355469 181.910156 306.265625 C 183.273438 303.996094 179.945312 301.578125 178.28125 303.84375 Z M 350.070312 222.167969 C 363.078125 215.816406 375.929688 206.589844 383.1875 193.582031 C 392.113281 177.398438 390.296875 157.886719 384.097656 141.097656 C 380.769531 132.171875 376.382812 123.097656 372 114.628906 C 367.765625 106.613281 363.984375 99.957031 363.078125 90.882812 C 361.109375 73.183594 367.613281 57.152344 376.839844 42.480469 C 378.652344 39.757812 375.324219 37.035156 372.753906 38.851562 C 346.894531 56.847656 339.335938 95.722656 347.953125 124.609375 C 352.945312 140.945312 363.226562 155.617188 361.414062 173.464844 C 359.75 189.347656 358.84375 205.230469 346.59375 216.722656 C 343.71875 219.144531 346.59375 223.984375 350.070312 222.167969 Z M 266.140625 188.894531 C 279.148438 182.539062 292 173.3125 299.261719 160.304688 C 308.183594 144.121094 306.367188 124.609375 300.167969 107.820312 C 296.839844 98.898438 292.453125 89.824219 288.070312 81.351562 C 283.835938 73.335938 280.054688 66.679688 279.148438 57.605469 C 277.179688 39.910156 283.683594 23.875 292.910156 9.203125 C 294.722656 6.480469 291.398438 3.757812 288.824219 5.574219 C 262.816406 23.574219 255.253906 62.292969 263.875 91.183594 C 268.863281 107.519531 279.148438 122.191406 277.332031 140.039062 C 275.667969 155.921875 274.761719 171.800781 262.511719 183.296875 C 259.789062 185.867188 262.664062 190.707031 266.140625 188.894531 Z M 266.140625 188.894531 " fill-opacity="1" fill-rule="nonzero"/></svg>