<svg xmlns="http://www.w3.org/2000/svg" xmlns:xlink="http://www.w3.org/1999/xlink" version="1.1" x="0px" y="0px" viewBox="0 0 512 640" enable-background="new 0 0 512 512" xml:space="preserve"><g><path d="M452.6,2H59.4v475.2h24.6V510h344.1v-32.8h24.6V2z M411.7,493.6H100.3v-16.4h311.4V493.6z M436.3,460.8h-8.2H83.9h-8.2   V18.4h360.5V460.8z"/><path d="M411.7,43H100.3v114.7h311.4V43z M395.3,141.3H116.7V59.4h278.6V141.3z"/><polygon points="305.2,83.9 288.8,83.9 288.8,100.3 223.2,100.3 223.2,83.9 206.8,83.9 206.8,116.7 305.2,116.7  "/><polygon points="305.2,223.2 288.8,223.2 288.8,239.6 223.2,239.6 223.2,223.2 206.8,223.2 206.8,256 305.2,256  "/><polygon points="305.2,370.7 288.8,370.7 288.8,387.1 223.2,387.1 223.2,370.7 206.8,370.7 206.8,403.5 305.2,403.5  "/><path d="M411.7,182.3H100.3V297h311.4V182.3z M395.3,280.6H116.7v-81.9h278.6V280.6z"/><path d="M411.7,321.5H100.3v114.7h311.4V321.5z M395.3,419.9H116.7v-81.9h278.6V419.9z"/></g><text x="0" y="527" fill="#000000" font-size="5px" font-weight="bold" font-family="'Helvetica Neue', Helvetica, Arial-Unicode, Arial, Sans-serif">Created by Icon Fair</text><text x="0" y="532" fill="#000000" font-size="5px" font-weight="bold" font-family="'Helvetica Neue', Helvetica, Arial-Unicode, Arial, Sans-serif">from the Noun Project</text></svg>