<svg xmlns="http://www.w3.org/2000/svg" xmlns:xlink="http://www.w3.org/1999/xlink" version="1.0" x="0px" y="0px" viewBox="0 0 64 80" style="enable-background:new 0 0 64 64;" xml:space="preserve"><style type="text/css">
	.st0{fill-rule:evenodd;clip-rule:evenodd;}
	.st1{fill:#231F20;}
	.st2{fill:none;}
</style><g><g><path d="M40.8549805,20.7670898c-2.6708984-2.5688477-6.1870117-3.9067383-9.8994141-3.7563477    C24.0771484,17.2817383,18.3959961,22.875,18.0209961,29.7446289c-0.2167969,3.9638672,1.3071289,7.8032227,4.1811523,10.5332031    c0.7626953,0.7246094,1.3305664,1.7280273,1.6879883,2.9819336c0.1959229,0.6862183,0.5030518,1.3303223,0.8759155,1.9401245    C24.3111572,45.4578247,24,45.9407959,24,46.5v6c0,0.8271484,0.6728516,1.5,1.5,1.5H26v0.5c0,0.8271484,0.6728516,1.5,1.5,1.5h8    c0.8271484,0,1.5-0.6728516,1.5-1.5V54h0.5c0.8271484,0,1.5-0.6728516,1.5-1.5v-6    c0-0.5516357-0.3026123-1.0292969-0.7473145-1.289856c0.3724365-0.6080933,0.6603394-1.2611694,0.8571777-1.9498901    c0.3579102-1.2563477,0.9213867-2.2553711,1.6743164-2.9692383C43.5029297,37.7148438,45,34.237793,45,30.5    C45,26.7929688,43.527832,23.3364258,40.8549805,20.7670898z M36,54.5c0,0.2758789-0.2241211,0.5-0.5,0.5h-8    c-0.2758789,0-0.5-0.2241211-0.5-0.5V54h9V54.5z M38,52.5c0,0.2758789-0.2241211,0.5-0.5,0.5h-12    c-0.2758789,0-0.5-0.2241211-0.5-0.5v-6c0-0.2758789,0.2241211-0.5,0.5-0.5H28h1h5h1h2.5c0.2758789,0,0.5,0.2241211,0.5,0.5V52.5z     M29,45V32.703125c0-0.3227539,0.25-0.4404297,0.3266602-0.46875c0.0761719-0.0288086,0.3432617-0.1015625,0.5527344,0.1430664    l0.4423828,0.5166016c0.2949219,0.3432617,0.7036133,0.5419922,1.1757812,0.5229492    c0.4526367-0.0112305,0.871582-0.2226562,1.1494141-0.5810547l0.4580078-0.5917969    c0.2021484-0.262207,0.4765625-0.1958008,0.5566406-0.1669922C33.7412109,32.1040039,34,32.2182617,34,32.550293V45H29z     M40.0966797,39.5654297c-0.8852539,0.8388672-1.5410156,1.9897461-1.9487305,3.4204102    C37.9415283,43.7094727,37.6068115,44.3808594,37.1798096,45H35V32.550293c0-0.6518555-0.3984375-1.2089844-1.0146484-1.4194336    c-0.6176758-0.2109375-1.2724609-0.0146484-1.6713867,0.5009766l-0.4575195,0.5913086    c-0.0927734,0.1196289-0.2324219,0.1904297-0.3837891,0.1943359c-0.1469727-0.0009766-0.2939453-0.0605469-0.3916016-0.1743164    l-0.4423828-0.5161133c-0.4121094-0.4824219-1.0644531-0.6494141-1.6591797-0.4306641    C28.3842773,31.5166016,28,32.0688477,28,32.703125V45h-2.2198486l0.0142822-0.0097656    c-0.421875-0.6166992-0.7392578-1.2910156-0.9423828-2.0048828c-0.4072266-1.4282227-1.0673828-2.5830078-1.9614258-3.4321289    c-2.6606445-2.5283203-4.0717773-6.0834961-3.871582-9.7539062c0.3476562-6.3598633,5.6079102-11.5385742,11.9755859-11.7895508    c3.4379883-0.1396484,6.6938477,1.0996094,9.1674805,3.4780273C42.637207,23.8671875,44,27.0678711,44,30.5    C44,33.9604492,42.6137695,37.1796875,40.0966797,39.5654297z"/><path d="M16.5,30.5c0-0.2763672-0.2236328-0.5-0.5-0.5h-6c-0.2763672,0-0.5,0.2236328-0.5,0.5S9.7236328,31,10,31h6    C16.2763672,31,16.5,30.7763672,16.5,30.5z"/><path d="M53,30h-6c-0.2763672,0-0.5,0.2236328-0.5,0.5S46.7236328,31,47,31h6c0.2763672,0,0.5-0.2236328,0.5-0.5    S53.2763672,30,53,30z"/><path d="M31.5,15.5c0.2763672,0,0.5-0.2236328,0.5-0.5V9c0-0.2763672-0.2236328-0.5-0.5-0.5S31,8.7236328,31,9v6    C31,15.2763672,31.2236328,15.5,31.5,15.5z"/><path d="M20.1865234,41.1064453l-4.2426758,4.2426758c-0.1953125,0.1953125-0.1953125,0.5117188,0,0.7070312    c0.0976562,0.0976562,0.2255859,0.1464844,0.3535156,0.1464844s0.2558594-0.0488281,0.3535156-0.1464844l4.2426758-4.2426758    c0.1953125-0.1953125,0.1953125-0.5117188,0-0.7070312S20.3818359,40.9111328,20.1865234,41.1064453z"/><path d="M42.4599609,20.0400391c0.1279297,0,0.2558594-0.0488281,0.3535156-0.1464844l4.2426758-4.2426758    c0.1953125-0.1953125,0.1953125-0.5117188,0-0.7070312s-0.5117188-0.1953125-0.7070312,0l-4.2426758,4.2426758    c-0.1953125,0.1953125-0.1953125,0.5117188,0,0.7070312C42.2041016,19.9912109,42.3320312,20.0400391,42.4599609,20.0400391z"/><path d="M42.8134766,41.1064453c-0.1953125-0.1953125-0.5117188-0.1953125-0.7070312,0s-0.1953125,0.5117188,0,0.7070312    l4.2426758,4.2426758c0.0976562,0.0976562,0.2255859,0.1464844,0.3535156,0.1464844s0.2558594-0.0488281,0.3535156-0.1464844    c0.1953125-0.1953125,0.1953125-0.5117188,0-0.7070312L42.8134766,41.1064453z"/><path d="M20.1865234,19.8935547c0.0976562,0.0976562,0.2255859,0.1464844,0.3535156,0.1464844    s0.2558594-0.0488281,0.3535156-0.1464844c0.1953125-0.1953125,0.1953125-0.5117188,0-0.7070312l-4.2426758-4.2426758    c-0.1953125-0.1953125-0.5117188-0.1953125-0.7070312,0s-0.1953125,0.5117188,0,0.7070312L20.1865234,19.8935547z"/><path d="M17.6826172,36.3383789c-0.1069336-0.2539062-0.4013672-0.3735352-0.6552734-0.265625l-5.5263672,2.3354492    c-0.2543945,0.1074219-0.3730469,0.4008789-0.265625,0.6552734c0.0805664,0.1904297,0.265625,0.3051758,0.4604492,0.3051758    c0.0649414,0,0.1313477-0.0126953,0.1948242-0.0395508l5.5263672-2.3354492    C17.6713867,36.8862305,17.7900391,36.5927734,17.6826172,36.3383789z"/><path d="M45.3173828,24.6616211c0.0805664,0.1904297,0.265625,0.3051758,0.4604492,0.3051758    c0.0649414,0,0.1313477-0.0126953,0.1948242-0.0395508l5.5263672-2.3354492    c0.2543945-0.1074219,0.3730469-0.4008789,0.265625-0.6552734c-0.1069336-0.2543945-0.4013672-0.3720703-0.6552734-0.265625    l-5.5263672,2.3354492C45.3286133,24.1137695,45.2099609,24.4072266,45.3173828,24.6616211z"/><path d="M25.0063477,16.4169922c0.0805664,0.1904297,0.265625,0.3051758,0.4604492,0.3051758    c0.0649414,0,0.1308594-0.0126953,0.1948242-0.0395508c0.2543945-0.1074219,0.3730469-0.4008789,0.265625-0.6552734    l-2.3354492-5.5263672c-0.1074219-0.253418-0.3984375-0.3740234-0.6552734-0.265625    c-0.2543945,0.1074219-0.3730469,0.4008789-0.265625,0.6552734L25.0063477,16.4169922z"/><path d="M37.1416016,16.6015625c0.0615234,0.0249023,0.125,0.0366211,0.1879883,0.0366211    c0.1972656,0,0.3842773-0.1176758,0.4633789-0.3120117l2.2568359-5.5595703    c0.1040039-0.2558594-0.0195312-0.5473633-0.2753906-0.6513672c-0.2539062-0.1040039-0.5473633,0.019043-0.6513672,0.2753906    l-2.2568359,5.5595703C36.762207,16.2060547,36.8857422,16.4975586,37.1416016,16.6015625z"/><path d="M51.609375,38.1230469l-5.5595703-2.2568359c-0.2548828-0.1040039-0.546875,0.019043-0.6513672,0.2753906    c-0.1040039,0.2558594,0.0195312,0.5473633,0.2753906,0.6513672l5.5595703,2.2568359    c0.0615234,0.0249023,0.125,0.0366211,0.1879883,0.0366211c0.1972656,0,0.3842773-0.1176758,0.4633789-0.3120117    C51.9887695,38.5185547,51.8652344,38.2270508,51.609375,38.1230469z"/><path d="M11.390625,22.8769531l5.5595703,2.2568359c0.0615234,0.0249023,0.125,0.0366211,0.1879883,0.0366211    c0.1972656,0,0.3842773-0.1176758,0.4633789-0.3120117c0.1040039-0.2558594-0.0195312-0.5473633-0.2753906-0.6513672    l-5.5595703-2.2568359c-0.2543945-0.1044922-0.546875,0.019043-0.6513672,0.2753906    C11.0112305,22.4814453,11.1347656,22.7729492,11.390625,22.8769531z"/></g></g><g><rect class="st2" width="64" height="64"/></g><text x="0" y="79" fill="#000000" font-size="5px" font-weight="bold" font-family="'Helvetica Neue', Helvetica, Arial-Unicode, Arial, Sans-serif">Created by Theysaurus</text><text x="0" y="84" fill="#000000" font-size="5px" font-weight="bold" font-family="'Helvetica Neue', Helvetica, Arial-Unicode, Arial, Sans-serif">from the Noun Project</text></svg>