<svg xmlns="http://www.w3.org/2000/svg" xmlns:xlink="http://www.w3.org/1999/xlink" version="1.1" x="0px" y="0px" viewBox="0 0 100 125" enable-background="new 0 0 100 100" xml:space="preserve"><g><path d="M91.994,70.729h0.002c0.005-0.024,0.513-2.796,1.021-6.702c0.508-3.908,1.021-8.94,1.021-13.547   c0-0.169-0.002-0.497-0.002-0.497c-0.04-4.633-0.55-9.777-1.048-13.789c-0.497-4.01-1.09-7.497-1.154-7.789   c1.31-1.421,2.128-3.316,2.127-5.405c-0.001-4.419-3.581-7.999-8-8c-2.072-0.001-3.957,0.805-5.375,2.098   c-0.556-0.131-1.122-0.23-1.704-0.285c0,0-4.191-0.706-9.881-1.407C63.307,14.706,56.11,14.001,49.961,14   c-6.149,0.002-13.546,0.711-19.442,1.415c-5.893,0.705-10.986,1.486-11.329,1.547c-1.401-1.215-3.229-1.963-5.229-1.962   c-4.419,0.001-7.999,3.581-8,8c-0.001,1.861,0.651,3.574,1.719,4.93C7.568,28.414,5.964,40.806,5.961,50   c0.003,9.194,1.457,20.541,1.46,20.584c0,0,0.146,1.002,0.259,1.485C6.613,73.426,5.96,75.139,5.961,77   c0.001,4.419,3.581,7.999,8,8c1.999,0.001,3.827-0.747,5.229-1.962c0.337,0.06,5.18,0.841,11.079,1.547   c5.9,0.705,13.562,1.414,20.692,1.415c6.641-0.001,13.604-0.706,18.932-1.408c5.325-0.702,10.152-1.563,10.693-1.689   c1.418,1.293,3.303,2.099,5.375,2.098c4.419-0.002,7.999-3.581,8-8c0.001-2.089-0.817-3.984-2.127-5.405   C91.897,71.311,91.952,71.022,91.994,70.729z M88.79,79.828c-0.73,0.728-1.718,1.171-2.828,1.172   c-1.291-0.001-2.423-0.606-3.165-1.563c-0.521-0.675-1.409-0.945-2.217-0.676C79.844,79.008,62.897,82.005,50.961,82   c-6.869,0.001-14.413-0.691-20.217-1.387c-2.903-0.348-11.122-1.548-11.663-1.693c-0.752-0.203-1.556,0.05-2.055,0.646   c-0.742,0.881-1.829,1.433-3.065,1.434c-1.111-0.001-2.099-0.444-2.828-1.172C10.406,79.098,9.962,78.11,9.961,77   c0.001-1.163,0.492-2.191,1.291-2.934c0.57-0.528,0.784-1.349,0.544-2.088c-0.202-0.62-0.429-2.068-0.468-2.392   C11.055,67.336,9.958,57.702,9.961,50c-0.001-4.396,0.355-9.438,0.714-13.359c0.179-1.961,0.919-7.999,1.121-8.619   c0.24-0.739,0.026-1.56-0.544-2.088C10.454,25.19,9.962,24.163,9.961,23c0.001-1.111,0.444-2.099,1.172-2.828   c0.729-0.728,1.717-1.171,2.828-1.172c1.236,0.001,2.323,0.553,3.065,1.434c0.499,0.597,1.303,0.85,2.055,0.646   c0.541-0.146,8.785-1.354,14.156-1.953c5.367-0.6,11.605-1.128,16.724-1.127c5.851-0.001,12.949,0.685,18.551,1.376   c2.803,0.345,5.235,0.69,6.964,0.948c0.865,0.13,4.368,0.668,5.104,0.913c0.808,0.271,1.696,0,2.217-0.675   c0.742-0.956,1.874-1.562,3.165-1.563c1.11,0.001,2.098,0.444,2.828,1.172c0.728,0.73,1.171,1.718,1.172,2.828   c-0.001,1.296-0.613,2.433-1.577,3.175c-0.672,0.514-0.946,1.388-0.69,2.193c0.165,0.521,0.384,1.72,0.384,1.72   c0.103,0.62,0.577,3.545,1.033,7.348c0.456,3.8,0.893,8.487,0.926,12.581c0,0,0.002,0.312,0.002,0.464   c0.001,4.313-0.491,9.225-0.988,13.03c-0.248,1.904-1.191,7.601-1.356,8.12c-0.256,0.807,0.019,1.681,0.69,2.194   c0.964,0.742,1.576,1.879,1.577,3.175C89.96,78.11,89.517,79.098,88.79,79.828z"/><path d="M19.215,39.416c0.039-0.346,0.129-1.094,0.129-1.094c0.087-0.686-0.397-1.311-1.082-1.398   c-0.685-0.087-1.311,0.397-1.397,1.082C16.863,38.032,16.016,44.64,16.014,50c0.002,5.36,0.849,11.967,0.851,11.993   c0.087,0.685,0.713,1.169,1.397,1.082c0.685-0.088,1.17-0.714,1.082-1.398c0,0-0.013-0.098-0.035-0.285   C19.15,60.083,18.512,54.477,18.514,50c0-2.555,0.207-5.487,0.415-7.77C19.034,41.09,19.137,40.109,19.215,39.416z"/><path d="M82.585,60.878c-0.787-0.259-1.634,0.17-1.893,0.957c-1.205,3.676-3.756,6.753-7.067,8.641   c-0.72,0.41-0.971,1.326-0.56,2.046c0.41,0.72,1.326,0.971,2.046,0.56l0,0c3.952-2.253,6.989-5.916,8.432-10.311   C83.801,61.983,83.373,61.136,82.585,60.878z"/></g><text x="0" y="115" fill="#000000" font-size="5px" font-weight="bold" font-family="'Helvetica Neue', Helvetica, Arial-Unicode, Arial, Sans-serif">Created by Tomas Knopp</text><text x="0" y="120" fill="#000000" font-size="5px" font-weight="bold" font-family="'Helvetica Neue', Helvetica, Arial-Unicode, Arial, Sans-serif">from the Noun Project</text></svg>