<svg xmlns="http://www.w3.org/2000/svg" xmlns:xlink="http://www.w3.org/1999/xlink" version="1.1" x="0px" y="0px" viewBox="0 0 97.5 124.75" style="enable-background:new 0 0 97.5 99.8;" xml:space="preserve"><g><g><path d="M88.4,66.2L82.5,66c0,0,5-1.7,5.3-9.6C88,49.2,84,46,81.1,45.2c-5-1.4-10.1-1.3-10.1-1.3c1.5-4.7-0.2-6.7-0.3-6.9l-3.2,0    c0,0,3.3-1.2,3.2-6.4c-0.1-5.1-4.6-6.2-4.6-6.2c-18.3-4.7-44-3.1-44.2,10.1c-0.1,8.7,6.9,9.5,6.9,9.5s-20,1.2-20,18    C8.8,78.9,21,78.6,24,78.6h65.4C93.8,71.8,88.5,66.5,88.4,66.2z M22.8,34.7c0-7.8,8.9-10,10.4-10.5c9.1-2.6,24.5-1.5,32.6,0.9    c6.3,1.9,4.2,11.8-0.5,11.8H33.7c-3.8-0.1-5-3.7-2-5.3c4.5-2.3,23.4-2.1,31-0.3l0.1-0.3c-7.8-1.8-26.9-2.5-31.4,0    c-2,1.1-2.3,2.1-2.2,3.1c0,1,0.7,3,4.1,3.4h37.2c1.4,3-0.2,6.4-0.2,6.4H32.1C32.1,43.9,22.8,43.9,22.8,34.7z M88.9,77.8H24.3    c-6-0.2-14.9-2.3-14.6-15.5c0.4-18,22.5-17.7,22.5-17.7h38.6c0,0,6.6-0.3,11.3,1.7c3.2,1.4,5.1,6.1,5,10c-0.3,9.3-7.4,9.7-7.5,9.7    H24c0,0-4.5-0.2-4.4-4.5c0.1-4.5,4.2-4.6,4.2-4.6l51.6-0.6l0-0.2l-51.9,0.3c0,0-4.6,0.2-4.6,5.2c0,3.7,2.3,5.2,4.4,5.3h64.5    C87.8,66.8,92.2,72.3,88.9,77.8z"/></g></g><text x="0" y="114.8" fill="#000000" font-size="5px" font-weight="bold" font-family="'Helvetica Neue', Helvetica, Arial-Unicode, Arial, Sans-serif">Created by Aaron P. Brown</text><text x="0" y="119.8" fill="#000000" font-size="5px" font-weight="bold" font-family="'Helvetica Neue', Helvetica, Arial-Unicode, Arial, Sans-serif">from the Noun Project</text></svg>