<svg xmlns="http://www.w3.org/2000/svg" xmlns:xlink="http://www.w3.org/1999/xlink" xmlns:a="http://ns.adobe.com/AdobeSVGViewerExtensions/3.0/" version="1.1" x="0px" y="0px" viewBox="-2 -2 100 125" enable-background="new -2 -2 100 100" xml:space="preserve"><path d="M73,94H2V37c0-9.377,9.377-9,23-9c1.104,0,2-0.896,2-2c0-8.423,0.35-24,9-24h37v6h2V0c0,0-38.875,0-39,0  c-2.504,0-4.237,0.943-5.686,2.554h-0.016L3.764,29.088C1.42,30.723,0,33.661,0,37c0,34.201,0,59,0,59h75V42h-2V94z M28.476,5.211  C24.871,10.432,25,19,25,26c-11,0-15.17,0.137-19.36,2.047L28.476,5.211z M62,30l20-20c1.001-1.002,3.344-1.656,5,0l-5,5l-1-1L60,35  C60,33.258,60.229,31.771,62,30z M82,17l6,6L45.926,65.073c-1.145,1.145-2.35,2.226-3.593,3.26l-6.17-6.17  c1.063-1.254,2.184-2.459,3.36-3.609L82,17z M23.668,80.92c-0.156,0.102-0.362,0.077-0.492-0.057s-0.146-0.341-0.04-0.493  c2.938-4.208,10.658-15.241,12.147-17.148l6.028,6.028C39.48,70.653,28.016,78.104,23.668,80.92z M95,16l-6-6  c1.638-1.64,3.944-1.055,5,0l1,1C96,12,96.707,14.293,95,16z M88,11l6,6l-5,5l-6-6L88,11z"/><text x="-2" y="113" fill="#000000" font-size="5px" font-weight="bold" font-family="'Helvetica Neue', Helvetica, Arial-Unicode, Arial, Sans-serif">Created by Adreine</text><text x="-2" y="118" fill="#000000" font-size="5px" font-weight="bold" font-family="'Helvetica Neue', Helvetica, Arial-Unicode, Arial, Sans-serif">from the Noun Project</text></svg>