<svg xmlns="http://www.w3.org/2000/svg" xmlns:xlink="http://www.w3.org/1999/xlink" version="1.1" x="0px" y="0px" viewBox="0 0 100 125" enable-background="new 0 0 100 100" xml:space="preserve"><g display="none"><path display="inline" fill="#000000" d="M50,1.283C23.138,1.283,1.283,23.138,1.283,50S23.138,98.717,50,98.717   S98.717,76.862,98.717,50S76.862,1.283,50,1.283z M50,96.717C24.24,96.717,3.283,75.76,3.283,50S24.24,3.283,50,3.283   S96.717,24.24,96.717,50S75.76,96.717,50,96.717z"/><path display="inline" fill="#000000" d="M77.164,32.664c1.923-2.646,0.55-4.45,0.487-4.529l-0.544-0.682l-0.443,0.752   c-0.141,0.237-0.652,0.915-1.148,0.915c-0.186,0-0.33-0.112-0.64-0.388c-0.414-0.369-0.981-0.875-1.985-0.875   c-0.917,0-1.361,0.365-1.719,0.66c-0.292,0.241-0.485,0.4-1.01,0.4c-0.613,0-1.031-0.27-1.475-0.555   c-0.441-0.285-0.941-0.607-1.605-0.607c-0.65,0-1.017,0.242-1.312,0.436c-0.304,0.2-0.566,0.373-1.313,0.373   c-0.693,0-1.056-0.218-1.476-0.471c-0.461-0.275-0.983-0.59-1.858-0.59c-0.928,0-1.532,0.33-2.019,0.596   c-0.373,0.203-0.668,0.363-1.062,0.363c-0.425,0-0.709-0.121-1.069-0.274c-0.452-0.192-1.014-0.433-1.911-0.433   c-0.821,0-1.251,0.148-1.63,0.279c-0.351,0.121-0.654,0.227-1.349,0.227c-0.407,0-0.83-0.05-1.26-0.148   c-0.204-0.18-0.526-0.271-0.957-0.271s-0.753,0.092-0.957,0.271c-0.43,0.099-0.852,0.148-1.258,0.148   c-0.695,0-0.999-0.105-1.352-0.227c-0.379-0.131-0.809-0.279-1.629-0.279c-0.897,0-1.459,0.24-1.911,0.433   c-0.36,0.153-0.645,0.274-1.069,0.274c-0.395,0-0.689-0.16-1.062-0.364c-0.485-0.265-1.09-0.595-2.018-0.595   c-0.875,0-1.397,0.314-1.857,0.591c-0.419,0.252-0.781,0.47-1.475,0.47c-0.748,0-1.012-0.173-1.315-0.373   c-0.295-0.193-0.661-0.436-1.312-0.436c-0.664,0-1.164,0.322-1.604,0.607c-0.443,0.285-0.861,0.555-1.478,0.555   c-0.522,0-0.716-0.159-1.008-0.4c-0.357-0.295-0.802-0.66-1.717-0.66c-1.005,0-1.572,0.506-1.987,0.875   c-0.286,0.254-0.445,0.388-0.642,0.388c-0.494,0-1.006-0.678-1.146-0.913l-0.442-0.761l-0.546,0.689   c-0.062,0.079-1.427,1.872,0.472,4.508c-0.949,1.56-3.779,7.274-2.894,18.532l-0.101,0.006l0.126,0.367   c0.007,0.084,0.009,0.159,0.017,0.243l0.051,0.571l0.214-0.01c1.085,3,6.545,16.812,17.102,23.223l-0.243,0.175l1.12,0.341   l0.267,0.148l0.074-0.054c0.854,0.22,3.545,0.817,8.272,1.021c0.027,0.004,0.056,0.007,0.087,0.01v0.057   c0.034-0.001,0.521-0.001,1.786-0.001c0.378,0.001,0.816,0.001,1.323,0.002h0.113c0.007,0,0.014,0,0.02,0   c0.506,0,0.949,0,1.337-0.001c0.224,0,0.474,0,0.752,0h1.369v-0.062c0.094-0.011,0.174-0.023,0.241-0.039   c4.23-0.231,6.975-0.799,7.818-0.994l0.086,0.062l0.269-0.149l1.121-0.296l-0.271-0.203c10.572-6.404,16.04-20.236,17.126-23.238   l0.214,0.01l0.051-0.57c0.008-0.084,0.01-0.16,0.017-0.244l0.126-0.367l-0.101-0.006C80.928,39.965,78.126,34.252,77.164,32.664z    M78.856,51.096c-1.114-0.104-3.673-0.432-6.132-1.383c-0.033-0.014-0.067-0.027-0.102-0.041c-0.213-0.084-0.424-0.172-0.633-0.266   c-0.055-0.023-0.108-0.051-0.162-0.075c-0.196-0.091-0.392-0.183-0.583-0.282c-0.063-0.033-0.125-0.07-0.188-0.104   c-0.285-0.154-0.562-0.322-0.83-0.498c-0.125-0.084-0.254-0.162-0.374-0.25c-0.097-0.07-0.185-0.146-0.277-0.219   c-0.134-0.105-0.269-0.211-0.395-0.322c-0.087-0.078-0.168-0.16-0.251-0.24s-0.163-0.164-0.243-0.248   c0.042-0.146,0.072-0.295,0.11-0.442c0.011-0.042,0.023-0.083,0.034-0.126h0.001c0.003-0.01,0.005-0.021,0.007-0.031   c0.041-0.168,0.086-0.334,0.122-0.508c0.035-0.168,0.059-0.34,0.089-0.509h0.001c0.002-0.013,0.004-0.027,0.006-0.04   c0.049-0.279,0.094-0.561,0.129-0.843c0.018-0.149,0.031-0.302,0.046-0.453c0.051-0.544,0.086-1.094,0.086-1.658   c0-0.429-0.029-0.858-0.07-1.286c-0.009-0.09-0.018-0.18-0.028-0.27c-0.103-0.895-0.28-1.773-0.506-2.612   c-0.001-0.006-0.003-0.011-0.004-0.017c-0.594-2.207-1.487-4.124-2.062-5.225h9.403C76.78,34.33,79.742,39.896,78.856,51.096z    M24.217,30.32c0.662,0,1.094-0.384,1.439-0.692c0.358-0.319,0.642-0.571,1.189-0.571c0.484,0,0.661,0.146,0.953,0.387   c0.346,0.285,0.818,0.675,1.771,0.675c0.97,0,1.611-0.414,2.128-0.747c0.398-0.257,0.658-0.414,0.954-0.414   c0.291,0,0.411,0.078,0.651,0.236c0.366,0.241,0.868,0.571,1.976,0.571c1.026,0,1.618-0.356,2.093-0.642   c0.405-0.243,0.697-0.419,1.239-0.419c0.622,0,1.002,0.208,1.442,0.448c0.439,0.239,0.938,0.512,1.638,0.512   c0.67,0,1.132-0.197,1.54-0.371c0.405-0.174,0.788-0.336,1.44-0.336c0.619,0,0.906,0.098,1.238,0.213   c0.396,0.137,0.846,0.291,1.742,0.291c0.573,0,1.168-0.08,1.768-0.237l0.447-0.117l0.447,0.117c0.6,0.157,1.195,0.237,1.77,0.237   c0.896,0,1.345-0.154,1.74-0.291c0.332-0.115,0.618-0.213,1.238-0.213c0.652,0,1.035,0.162,1.44,0.336   c0.408,0.174,0.87,0.371,1.54,0.371c0.699,0,1.197-0.271,1.637-0.512c0.44-0.24,0.821-0.448,1.443-0.448   c0.543,0,0.835,0.176,1.24,0.419c0.476,0.285,1.067,0.642,2.094,0.642c1.106,0,1.607-0.33,1.974-0.571   c0.24-0.158,0.36-0.236,0.651-0.236c0.296,0,0.556,0.157,0.955,0.414c0.517,0.333,1.158,0.747,2.125,0.747   c0.955,0,1.428-0.39,1.773-0.675c0.292-0.24,0.469-0.387,0.955-0.387c0.547,0,0.829,0.252,1.187,0.571   c0.347,0.309,0.776,0.692,1.438,0.692c0.595,0,1.091-0.297,1.461-0.629c0.049,0.529-0.075,1.297-0.769,2.257H65.973l-0.045-0.074   h-0.004H33.811H33.77l-0.045,0.074H23.526c-0.692-0.96-0.816-1.729-0.769-2.257C23.127,30.023,23.623,30.32,24.217,30.32z    M23.467,33.473l0.214-0.324h9.367c-0.92,1.764-2.671,5.615-2.671,9.409c0,0.212,0.024,0.403,0.031,0.608   c0.01,0.271,0.021,0.543,0.043,0.811c0.023,0.301,0.051,0.599,0.09,0.887c0.013,0.098,0.031,0.193,0.046,0.291   c0.104,0.686,0.243,1.34,0.418,1.963c0.005,0.018,0.008,0.033,0.013,0.051c-0.08,0.084-0.16,0.168-0.244,0.249   c-0.082,0.079-0.163,0.161-0.249,0.238c-0.126,0.111-0.259,0.216-0.392,0.319c-0.094,0.074-0.185,0.152-0.282,0.223   c-0.078,0.057-0.162,0.107-0.242,0.162c-0.331,0.225-0.676,0.436-1.033,0.625c-0.033,0.018-0.066,0.038-0.1,0.056   c-0.216,0.112-0.435,0.218-0.656,0.317c-0.024,0.012-0.049,0.023-0.073,0.035c-2.673,1.198-5.667,1.588-6.897,1.703   C20.027,40.691,22.523,35.154,23.467,33.473z M21.215,52.27c1.665-0.168,5.329-0.721,8.303-2.438   c0.006-0.003,0.012-0.006,0.018-0.01c0.168-0.098,0.331-0.2,0.494-0.305c0.114-0.073,0.226-0.148,0.337-0.225   c0.126-0.087,0.251-0.175,0.372-0.268c0.19-0.143,0.374-0.295,0.553-0.451c0.047-0.041,0.099-0.079,0.146-0.121   c0-0.001,0-0.002,0-0.002c0.861,2.302,2.139,4.27,3.473,6.289c2.416,3.658,4.915,7.441,4.915,13.837c0,0.24-0.009,0.466-0.018,0.69   c-0.004,0.086-0.006,0.174-0.011,0.258c-0.014,0.247-0.032,0.486-0.056,0.715c-0.004,0.039-0.01,0.074-0.015,0.112   c-0.05,0.44-0.117,0.845-0.197,1.215c-0.01,0.044-0.02,0.091-0.029,0.134c-0.138,0.598-0.306,1.104-0.484,1.524   c-0.003,0.007-0.006,0.015-0.009,0.021c-0.335,0.784-0.695,1.271-0.933,1.536C27.946,68.893,22.525,55.797,21.215,52.27z    M49.869,76.072l-0.648-0.039l0.001,0.039c-5.137-0.039-8.42-0.57-9.924-0.887c0.738-1.004,1.735-3.02,1.735-6.608   c0-6.757-2.596-10.694-5.106-14.504c-1.516-2.299-2.947-4.47-3.728-7.168l-0.001,0.001c-0.062-0.215-0.119-0.43-0.171-0.646   l-0.086-0.371h-0.002c-0.041-0.189-0.073-0.381-0.106-0.572c-0.041-0.235-0.078-0.475-0.108-0.718L31.723,44.6   c-0.028-0.227-0.055-0.452-0.074-0.68c-0.02-0.232-0.028-0.474-0.038-0.715c-0.008-0.215-0.022-0.428-0.022-0.647   c0-3.056,1.267-6.235,2.162-8.104l0.021,0.011l0.001-0.001h0.002l0.083-0.172l-0.022-0.011c0.264-0.54,0.485-0.952,0.625-1.2   l0.02-0.004l30.759-0.002l0.041,0.074h0.004c0.505,0.912,1.818,3.457,2.465,6.336c0.01,0.043,0.019,0.086,0.028,0.129   c0.043,0.199,0.083,0.399,0.119,0.602c0.016,0.086,0.028,0.172,0.042,0.259c0.027,0.167,0.054,0.335,0.075,0.503   c0.018,0.136,0.029,0.271,0.042,0.408c0.013,0.125,0.027,0.25,0.036,0.375c0.018,0.267,0.028,0.533,0.028,0.798   c0,0.546-0.035,1.063-0.084,1.569c-0.014,0.143-0.028,0.285-0.046,0.426c-0.002,0.018-0.006,0.033-0.009,0.051l0,0   c-0.001,0.008-0.003,0.018-0.004,0.025c-0.05,0.386-0.109,0.762-0.185,1.127c-0.01,0.047-0.017,0.094-0.026,0.141l-0.003-0.001   c-0.021,0.101-0.045,0.2-0.067,0.299c-0.073,0.308-0.16,0.606-0.25,0.901c-0.076,0.25-0.155,0.498-0.242,0.741   c-0.049,0.136-0.103,0.268-0.154,0.401c-0.182,0.466-0.379,0.92-0.594,1.363c-0.038,0.078-0.075,0.158-0.115,0.236   c-0.734,1.463-1.631,2.825-2.56,4.234c-2.511,3.809-5.106,7.748-5.106,14.505c0,0.406,0.016,0.786,0.04,1.153   c0.007,0.115,0.019,0.223,0.027,0.334c0.021,0.249,0.047,0.49,0.078,0.721c0.015,0.111,0.03,0.222,0.047,0.329   c0.037,0.232,0.078,0.453,0.123,0.666c0.017,0.077,0.031,0.159,0.049,0.233c0.063,0.275,0.134,0.536,0.209,0.779   c0.019,0.059,0.038,0.111,0.058,0.169c0.061,0.183,0.122,0.356,0.187,0.521c0.029,0.076,0.06,0.148,0.091,0.22   c0.058,0.138,0.116,0.267,0.176,0.39c0.031,0.062,0.061,0.127,0.092,0.186c0.071,0.138,0.142,0.265,0.213,0.383   c0.018,0.029,0.034,0.062,0.052,0.091c0.088,0.143,0.173,0.269,0.257,0.386c0.006,0.008,0.013,0.02,0.019,0.027   C58.717,75.49,55.01,76.072,49.869,76.072z M61.626,74.787c-0.007-0.008-0.015-0.016-0.021-0.025   c-0.062-0.069-0.128-0.15-0.201-0.248c-0.011-0.016-0.022-0.033-0.033-0.048c-0.067-0.092-0.139-0.198-0.211-0.315   c-0.02-0.031-0.038-0.061-0.058-0.094c-0.083-0.139-0.168-0.294-0.253-0.467c-0.016-0.033-0.031-0.07-0.048-0.104   c-0.075-0.16-0.148-0.335-0.222-0.523c-0.016-0.041-0.031-0.08-0.047-0.123c-0.08-0.219-0.156-0.46-0.228-0.719   c-0.016-0.057-0.029-0.117-0.044-0.176c-0.063-0.246-0.121-0.509-0.172-0.791c-0.007-0.04-0.016-0.076-0.022-0.117   c-0.053-0.312-0.094-0.652-0.126-1.009c-0.008-0.083-0.014-0.169-0.02-0.253c-0.028-0.378-0.048-0.771-0.048-1.198   c0-6.396,2.498-10.179,4.914-13.837c1.001-1.516,1.966-3.003,2.755-4.619c0-0.001,0.001-0.002,0.001-0.004   c0.261-0.534,0.499-1.088,0.713-1.658c0.001-0.005,0.003-0.008,0.005-0.013c0.004,0.004,0.009,0.007,0.014,0.011   c0.033,0.031,0.069,0.057,0.103,0.088c0.193,0.17,0.394,0.334,0.6,0.489c0.112,0.085,0.228,0.165,0.344,0.245   c0.124,0.088,0.25,0.172,0.379,0.253c0.15,0.097,0.301,0.192,0.455,0.282c0.037,0.021,0.076,0.041,0.113,0.062   c2.96,1.681,6.572,2.228,8.223,2.394C77.179,55.797,71.757,68.896,61.626,74.787z"/><circle display="inline" fill="#000000" cx="44.441" cy="44.488" r="0.859"/><path display="inline" fill="#000000" d="M55.373,45.348c0.475,0,0.857-0.385,0.857-0.859c0-0.474-0.383-0.858-0.857-0.858   c-0.477,0-0.859,0.385-0.859,0.858C54.514,44.963,54.896,45.348,55.373,45.348z"/><path display="inline" fill="#000000" d="M58.727,44.488c0-1.85-1.504-3.354-3.354-3.354c-1.851,0-3.355,1.505-3.355,3.354   c0,0.018,0,0.035,0,0.054c-1.376-0.275-2.847-0.278-4.223-0.005c0-0.016,0-0.032,0-0.049c0-1.85-1.504-3.354-3.354-3.354   c-1.851,0-3.355,1.505-3.355,3.354c0,1.232,0.664,2.328,1.694,2.911c-0.723,0.931-1.101,1.979-1.101,3.073   c0,3.386,3.684,6.14,8.213,6.14s8.213-2.754,8.213-6.14c0-1.088-0.375-2.131-1.092-3.061   C58.055,46.834,58.727,45.732,58.727,44.488z M49.893,55.412c-3.867,0-7.014-2.215-7.014-4.939c0-1.033,0.463-2.029,1.339-2.882   l0.779-0.759l-1.059-0.254c-0.973-0.234-1.653-1.093-1.653-2.09c0-1.188,0.968-2.154,2.156-2.154c1.188,0,2.154,0.967,2.154,2.154   c0,0.204-0.038,0.422-0.116,0.665l-0.345,1.077l1.085-0.318c1.721-0.506,3.655-0.504,5.375,0.008l1.094,0.324l-0.353-1.085   c-0.081-0.25-0.119-0.463-0.119-0.671c0-1.188,0.968-2.154,2.156-2.154c1.188,0,2.154,0.967,2.154,2.154   c0,1.008-0.687,1.869-1.67,2.096l-1.07,0.246l0.786,0.768c0.872,0.852,1.333,1.846,1.333,2.875   C56.906,53.197,53.76,55.412,49.893,55.412z"/><path display="inline" fill="#000000" d="M54.806,51.073c-0.642,1.509-2.66,2.562-4.909,2.562c-2.248,0-4.268-1.053-4.911-2.562   c-0.13-0.305-0.483-0.445-0.787-0.316c-0.305,0.131-0.446,0.482-0.316,0.787c0.839,1.969,3.256,3.292,6.015,3.292   c2.76,0,5.176-1.323,6.013-3.292c0.13-0.305-0.012-0.657-0.317-0.787C55.287,50.625,54.935,50.77,54.806,51.073z"/></g><g display="none"><g display="inline"><path fill="#000000" d="M60.114,74.751c-0.018-0.028-0.034-0.062-0.052-0.091c-0.071-0.118-0.142-0.245-0.213-0.383    c-0.031-0.059-0.061-0.123-0.092-0.186c-0.06-0.123-0.118-0.252-0.176-0.39c-0.031-0.071-0.062-0.144-0.091-0.22    c-0.064-0.164-0.126-0.338-0.187-0.521c-0.02-0.058-0.039-0.11-0.058-0.169c-0.075-0.243-0.146-0.504-0.209-0.779    c-0.018-0.074-0.032-0.156-0.049-0.233c-0.045-0.213-0.086-0.434-0.123-0.666c-0.017-0.107-0.032-0.218-0.047-0.329    c-0.031-0.23-0.057-0.472-0.078-0.721c-0.009-0.111-0.021-0.219-0.027-0.334c-0.024-0.367-0.04-0.747-0.04-1.153    c0-6.757,2.596-10.696,5.106-14.505c0.929-1.409,1.825-2.771,2.56-4.234c0.04-0.078,0.077-0.158,0.115-0.236    c0.215-0.443,0.412-0.897,0.594-1.363c0.052-0.134,0.105-0.266,0.154-0.401c0.087-0.243,0.166-0.491,0.242-0.741    c0.09-0.295,0.177-0.594,0.25-0.901c0.022-0.099,0.046-0.198,0.067-0.299l0.003,0.001c0.01-0.047,0.017-0.094,0.026-0.141    c0.075-0.365,0.135-0.741,0.185-1.127c0.001-0.008,0.003-0.018,0.004-0.025c0.003-0.018,0.007-0.033,0.009-0.051    c0.018-0.141,0.032-0.283,0.046-0.426c0.049-0.506,0.084-1.023,0.084-1.569c0-0.265-0.011-0.531-0.028-0.798    c-0.009-0.125-0.023-0.25-0.036-0.375c-0.013-0.137-0.024-0.272-0.042-0.408c-0.021-0.168-0.048-0.336-0.075-0.503    c-0.014-0.087-0.026-0.173-0.042-0.259c-0.036-0.202-0.076-0.402-0.119-0.602c-0.01-0.043-0.019-0.086-0.028-0.129    c-0.646-2.879-1.96-5.424-2.465-6.336h-0.004l-0.041-0.074l-30.759,0.002l-0.02,0.004c-0.14,0.248-0.361,0.66-0.625,1.2    l0.022,0.011l-0.083,0.172h-0.002l-0.001,0.001l-0.021-0.011c-0.896,1.869-2.162,5.049-2.162,8.104    c0,0.22,0.015,0.433,0.022,0.647c0.01,0.241,0.019,0.482,0.038,0.715c0.02,0.228,0.046,0.453,0.074,0.68l0.002-0.001    c0.03,0.243,0.067,0.482,0.108,0.718c0.033,0.191,0.065,0.383,0.106,0.572h0.002l0.086,0.371c0.052,0.217,0.109,0.432,0.171,0.646    l0.001-0.001c0.78,2.698,2.212,4.869,3.728,7.168c2.511,3.81,5.106,7.747,5.106,14.504c0,3.589-0.997,5.604-1.735,6.608    c1.504,0.316,4.787,0.848,9.924,0.887l-0.001-0.039l0.648,0.039c5.141,0,8.848-0.582,10.521-0.908    c-0.006-0.008-0.013-0.02-0.019-0.027C60.287,75.02,60.202,74.894,60.114,74.751z M49.893,56.612c-4.529,0-8.213-2.754-8.213-6.14    c0-1.094,0.378-2.143,1.101-3.073c-1.03-0.583-1.694-1.679-1.694-2.911c0-1.85,1.505-3.354,3.355-3.354    c1.85,0,3.354,1.505,3.354,3.354c0,0.017,0,0.033,0,0.049c1.376-0.273,2.847-0.271,4.223,0.005c0-0.019,0-0.036,0-0.054    c0-1.85,1.505-3.354,3.355-3.354c1.85,0,3.354,1.505,3.354,3.354c0,1.244-0.672,2.346-1.713,2.924    c0.717,0.93,1.092,1.973,1.092,3.061C58.105,53.858,54.422,56.612,49.893,56.612z"/><path fill="#000000" d="M54.787,46.83l1.07-0.246c0.983-0.227,1.67-1.088,1.67-2.096c0-1.188-0.967-2.154-2.154-2.154    c-1.188,0-2.156,0.967-2.156,2.154c0,0.208,0.038,0.421,0.119,0.671l0.353,1.085l-1.094-0.324    c-1.72-0.512-3.654-0.514-5.375-0.008l-1.085,0.318l0.345-1.077c0.078-0.243,0.116-0.461,0.116-0.665    c0-1.188-0.967-2.154-2.154-2.154c-1.188,0-2.156,0.967-2.156,2.154c0,0.997,0.681,1.855,1.653,2.09l1.059,0.254l-0.779,0.759    c-0.876,0.853-1.339,1.849-1.339,2.882c0,2.725,3.146,4.939,7.014,4.939s7.014-2.215,7.014-4.939c0-1.029-0.461-2.023-1.333-2.875    L54.787,46.83z M55.373,43.63c0.475,0,0.857,0.385,0.857,0.858c0,0.475-0.383,0.859-0.857,0.859c-0.477,0-0.859-0.385-0.859-0.859    C54.514,44.015,54.896,43.63,55.373,43.63z M44.441,45.348c-0.475,0-0.859-0.385-0.859-0.859c0-0.473,0.385-0.857,0.859-0.857    s0.859,0.385,0.859,0.857C45.301,44.963,44.916,45.348,44.441,45.348z M55.909,51.543c-0.837,1.969-3.253,3.292-6.013,3.292    c-2.759,0-5.176-1.323-6.015-3.292c-0.13-0.305,0.012-0.656,0.316-0.787c0.304-0.129,0.657,0.012,0.787,0.316    c0.644,1.51,2.663,2.562,4.911,2.562c2.249,0,4.268-1.053,4.909-2.562c0.129-0.304,0.481-0.448,0.786-0.317    C55.897,50.886,56.039,51.238,55.909,51.543z"/><path fill="#000000" d="M27.819,49.357c0.222-0.1,0.44-0.205,0.656-0.317c0.033-0.018,0.066-0.038,0.1-0.056    c0.357-0.189,0.702-0.4,1.033-0.625c0.08-0.055,0.164-0.105,0.242-0.162c0.098-0.07,0.188-0.148,0.282-0.223    c0.133-0.104,0.266-0.208,0.392-0.319c0.086-0.077,0.167-0.159,0.249-0.238c0.084-0.081,0.164-0.165,0.244-0.249    c-0.005-0.018-0.008-0.033-0.013-0.051c-0.175-0.623-0.314-1.277-0.418-1.963c-0.015-0.098-0.033-0.193-0.046-0.291    c-0.039-0.288-0.066-0.586-0.09-0.887c-0.021-0.268-0.033-0.539-0.043-0.811c-0.007-0.205-0.031-0.396-0.031-0.608    c0-3.794,1.751-7.646,2.671-9.409h-9.367l-0.214,0.324c-0.943,1.682-3.439,7.219-2.618,17.623c1.23-0.115,4.225-0.505,6.897-1.703    C27.771,49.381,27.795,49.369,27.819,49.357z"/><path fill="#000000" d="M39.528,71.567c0.08-0.37,0.147-0.774,0.197-1.215c0.005-0.038,0.011-0.073,0.015-0.112    c0.023-0.229,0.042-0.468,0.056-0.715c0.005-0.084,0.007-0.172,0.011-0.258c0.009-0.225,0.018-0.45,0.018-0.69    c0-6.396-2.499-10.179-4.915-13.837c-1.334-2.02-2.611-3.987-3.473-6.289c0,0,0,0.001,0,0.002    c-0.047,0.042-0.099,0.08-0.146,0.121c-0.179,0.156-0.362,0.309-0.553,0.451c-0.121,0.093-0.246,0.181-0.372,0.268    c-0.111,0.076-0.223,0.151-0.337,0.225c-0.163,0.104-0.326,0.207-0.494,0.305c-0.006,0.004-0.012,0.007-0.018,0.01    c-2.974,1.717-6.638,2.27-8.303,2.438c1.311,3.527,6.731,16.623,16.858,22.514c0.237-0.266,0.598-0.752,0.933-1.536    c0.003-0.007,0.006-0.015,0.009-0.021c0.179-0.421,0.347-0.927,0.484-1.524C39.509,71.658,39.519,71.611,39.528,71.567z"/><path fill="#000000" d="M66.648,33.148c0.574,1.101,1.468,3.018,2.062,5.225c0.001,0.006,0.003,0.011,0.004,0.017    c0.226,0.839,0.403,1.718,0.506,2.612c0.011,0.09,0.02,0.18,0.028,0.27c0.041,0.428,0.07,0.857,0.07,1.286    c0,0.564-0.035,1.114-0.086,1.658c-0.015,0.151-0.028,0.304-0.046,0.453c-0.035,0.282-0.08,0.563-0.129,0.843    c-0.002,0.013-0.004,0.027-0.006,0.04h-0.001c-0.03,0.169-0.054,0.341-0.089,0.509c-0.036,0.174-0.081,0.34-0.122,0.508    c-0.002,0.011-0.004,0.021-0.007,0.031h-0.001c-0.011,0.043-0.023,0.084-0.034,0.126c-0.038,0.147-0.068,0.296-0.11,0.442    c0.08,0.084,0.16,0.168,0.243,0.248s0.164,0.162,0.251,0.24c0.126,0.111,0.261,0.217,0.395,0.322    c0.093,0.072,0.181,0.148,0.277,0.219c0.12,0.088,0.249,0.166,0.374,0.25c0.269,0.176,0.545,0.344,0.83,0.498    c0.062,0.033,0.124,0.07,0.188,0.104c0.191,0.1,0.387,0.191,0.583,0.282c0.054,0.024,0.107,0.052,0.162,0.075    c0.209,0.094,0.42,0.182,0.633,0.266c0.034,0.014,0.068,0.027,0.102,0.041c2.459,0.951,5.018,1.279,6.132,1.383    c0.886-11.199-2.076-16.766-2.805-17.947H66.648z"/><path fill="#000000" d="M70.154,49.814c-0.154-0.09-0.305-0.186-0.455-0.282c-0.129-0.081-0.255-0.165-0.379-0.253    c-0.116-0.08-0.231-0.16-0.344-0.245c-0.206-0.155-0.406-0.319-0.6-0.489c-0.033-0.031-0.069-0.057-0.103-0.088    c-0.005-0.004-0.01-0.007-0.014-0.011c-0.002,0.005-0.004,0.008-0.005,0.013c-0.214,0.57-0.452,1.124-0.713,1.658    c0,0.002-0.001,0.003-0.001,0.004c-0.789,1.616-1.754,3.104-2.755,4.619c-2.416,3.658-4.914,7.441-4.914,13.837    c0,0.427,0.02,0.82,0.048,1.198c0.006,0.084,0.012,0.17,0.02,0.253c0.032,0.356,0.073,0.696,0.126,1.009    c0.007,0.041,0.016,0.077,0.022,0.117c0.051,0.282,0.108,0.545,0.172,0.791c0.015,0.059,0.028,0.119,0.044,0.176    c0.071,0.259,0.147,0.5,0.228,0.719c0.016,0.043,0.031,0.082,0.047,0.123c0.073,0.188,0.146,0.363,0.222,0.523    c0.017,0.033,0.032,0.07,0.048,0.104c0.085,0.173,0.17,0.328,0.253,0.467c0.02,0.033,0.038,0.062,0.058,0.094    c0.072,0.117,0.144,0.224,0.211,0.315c0.011,0.015,0.022,0.032,0.033,0.048c0.073,0.098,0.14,0.179,0.201,0.248    c0.007,0.01,0.015,0.018,0.021,0.025c10.131-5.891,15.553-18.99,16.864-22.518c-1.65-0.166-5.263-0.713-8.223-2.394    C70.23,49.855,70.191,49.836,70.154,49.814z"/><path fill="#000000" d="M33.725,31.948l0.045-0.074h0.041h32.113h0.004l0.045,0.074h10.235c0.693-0.96,0.817-1.728,0.769-2.257    c-0.37,0.332-0.866,0.629-1.461,0.629c-0.662,0-1.092-0.384-1.438-0.692c-0.357-0.319-0.64-0.571-1.187-0.571    c-0.486,0-0.663,0.146-0.955,0.387c-0.346,0.285-0.818,0.675-1.773,0.675c-0.967,0-1.608-0.414-2.125-0.747    c-0.399-0.257-0.659-0.414-0.955-0.414c-0.291,0-0.411,0.078-0.651,0.236c-0.366,0.241-0.867,0.571-1.974,0.571    c-1.026,0-1.618-0.356-2.094-0.642c-0.405-0.243-0.697-0.419-1.24-0.419c-0.622,0-1.003,0.208-1.443,0.448    c-0.439,0.24-0.938,0.512-1.637,0.512c-0.67,0-1.132-0.197-1.54-0.371c-0.405-0.174-0.788-0.336-1.44-0.336    c-0.62,0-0.906,0.098-1.238,0.213c-0.396,0.137-0.845,0.291-1.74,0.291c-0.574,0-1.17-0.08-1.77-0.237l-0.447-0.117l-0.447,0.117    c-0.6,0.157-1.194,0.237-1.768,0.237c-0.896,0-1.346-0.154-1.742-0.291c-0.332-0.115-0.619-0.213-1.238-0.213    c-0.652,0-1.035,0.162-1.44,0.336c-0.408,0.174-0.87,0.371-1.54,0.371c-0.7,0-1.198-0.272-1.638-0.512    c-0.44-0.24-0.82-0.448-1.442-0.448c-0.542,0-0.834,0.176-1.239,0.419c-0.475,0.285-1.066,0.642-2.093,0.642    c-1.107,0-1.609-0.33-1.976-0.571c-0.24-0.158-0.36-0.236-0.651-0.236c-0.296,0-0.556,0.157-0.954,0.414    c-0.517,0.333-1.158,0.747-2.128,0.747c-0.953,0-1.426-0.39-1.771-0.675c-0.292-0.24-0.469-0.387-0.953-0.387    c-0.548,0-0.831,0.252-1.189,0.571c-0.346,0.309-0.777,0.692-1.439,0.692c-0.594,0-1.09-0.297-1.459-0.629    c-0.048,0.528,0.076,1.297,0.769,2.257H33.725z"/><path fill="#000000" d="M50,1.283C23.138,1.283,1.283,23.138,1.283,50S23.138,98.717,50,98.717S98.717,76.862,98.717,50    S76.862,1.283,50,1.283z M80.145,51.182l-0.126,0.367c-0.007,0.084-0.009,0.16-0.017,0.244l-0.051,0.57l-0.214-0.01    c-1.086,3.002-6.554,16.834-17.126,23.238l0.271,0.203l-1.121,0.296l-0.269,0.149l-0.086-0.062    c-0.844,0.195-3.588,0.763-7.818,0.994c-0.067,0.016-0.147,0.028-0.241,0.039v0.062h-1.369c-0.278,0-0.528,0-0.752,0    c-0.388,0.001-0.831,0.001-1.337,0.001c-0.006,0-0.013,0-0.02,0h-0.113c-0.507-0.001-0.945-0.001-1.323-0.002    c-1.265,0-1.752,0-1.786,0.001v-0.057c-0.031-0.003-0.06-0.006-0.087-0.01c-4.728-0.203-7.419-0.801-8.272-1.021l-0.074,0.054    l-0.267-0.148l-1.12-0.341l0.243-0.175c-10.557-6.41-16.017-20.223-17.102-23.223l-0.214,0.01l-0.051-0.571    c-0.008-0.084-0.01-0.159-0.017-0.243l-0.126-0.367l0.101-0.006c-0.886-11.258,1.944-16.973,2.894-18.532    c-1.898-2.636-0.534-4.429-0.472-4.508l0.546-0.689l0.442,0.761c0.14,0.235,0.651,0.913,1.146,0.913    c0.196,0,0.355-0.134,0.642-0.388c0.415-0.369,0.982-0.875,1.987-0.875c0.915,0,1.359,0.365,1.717,0.66    c0.292,0.241,0.485,0.4,1.008,0.4c0.616,0,1.034-0.27,1.478-0.555c0.44-0.285,0.94-0.607,1.604-0.607    c0.65,0,1.017,0.242,1.312,0.436c0.304,0.2,0.567,0.373,1.315,0.373c0.693,0,1.056-0.218,1.475-0.47    c0.46-0.276,0.982-0.591,1.857-0.591c0.928,0,1.532,0.33,2.018,0.595c0.373,0.204,0.668,0.364,1.062,0.364    c0.425,0,0.709-0.121,1.069-0.274c0.452-0.192,1.014-0.433,1.911-0.433c0.82,0,1.25,0.148,1.629,0.279    c0.353,0.121,0.656,0.227,1.352,0.227c0.406,0,0.828-0.05,1.258-0.148c0.204-0.18,0.526-0.271,0.957-0.271    s0.753,0.092,0.957,0.271c0.43,0.099,0.853,0.148,1.26,0.148c0.694,0,0.998-0.105,1.349-0.227c0.379-0.131,0.809-0.279,1.63-0.279    c0.897,0,1.459,0.24,1.911,0.433c0.36,0.153,0.645,0.274,1.069,0.274c0.394,0,0.688-0.16,1.062-0.363    c0.486-0.266,1.091-0.596,2.019-0.596c0.875,0,1.397,0.314,1.858,0.59c0.42,0.253,0.782,0.471,1.476,0.471    c0.747,0,1.01-0.173,1.313-0.373c0.295-0.193,0.661-0.436,1.312-0.436c0.664,0,1.164,0.322,1.605,0.607    c0.443,0.285,0.861,0.555,1.475,0.555c0.524,0,0.718-0.159,1.01-0.4c0.357-0.295,0.802-0.66,1.719-0.66    c1.004,0,1.571,0.506,1.985,0.875c0.31,0.275,0.454,0.388,0.64,0.388c0.496,0,1.008-0.678,1.148-0.915l0.443-0.752l0.544,0.682    c0.062,0.079,1.436,1.883-0.487,4.529c0.962,1.588,3.764,7.301,2.88,18.512L80.145,51.182z"/></g></g><g><path fill="#000000" d="M89.114,20.635c2.811-3.868,0.803-6.505,0.711-6.62l-0.795-0.997l-0.648,1.1   c-0.205,0.347-0.953,1.337-1.678,1.337c-0.271,0-0.482-0.164-0.936-0.566c-0.605-0.539-1.434-1.279-2.902-1.279   c-1.34,0-1.988,0.534-2.512,0.966c-0.426,0.353-0.709,0.585-1.477,0.585c-0.896,0-1.506-0.395-2.154-0.811   c-0.646-0.417-1.377-0.889-2.348-0.889c-0.951,0-1.486,0.354-1.916,0.637c-0.445,0.293-0.828,0.546-1.92,0.546   c-1.014,0-1.543-0.318-2.158-0.688c-0.674-0.402-1.438-0.862-2.715-0.862c-1.357,0-2.24,0.482-2.951,0.871   c-0.545,0.297-0.977,0.531-1.553,0.531c-0.619,0-1.035-0.178-1.562-0.401c-0.66-0.281-1.48-0.633-2.793-0.633   c-1.201,0-1.828,0.218-2.383,0.408c-0.512,0.178-0.957,0.332-1.971,0.332c-0.596,0-1.213-0.073-1.842-0.218   c-0.299-0.263-0.77-0.396-1.398-0.396c-0.631,0-1.102,0.134-1.398,0.396c-0.629,0.145-1.246,0.218-1.84,0.218   c-1.016,0-1.459-0.154-1.975-0.332c-0.555-0.19-1.182-0.408-2.381-0.408c-1.312,0-2.133,0.352-2.795,0.633   c-0.525,0.224-0.941,0.401-1.562,0.401c-0.576,0-1.008-0.234-1.553-0.533c-0.709-0.387-1.594-0.869-2.949-0.869   c-1.279,0-2.043,0.46-2.715,0.864c-0.613,0.368-1.143,0.687-2.156,0.687c-1.092,0-1.479-0.253-1.922-0.546   c-0.432-0.282-0.967-0.637-1.918-0.637c-0.971,0-1.701,0.472-2.344,0.889c-0.648,0.416-1.26,0.811-2.16,0.811   c-0.764,0-1.047-0.232-1.473-0.585c-0.523-0.432-1.172-0.966-2.51-0.966c-1.469,0-2.299,0.74-2.906,1.279   c-0.418,0.371-0.65,0.566-0.938,0.566c-0.723,0-1.469-0.99-1.674-1.334l-0.646-1.112l-0.799,1.008   c-0.09,0.115-2.084,2.736,0.689,6.589c-1.387,2.28-5.523,10.633-4.229,27.089l-0.146,0.009l0.184,0.536   c0.01,0.123,0.012,0.233,0.023,0.355l0.074,0.835l0.312-0.014c1.586,4.385,9.566,24.574,24.998,33.944l-0.355,0.256l1.637,0.498   l0.391,0.217l0.107-0.078c1.248,0.321,5.182,1.194,12.092,1.491c0.041,0.006,0.082,0.01,0.127,0.015v0.083   c0.051-0.002,0.764-0.002,2.611-0.002c0.553,0.002,1.193,0.002,1.934,0.003h0.166c0.01,0,0.02,0,0.029,0   c0.738,0,1.387,0,1.953-0.001c0.328,0,0.693,0,1.1,0H54.3v-0.092c0.137-0.016,0.254-0.034,0.352-0.058   c6.184-0.338,10.195-1.167,11.43-1.453l0.125,0.092l0.393-0.219l1.639-0.433l-0.396-0.297c15.455-9.36,23.447-29.579,25.033-33.967   l0.312,0.014l0.074-0.833c0.012-0.123,0.016-0.234,0.025-0.357l0.184-0.536l-0.146-0.009   C94.614,31.307,90.519,22.956,89.114,20.635z M91.587,47.576c-1.629-0.151-5.369-0.631-8.963-2.021   c-0.049-0.02-0.098-0.04-0.148-0.06c-0.311-0.123-0.619-0.251-0.926-0.389c-0.078-0.034-0.158-0.074-0.236-0.109   c-0.287-0.133-0.572-0.268-0.852-0.413c-0.094-0.048-0.184-0.103-0.273-0.151c-0.418-0.225-0.822-0.471-1.215-0.728   c-0.182-0.123-0.371-0.237-0.547-0.365c-0.141-0.103-0.27-0.214-0.404-0.32c-0.195-0.153-0.393-0.308-0.576-0.471   c-0.127-0.114-0.246-0.234-0.367-0.352c-0.121-0.116-0.238-0.239-0.355-0.362c0.061-0.214,0.105-0.431,0.16-0.646   c0.016-0.062,0.035-0.121,0.051-0.185h0.002c0.004-0.014,0.006-0.029,0.01-0.045c0.059-0.246,0.125-0.488,0.178-0.742   c0.051-0.246,0.086-0.497,0.131-0.744l0,0c0.004-0.019,0.006-0.04,0.01-0.059c0.07-0.408,0.137-0.819,0.188-1.231   c0.025-0.219,0.047-0.441,0.068-0.663c0.074-0.795,0.125-1.599,0.125-2.424c0-0.626-0.043-1.254-0.104-1.88   c-0.012-0.131-0.025-0.263-0.041-0.394c-0.15-1.308-0.41-2.593-0.74-3.818c0-0.009-0.004-0.016-0.004-0.024   c-0.869-3.226-2.176-6.028-3.014-7.637h13.744C88.552,23.07,92.882,31.206,91.587,47.576z M11.72,17.209   c0.969,0,1.6-0.562,2.105-1.012c0.523-0.467,0.938-0.836,1.738-0.836c0.707,0,0.965,0.215,1.393,0.565   c0.506,0.417,1.195,0.986,2.59,0.986c1.418,0,2.355-0.604,3.109-1.092c0.582-0.375,0.963-0.605,1.395-0.605   c0.426,0,0.602,0.114,0.953,0.346c0.535,0.353,1.27,0.835,2.887,0.835c1.5,0,2.365-0.521,3.061-0.938   c0.592-0.355,1.018-0.612,1.811-0.612c0.91,0,1.465,0.304,2.107,0.655c0.643,0.35,1.371,0.748,2.395,0.748   c0.979,0,1.654-0.289,2.252-0.543c0.592-0.254,1.15-0.491,2.105-0.491c0.904,0,1.324,0.143,1.809,0.312   c0.58,0.2,1.236,0.426,2.547,0.426c0.838,0,1.707-0.117,2.584-0.348l0.654-0.171l0.654,0.171c0.875,0.23,1.746,0.348,2.586,0.348   c1.309,0,1.965-0.226,2.543-0.426c0.486-0.169,0.904-0.312,1.811-0.312c0.953,0,1.514,0.237,2.105,0.491   c0.596,0.254,1.271,0.543,2.25,0.543c1.023,0,1.752-0.397,2.393-0.748c0.645-0.352,1.201-0.655,2.111-0.655   c0.793,0,1.219,0.257,1.812,0.612c0.695,0.417,1.561,0.938,3.061,0.938c1.617,0,2.35-0.482,2.885-0.835   c0.352-0.231,0.525-0.346,0.951-0.346c0.434,0,0.812,0.23,1.396,0.605c0.756,0.487,1.693,1.092,3.105,1.092   c1.396,0,2.088-0.569,2.594-0.986c0.426-0.351,0.684-0.565,1.395-0.565c0.801,0,1.213,0.369,1.734,0.836   c0.508,0.45,1.135,1.012,2.104,1.012c0.869,0,1.594-0.435,2.135-0.919c0.072,0.773-0.109,1.896-1.123,3.299H72.755l-0.066-0.109   h-0.006H25.743h-0.061l-0.064,0.109H10.712c-1.014-1.403-1.193-2.527-1.125-3.299C10.128,16.774,10.853,17.209,11.72,17.209z    M10.624,21.816l0.312-0.474h13.691c-1.344,2.578-3.904,8.208-3.904,13.753c0,0.311,0.037,0.59,0.047,0.89   c0.014,0.396,0.031,0.794,0.062,1.185c0.035,0.44,0.074,0.875,0.131,1.297c0.02,0.143,0.047,0.282,0.068,0.425   c0.15,1.002,0.355,1.959,0.609,2.869c0.008,0.025,0.012,0.049,0.02,0.074c-0.117,0.123-0.234,0.246-0.357,0.364   c-0.119,0.115-0.238,0.235-0.363,0.349c-0.184,0.162-0.379,0.315-0.572,0.467c-0.137,0.108-0.27,0.223-0.412,0.325   c-0.115,0.083-0.238,0.157-0.355,0.236c-0.482,0.329-0.986,0.637-1.51,0.914c-0.049,0.025-0.098,0.056-0.145,0.081   c-0.316,0.164-0.637,0.318-0.961,0.464c-0.035,0.018-0.07,0.034-0.105,0.052c-3.908,1.751-8.285,2.321-10.082,2.489   C5.597,32.368,9.245,24.274,10.624,21.816z M7.333,49.292c2.434-0.245,7.789-1.054,12.135-3.562   c0.01-0.005,0.018-0.009,0.025-0.015c0.246-0.143,0.484-0.293,0.723-0.445c0.168-0.107,0.33-0.217,0.492-0.328   c0.186-0.127,0.367-0.256,0.545-0.392c0.277-0.208,0.547-0.431,0.809-0.659c0.068-0.06,0.143-0.115,0.211-0.177   c0-0.002,0-0.003,0-0.003c1.26,3.364,3.127,6.24,5.076,9.192c3.531,5.348,7.186,10.877,7.186,20.226   c0,0.352-0.014,0.681-0.025,1.009c-0.006,0.126-0.01,0.255-0.016,0.377c-0.021,0.361-0.049,0.711-0.082,1.045   c-0.006,0.058-0.014,0.108-0.021,0.164c-0.072,0.645-0.172,1.235-0.289,1.776c-0.014,0.064-0.027,0.133-0.043,0.195   c-0.201,0.874-0.445,1.613-0.707,2.229c-0.004,0.01-0.01,0.021-0.014,0.031c-0.488,1.146-1.016,1.857-1.363,2.245   C17.171,73.59,9.247,54.448,7.333,49.292z M49.216,84.085l-0.947-0.058l0.002,0.058c-7.51-0.058-12.309-0.834-14.506-1.297   c1.078-1.467,2.537-4.413,2.537-9.659c0-9.876-3.795-15.632-7.465-21.2c-2.215-3.36-4.309-6.533-5.449-10.478v0.001   c-0.092-0.313-0.176-0.628-0.25-0.944l-0.127-0.543h-0.002c-0.061-0.276-0.107-0.557-0.156-0.836   c-0.061-0.345-0.113-0.694-0.158-1.05l-0.002,0.002c-0.043-0.331-0.08-0.661-0.109-0.993c-0.029-0.34-0.041-0.692-0.055-1.045   c-0.012-0.314-0.033-0.626-0.033-0.947c0-4.466,1.852-9.114,3.16-11.846l0.031,0.016l0.002-0.002h0.002l0.121-0.251l-0.033-0.016   c0.387-0.789,0.711-1.392,0.914-1.754l0.029-0.006l44.959-0.003l0.061,0.108h0.006c0.738,1.333,2.658,5.053,3.604,9.261   c0.014,0.063,0.027,0.126,0.041,0.188c0.062,0.292,0.121,0.584,0.174,0.88c0.023,0.125,0.041,0.251,0.061,0.378   c0.041,0.244,0.08,0.49,0.111,0.735c0.025,0.198,0.043,0.396,0.061,0.597c0.02,0.183,0.041,0.365,0.053,0.548   c0.025,0.39,0.041,0.779,0.041,1.166c0,0.799-0.051,1.555-0.121,2.294c-0.021,0.209-0.043,0.417-0.068,0.623   c-0.002,0.025-0.008,0.048-0.012,0.074l0,0c-0.002,0.011-0.006,0.025-0.006,0.037c-0.074,0.563-0.16,1.113-0.27,1.647   c-0.016,0.068-0.025,0.137-0.039,0.205l-0.004-0.001c-0.031,0.146-0.066,0.292-0.1,0.437c-0.107,0.449-0.234,0.887-0.365,1.317   c-0.111,0.365-0.227,0.728-0.354,1.083c-0.072,0.199-0.15,0.392-0.227,0.587c-0.266,0.681-0.553,1.345-0.867,1.993   c-0.055,0.114-0.109,0.231-0.168,0.345c-1.074,2.139-2.385,4.13-3.742,6.189c-3.67,5.567-7.463,11.326-7.463,21.202   c0,0.594,0.021,1.149,0.059,1.686c0.01,0.169,0.025,0.326,0.039,0.488c0.031,0.364,0.068,0.717,0.115,1.054   c0.02,0.163,0.043,0.324,0.068,0.481c0.053,0.339,0.113,0.662,0.18,0.973c0.023,0.113,0.045,0.233,0.07,0.342   c0.094,0.402,0.195,0.783,0.307,1.139c0.027,0.086,0.055,0.163,0.084,0.247c0.088,0.267,0.178,0.521,0.271,0.761   c0.043,0.111,0.088,0.217,0.133,0.321c0.084,0.201,0.17,0.39,0.258,0.569c0.045,0.092,0.088,0.186,0.135,0.271   c0.104,0.201,0.207,0.387,0.311,0.56c0.025,0.043,0.049,0.092,0.076,0.133c0.127,0.208,0.252,0.393,0.375,0.563   c0.008,0.012,0.018,0.029,0.027,0.04C62.149,83.233,56.729,84.085,49.216,84.085z M66.401,82.206   c-0.01-0.012-0.021-0.022-0.031-0.037c-0.09-0.102-0.188-0.22-0.295-0.362c-0.016-0.023-0.031-0.049-0.049-0.07   c-0.098-0.134-0.201-0.29-0.307-0.461c-0.029-0.046-0.057-0.089-0.084-0.137c-0.123-0.203-0.246-0.43-0.371-0.683   c-0.021-0.049-0.045-0.103-0.07-0.151c-0.109-0.234-0.217-0.489-0.324-0.765c-0.021-0.061-0.045-0.117-0.068-0.181   c-0.117-0.319-0.229-0.672-0.332-1.05c-0.023-0.083-0.043-0.172-0.064-0.258c-0.092-0.359-0.176-0.743-0.25-1.156   c-0.012-0.058-0.023-0.111-0.033-0.171c-0.078-0.457-0.137-0.953-0.184-1.475c-0.012-0.121-0.021-0.247-0.029-0.369   c-0.041-0.553-0.07-1.128-0.07-1.752c0-9.349,3.652-14.878,7.184-20.226c1.463-2.215,2.873-4.39,4.025-6.752   c0-0.001,0.002-0.003,0.002-0.006c0.381-0.78,0.73-1.59,1.043-2.424c0-0.007,0.004-0.011,0.006-0.018   c0.006,0.005,0.014,0.01,0.021,0.016c0.047,0.045,0.1,0.082,0.148,0.128c0.283,0.248,0.576,0.488,0.877,0.715   c0.164,0.125,0.332,0.241,0.502,0.358c0.182,0.129,0.365,0.252,0.555,0.37c0.219,0.142,0.439,0.281,0.664,0.412   c0.055,0.032,0.111,0.061,0.166,0.09c4.326,2.457,9.607,3.257,12.02,3.499C89.136,54.448,81.21,73.596,66.401,82.206z"/><circle fill="#000000" cx="41.282" cy="37.918" r="1.256"/><path fill="#000000" d="M57.261,39.175c0.695,0,1.254-0.562,1.254-1.257c0-0.692-0.559-1.255-1.254-1.255s-1.256,0.562-1.256,1.255   C56.005,38.612,56.565,39.175,57.261,39.175z"/><path fill="#000000" d="M62.163,37.918c0-2.703-2.197-4.903-4.902-4.903s-4.904,2.2-4.904,4.903c0,0.026,0,0.052,0,0.079   c-2.012-0.403-4.16-0.407-6.172-0.008c0-0.022,0-0.047,0-0.071c0-2.703-2.199-4.903-4.902-4.903c-2.705,0-4.904,2.2-4.904,4.903   c0,1.802,0.971,3.403,2.477,4.256c-1.057,1.36-1.609,2.893-1.609,4.492c0,4.948,5.385,8.974,12.006,8.974   c6.619,0,12.004-4.025,12.004-8.974c0-1.591-0.547-3.115-1.596-4.474C61.181,41.347,62.163,39.736,62.163,37.918z M49.251,53.886   c-5.652,0-10.252-3.237-10.252-7.22c0-1.511,0.676-2.967,1.957-4.213l1.139-1.109l-1.547-0.371   c-1.422-0.343-2.418-1.597-2.418-3.055c0-1.735,1.416-3.148,3.152-3.148s3.148,1.413,3.148,3.148c0,0.299-0.055,0.617-0.17,0.973   l-0.504,1.574l1.586-0.466c2.516-0.739,5.344-0.736,7.857,0.012l1.6,0.474l-0.516-1.586c-0.119-0.365-0.174-0.676-0.174-0.98   c0-1.735,1.414-3.148,3.15-3.148s3.15,1.413,3.15,3.148c0,1.474-1.004,2.732-2.441,3.063l-1.564,0.359l1.148,1.122   c1.275,1.245,1.949,2.698,1.949,4.203C59.503,50.648,54.903,53.886,49.251,53.886z"/><path fill="#000000" d="M56.433,47.544c-0.938,2.205-3.889,3.744-7.176,3.744s-6.238-1.539-7.18-3.746   c-0.189-0.445-0.707-0.65-1.15-0.463c-0.445,0.191-0.652,0.705-0.463,1.151c1.227,2.877,4.76,4.812,8.793,4.812   s7.564-1.935,8.789-4.812c0.189-0.446-0.018-0.961-0.465-1.151C57.136,46.889,56.62,47.1,56.433,47.544z"/></g><g display="none"><g display="inline"><path fill="#000000" d="M34.101,77.5c0.117-0.541,0.217-1.132,0.289-1.776c0.008-0.056,0.016-0.106,0.021-0.164    c0.033-0.334,0.061-0.684,0.082-1.045c0.006-0.122,0.01-0.251,0.016-0.377c0.012-0.328,0.025-0.657,0.025-1.009    c0-9.349-3.654-14.878-7.186-20.226c-1.949-2.952-3.816-5.828-5.076-9.192c0,0,0,0.001,0,0.003    c-0.068,0.062-0.143,0.117-0.211,0.177c-0.262,0.229-0.531,0.451-0.809,0.659c-0.178,0.136-0.359,0.265-0.545,0.392    c-0.162,0.111-0.324,0.221-0.492,0.328c-0.238,0.152-0.477,0.303-0.723,0.445c-0.008,0.006-0.016,0.01-0.025,0.015    c-4.346,2.509-9.701,3.317-12.135,3.562C9.247,54.448,17.171,73.59,31.974,82.2c0.348-0.388,0.875-1.099,1.363-2.245    c0.004-0.01,0.01-0.021,0.014-0.031c0.262-0.615,0.506-1.354,0.707-2.229C34.073,77.633,34.087,77.564,34.101,77.5z"/><path fill="#000000" d="M16.985,45.035c0.324-0.146,0.645-0.3,0.961-0.464c0.047-0.025,0.096-0.056,0.145-0.081    c0.523-0.277,1.027-0.585,1.51-0.914c0.117-0.079,0.24-0.153,0.355-0.236c0.143-0.103,0.275-0.217,0.412-0.325    c0.193-0.151,0.389-0.305,0.572-0.467c0.125-0.113,0.244-0.233,0.363-0.349c0.123-0.118,0.24-0.241,0.357-0.364    c-0.008-0.025-0.012-0.049-0.02-0.074c-0.254-0.91-0.459-1.867-0.609-2.869c-0.021-0.143-0.049-0.282-0.068-0.425    c-0.057-0.422-0.096-0.856-0.131-1.297c-0.031-0.391-0.049-0.788-0.062-1.185c-0.01-0.3-0.047-0.579-0.047-0.89    c0-5.545,2.561-11.175,3.904-13.753H10.937l-0.312,0.474c-1.379,2.458-5.027,10.552-3.826,25.76    c1.797-0.168,6.174-0.738,10.082-2.489C16.915,45.069,16.95,45.053,16.985,45.035z"/><path fill="#000000" d="M25.618,19.589l0.064-0.109h0.061h46.939h0.006l0.066,0.109h14.961c1.014-1.403,1.195-2.525,1.123-3.299    c-0.541,0.484-1.266,0.919-2.135,0.919c-0.969,0-1.596-0.562-2.104-1.012c-0.521-0.467-0.934-0.836-1.734-0.836    c-0.711,0-0.969,0.215-1.395,0.565c-0.506,0.417-1.197,0.986-2.594,0.986c-1.412,0-2.35-0.604-3.105-1.092    c-0.584-0.375-0.963-0.605-1.396-0.605c-0.426,0-0.6,0.114-0.951,0.346c-0.535,0.353-1.268,0.835-2.885,0.835    c-1.5,0-2.365-0.521-3.061-0.938c-0.594-0.355-1.02-0.612-1.812-0.612c-0.91,0-1.467,0.304-2.111,0.655    c-0.641,0.351-1.369,0.748-2.393,0.748c-0.979,0-1.654-0.289-2.25-0.543c-0.592-0.254-1.152-0.491-2.105-0.491    c-0.906,0-1.324,0.143-1.811,0.312c-0.578,0.2-1.234,0.426-2.543,0.426c-0.84,0-1.711-0.117-2.586-0.348l-0.654-0.171    l-0.654,0.171c-0.877,0.23-1.746,0.348-2.584,0.348c-1.311,0-1.967-0.226-2.547-0.426c-0.484-0.169-0.904-0.312-1.809-0.312    c-0.955,0-1.514,0.237-2.105,0.491c-0.598,0.254-1.273,0.543-2.252,0.543c-1.023,0-1.752-0.398-2.395-0.748    c-0.643-0.352-1.197-0.655-2.107-0.655c-0.793,0-1.219,0.257-1.811,0.612c-0.695,0.417-1.561,0.938-3.061,0.938    c-1.617,0-2.352-0.482-2.887-0.835c-0.352-0.231-0.527-0.346-0.953-0.346c-0.432,0-0.812,0.23-1.395,0.605    c-0.754,0.487-1.691,1.092-3.109,1.092c-1.395,0-2.084-0.569-2.59-0.986c-0.428-0.351-0.686-0.565-1.393-0.565    c-0.801,0-1.215,0.369-1.738,0.836c-0.506,0.45-1.137,1.012-2.105,1.012c-0.867,0-1.592-0.435-2.133-0.919    c-0.068,0.771,0.111,1.896,1.125,3.299H25.618z"/><path fill="#000000" d="M87.487,21.343H73.743c0.838,1.608,2.145,4.411,3.014,7.637c0,0.009,0.004,0.016,0.004,0.024    c0.33,1.226,0.59,2.511,0.74,3.818c0.016,0.131,0.029,0.263,0.041,0.394c0.061,0.626,0.104,1.254,0.104,1.88    c0,0.825-0.051,1.629-0.125,2.424c-0.021,0.222-0.043,0.444-0.068,0.663c-0.051,0.412-0.117,0.823-0.188,1.231    c-0.004,0.019-0.006,0.04-0.01,0.059c-0.045,0.247-0.08,0.498-0.131,0.744c-0.053,0.254-0.119,0.496-0.178,0.742    c-0.004,0.016-0.006,0.031-0.01,0.045h-0.002c-0.016,0.063-0.035,0.123-0.051,0.185c-0.055,0.216-0.1,0.433-0.16,0.646    c0.117,0.123,0.234,0.246,0.355,0.362c0.121,0.117,0.24,0.237,0.367,0.352c0.184,0.163,0.381,0.317,0.576,0.471    c0.135,0.106,0.264,0.218,0.404,0.32c0.176,0.128,0.365,0.242,0.547,0.365c0.393,0.257,0.797,0.503,1.215,0.728    c0.09,0.049,0.18,0.104,0.273,0.151c0.279,0.146,0.564,0.28,0.852,0.413c0.078,0.035,0.158,0.075,0.236,0.109    c0.307,0.138,0.615,0.266,0.926,0.389c0.051,0.02,0.1,0.04,0.148,0.06c3.594,1.391,7.334,1.87,8.963,2.021    C92.882,31.206,88.552,23.07,87.487,21.343z"/><path fill="#000000" d="M64.192,82.153c-0.027-0.041-0.051-0.09-0.076-0.133c-0.104-0.173-0.207-0.358-0.311-0.56    c-0.047-0.086-0.09-0.18-0.135-0.271c-0.088-0.18-0.174-0.368-0.258-0.569c-0.045-0.104-0.09-0.21-0.133-0.321    c-0.094-0.239-0.184-0.494-0.271-0.761c-0.029-0.084-0.057-0.161-0.084-0.247c-0.111-0.355-0.213-0.736-0.307-1.139    c-0.025-0.108-0.047-0.229-0.07-0.342c-0.066-0.311-0.127-0.634-0.18-0.973c-0.025-0.157-0.049-0.318-0.068-0.481    c-0.047-0.337-0.084-0.689-0.115-1.054c-0.014-0.162-0.029-0.319-0.039-0.488c-0.037-0.536-0.059-1.092-0.059-1.686    c0-9.876,3.793-15.635,7.463-21.202c1.357-2.06,2.668-4.051,3.742-6.189c0.059-0.113,0.113-0.23,0.168-0.345    c0.314-0.648,0.602-1.312,0.867-1.993c0.076-0.195,0.154-0.388,0.227-0.587c0.127-0.355,0.242-0.718,0.354-1.083    c0.131-0.431,0.258-0.868,0.365-1.317c0.033-0.145,0.068-0.29,0.1-0.437l0.004,0.001c0.014-0.068,0.023-0.137,0.039-0.205    c0.109-0.534,0.195-1.084,0.27-1.647c0-0.012,0.004-0.026,0.006-0.037c0.004-0.026,0.01-0.049,0.012-0.074    c0.025-0.206,0.047-0.414,0.068-0.623c0.07-0.739,0.121-1.495,0.121-2.294c0-0.387-0.016-0.776-0.041-1.166    c-0.012-0.183-0.033-0.365-0.053-0.548c-0.018-0.2-0.035-0.398-0.061-0.597c-0.031-0.245-0.07-0.491-0.111-0.735    c-0.02-0.127-0.037-0.253-0.061-0.378c-0.053-0.296-0.111-0.588-0.174-0.88c-0.014-0.062-0.027-0.125-0.041-0.188    c-0.945-4.208-2.865-7.928-3.604-9.261h-0.006l-0.061-0.108l-44.959,0.003l-0.029,0.006c-0.203,0.362-0.527,0.965-0.914,1.754    l0.033,0.016l-0.121,0.251h-0.002l-0.002,0.002l-0.031-0.016c-1.309,2.731-3.16,7.38-3.16,11.846c0,0.321,0.021,0.633,0.033,0.947    c0.014,0.353,0.025,0.705,0.055,1.045c0.029,0.332,0.066,0.662,0.109,0.993l0.002-0.002c0.045,0.355,0.098,0.705,0.158,1.05    c0.049,0.279,0.096,0.56,0.156,0.836h0.002l0.127,0.543c0.074,0.316,0.158,0.631,0.25,0.944v-0.001    c1.141,3.944,3.234,7.117,5.449,10.478c3.67,5.568,7.465,11.324,7.465,21.2c0,5.246-1.459,8.192-2.537,9.659    c2.197,0.463,6.996,1.239,14.506,1.297l-0.002-0.058l0.947,0.058c7.514,0,12.934-0.852,15.379-1.328    c-0.01-0.011-0.02-0.028-0.027-0.04C64.444,82.546,64.319,82.361,64.192,82.153z M57.554,42.463    c1.275,1.245,1.949,2.698,1.949,4.203c0,3.982-4.6,7.22-10.252,7.22s-10.252-3.237-10.252-7.22c0-1.511,0.676-2.967,1.957-4.213    l1.139-1.109l-1.547-0.371c-1.422-0.343-2.418-1.597-2.418-3.055c0-1.735,1.416-3.148,3.152-3.148s3.148,1.413,3.148,3.148    c0,0.299-0.055,0.617-0.17,0.973l-0.504,1.574l1.586-0.466c2.516-0.739,5.344-0.736,7.857,0.012l1.6,0.474l-0.516-1.586    c-0.119-0.365-0.174-0.676-0.174-0.98c0-1.735,1.414-3.148,3.15-3.148s3.15,1.413,3.15,3.148c0,1.474-1.004,2.732-2.441,3.063    l-1.564,0.359L57.554,42.463z"/><path fill="#000000" d="M78.866,45.703c-0.225-0.131-0.445-0.271-0.664-0.412c-0.189-0.118-0.373-0.241-0.555-0.37    c-0.17-0.117-0.338-0.233-0.502-0.358c-0.301-0.227-0.594-0.467-0.877-0.715c-0.049-0.046-0.102-0.083-0.148-0.128    c-0.008-0.006-0.016-0.011-0.021-0.016c-0.002,0.007-0.006,0.011-0.006,0.018c-0.312,0.834-0.662,1.644-1.043,2.424    c0,0.003-0.002,0.005-0.002,0.006c-1.152,2.362-2.562,4.537-4.025,6.752c-3.531,5.348-7.184,10.877-7.184,20.226    c0,0.624,0.029,1.199,0.07,1.752c0.008,0.122,0.018,0.248,0.029,0.369c0.047,0.521,0.105,1.018,0.184,1.475    c0.01,0.06,0.021,0.113,0.033,0.171c0.074,0.413,0.158,0.797,0.25,1.156c0.021,0.086,0.041,0.175,0.064,0.258    c0.104,0.378,0.215,0.73,0.332,1.05c0.023,0.063,0.047,0.12,0.068,0.181c0.107,0.275,0.215,0.53,0.324,0.765    c0.025,0.049,0.049,0.103,0.07,0.151c0.125,0.253,0.248,0.479,0.371,0.683c0.027,0.048,0.055,0.091,0.084,0.137    c0.105,0.171,0.209,0.327,0.307,0.461c0.018,0.021,0.033,0.047,0.049,0.07c0.107,0.143,0.205,0.261,0.295,0.362    c0.01,0.015,0.021,0.025,0.031,0.037c14.809-8.61,22.734-27.758,24.65-32.914c-2.412-0.242-7.693-1.042-12.02-3.499    C78.978,45.764,78.921,45.735,78.866,45.703z"/></g><path display="inline" fill="#000000" d="M56.433,47.544c-0.938,2.205-3.889,3.744-7.176,3.744s-6.238-1.539-7.18-3.746   c-0.189-0.445-0.707-0.65-1.15-0.463c-0.445,0.191-0.652,0.705-0.463,1.151c1.227,2.877,4.76,4.812,8.793,4.812   s7.564-1.935,8.789-4.812c0.189-0.446-0.018-0.961-0.465-1.151C57.136,46.889,56.62,47.1,56.433,47.544z"/><circle display="inline" fill="#000000" cx="41.282" cy="37.918" r="1.256"/><path display="inline" fill="#000000" d="M57.261,39.175c0.695,0,1.254-0.562,1.254-1.257c0-0.692-0.559-1.255-1.254-1.255   s-1.256,0.562-1.256,1.255C56.005,38.612,56.565,39.175,57.261,39.175z"/></g><text x="0" y="115" fill="#000000" font-size="5px" font-weight="bold" font-family="'Helvetica Neue', Helvetica, Arial-Unicode, Arial, Sans-serif">Created by Felipe Alvarado</text><text x="0" y="120" fill="#000000" font-size="5px" font-weight="bold" font-family="'Helvetica Neue', Helvetica, Arial-Unicode, Arial, Sans-serif">from the Noun Project</text></svg>