<svg xmlns:dc="http://purl.org/dc/elements/1.1/" xmlns:cc="http://creativecommons.org/ns#" xmlns:rdf="http://www.w3.org/1999/02/22-rdf-syntax-ns#" xmlns:svg="http://www.w3.org/2000/svg" xmlns="http://www.w3.org/2000/svg" xmlns:sodipodi="http://sodipodi.sourceforge.net/DTD/sodipodi-0.dtd" xmlns:inkscape="http://www.inkscape.org/namespaces/inkscape" version="1.1" x="0px" y="0px" viewBox="0 0 100 125"><g transform="translate(0,-952.36218)"><path style="text-indent:0;text-transform:none;direction:ltr;block-progression:tb;baseline-shift:baseline;color:#000000;enable-background:accumulate;" d="m 50,957.32167 c -6.7646,0 -12.2606,4.74005 -13.8438,11.03125 C 28.8851,968.54052 23,974.50702 23,981.82167 c 0,4.65485 2.4619,8.63716 6.0625,11.0625 -0.6168,1.5403 -1.0625,3.1767 -1.0625,4.9375 0,7.43213 6.0677,13.50003 13.5,13.50003 2.2791,0 4.4093,-0.6342 6.2812,-1.6563 -0.2166,3.0211 -0.5321,5.8726 -0.9374,8.5625 -1.261,-1.4743 -2.8974,-2.5388 -4.6876,-3.125 -1.0459,-0.3425 -2.1389,-0.5652 -3.25,-0.6562 -3.3326,-0.273 -6.8305,0.5496 -9.8437,2.2187 -0.7568,0.4225 -1.1733,1.3765 -0.9687,2.2188 1.0601,4.4688 3.8262,8.5797 7.6562,10.75 2.4726,1.4011 5.5071,1.7984 8.4375,0.8125 -1.347,4.6583 -3.0277,9.1999 -5.0313,14.0937 -0.4782,0.9776 0.025,2.3089 1.0297,2.7263 1.005,0.4173 2.303,-0.1663 2.6579,-1.195 2.3264,-5.6827 4.2609,-11.0044 5.75,-16.5938 3.6602,2.1789 7.7019,1.945 10.8124,0.094 3.783,-2.2513 6.4726,-6.4159 7.4376,-10.9062 0.1793,-0.8469 -0.2639,-1.787 -1.0313,-2.1875 -3.0481,-1.6046 -6.5799,-2.3751 -9.9063,-2.0313 -1.1086,0.1147 -2.1803,0.3541 -3.2187,0.7188 -0.5056,0.1776 -0.9949,0.3724 -1.4687,0.625 0.2484,-2.0223 0.4746,-4.1223 0.625,-6.3125 1.9584,1.1472 4.2273,1.8437 6.6562,1.8437 7.4323,0 13.5,-6.0679 13.5,-13.49993 0,-1.7609 -0.4457,-3.3973 -1.0625,-4.9375 C 74.5381,990.45878 77,986.47647 77,981.82162 77,974.50697 71.1149,968.54047 63.8438,968.35287 62.2606,962.06172 56.7646,957.32167 50,957.32167 z m 0,4 c 5.4133,0 9.8074,4.04598 10.4062,9.28125 0.1241,1.02704 1.1584,1.8544 2.1876,1.75 0.3361,-0.0315 0.6466,-0.0312 0.9062,-0.0312 5.2705,0 9.5,4.22962 9.5,9.5 0,3.77252 -2.204,6.99126 -5.375,8.53125 -0.9808,0.47303 -1.4083,1.8319 -0.875,2.7813 0.7904,1.3906 1.25,2.9784 1.25,4.6875 0,5.27033 -4.2295,9.49993 -9.5,9.49993 -2.7946,0 -5.286,-1.2047 -7.0312,-3.1249 -0.7465,-0.8076 -2.1911,-0.8076 -2.9376,0 -1.7453,1.9202 -4.2366,3.1249 -7.0312,3.1249 -5.2705,0 -9.5,-4.2296 -9.5,-9.49993 0,-1.7091 0.4596,-3.2969 1.25,-4.6875 0.5333,-0.9494 0.1058,-2.30827 -0.875,-2.7813 -3.171,-1.54004 -5.375,-4.75878 -5.375,-8.5313 0,-5.27038 4.2295,-9.5 9.5,-9.5 0.2596,0 0.5701,-1.6e-4 0.9062,0.0312 1.0292,0.1044 2.0635,-0.72296 2.1876,-1.75 0.5988,-5.23527 4.9929,-9.28125 10.4062,-9.28125 z m 0,14 c -5.4992,0 -10,4.50086 -10,10 0,5.49913 4.5008,10 10,10 5.4992,0 10,-4.50087 10,-10 0,-5.49914 -4.5008,-10 -10,-10 z m 0,4 c 3.3374,0 6,2.66262 6,6 0,3.33737 -2.6626,6 -6,6 -3.3374,0 -6,-2.66263 -6,-6 0,-3.33738 2.6626,-6 6,-6 z m 12.4062,40.06253 c -0.9987,2.8482 -2.891,5.4577 -5.0624,6.75 -2.3765,1.4142 -4.7918,1.5249 -7.625,-0.8125 0.029,-0.9479 0.2981,-1.9412 0.4687,-2.7813 0.6561,-1.848 1.9835,-2.9514 3.8125,-3.5937 0.7051,-0.2476 1.4911,-0.3931 2.3125,-0.4688 2.0488,-0.1601 4.3747,0.2739 6.0937,0.9063 z m -23.8124,-0.9063 c 0.8227,0.058 1.6023,0.2049 2.3124,0.4375 2.6358,0.8631 4.3451,2.5873 4.4376,6.2812 -2.7884,2.4087 -5.2156,2.3029 -7.625,0.9375 -2.2002,-1.2467 -4.1603,-3.7964 -5.2188,-6.625 2.1223,-0.7894 4.0462,-1.0692 6.0938,-1.0312 z" fill="#000000" fill-opacity="1" stroke="none" marker="none" visibility="visible" display="inline" overflow="visible"/></g><text x="0" y="115" fill="#000000" font-size="5px" font-weight="bold" font-family="'Helvetica Neue', Helvetica, Arial-Unicode, Arial, Sans-serif">Created by iconsphere</text><text x="0" y="120" fill="#000000" font-size="5px" font-weight="bold" font-family="'Helvetica Neue', Helvetica, Arial-Unicode, Arial, Sans-serif">from the Noun Project</text></svg>