<svg xmlns="http://www.w3.org/2000/svg" xmlns:xlink="http://www.w3.org/1999/xlink" version="1.2" baseProfile="tiny" x="0px" y="0px" viewBox="0 0 100 125" xml:space="preserve"><path d="M67.7,48.4c0.3,0,0.6,0.1,0.9,0.1c4.3,0,7.7-3.5,7.7-7.7c0-9.6-6.5-18.1-6.7-18.5c-0.4-0.5-1-0.6-1.5-0.4s-0.8,0.8-0.7,1.4  c0,0.1,1.5,7.3-3.3,11.2l0,0c-1,0.7-1.8,1.7-2.3,2.7c-1.3-1.8-2.6-3.5-4-4.8V17c3.3,0.2,7.1,0.6,11.6,1.5c0.4,0.1,0.7,0,1-0.3  c0.3-0.2,0.5-0.6,0.5-1V14c0-0.5-0.3-1-0.8-1.2c-1-0.4-23.5-8.6-31.3-1.3c-2.8,2.6-3.4,6.8-1.7,12.3c0.2,0.5,0.6,0.9,1.2,0.9h0.1  c0.6,0,1.1-0.5,1.1-1.1c0,0,0.3-1.7,2.5-3.4v12.4C35.5,39.3,30.2,51,26.3,67.2c-3,12.3-4,22.8-4,22.9c0,0.4,0.1,0.7,0.3,1  s0.6,0.4,0.9,0.4h53c0.4,0,0.7-0.1,0.9-0.4s0.4-0.6,0.3-1C77.7,89.9,75.3,66.6,67.7,48.4z M65.6,36.5c0.1,0,0.1-0.1,0.2-0.1  c3-2.5,4-5.9,4.3-8.7c1.7,3.2,3.8,8,3.8,13.1c0,2.9-2.3,5.2-5.2,5.2s-5.2-2.3-5.2-5.2C63.4,39,64.2,37.4,65.6,36.5z M55.3,31.9H44.5  v-13v-0.1c2.3-1,5.8-1.8,10.8-1.8V31.9z M38.7,19.9c-0.4-2.9,0.2-5.1,1.7-6.5c1.8-1.7,4.9-2.3,8.4-2.3c6.7,0,15.1,2.3,19.5,3.9v0.9  c-16-2.9-23.8-0.4-27.5,2.2C40,18.6,39.3,19.3,38.7,19.9z M24.9,89c0.9-7.2,5.6-40.8,18.9-54.6h12.5c1.6,1.7,3.2,3.8,4.7,6.2  c0,0.1,0,0.1,0,0.2c0,2.7,1.4,5.1,3.5,6.5c7.1,15.6,10,36.3,10.7,41.8H24.9V89z"/><text x="0" y="115" fill="#000000" font-size="5px" font-weight="bold" font-family="'Helvetica Neue', Helvetica, Arial-Unicode, Arial, Sans-serif">Created by Juraj Sedlák</text><text x="0" y="120" fill="#000000" font-size="5px" font-weight="bold" font-family="'Helvetica Neue', Helvetica, Arial-Unicode, Arial, Sans-serif">from the Noun Project</text></svg>