<svg xmlns="http://www.w3.org/2000/svg" xmlns:xlink="http://www.w3.org/1999/xlink" version="1.1" x="0px" y="0px" viewBox="0 0 100 125" enable-background="new 0 0 100 100" xml:space="preserve"><g><g><g><g><path d="M70.055,23.333h-40c-0.736,0-1.333-0.597-1.333-1.333V8.667c0-0.69,0.527-1.267,1.216-1.328      C30.551,7.284,45.053,6,50.055,6s19.503,1.284,20.118,1.338c0.688,0.062,1.216,0.638,1.216,1.328V22      C71.388,22.736,70.791,23.333,70.055,23.333z M31.388,20.667h37.333V9.889c-3.667-0.314-14.608-1.223-18.667-1.223      c-4.059,0-15,0.908-18.667,1.223V20.667z"/></g><g><path d="M50.055,94h-16v-6.175c-6.443-8.468-5.468-59.909-5.333-65.855l2.665,0.062c-0.53,23.353,0.349,59.765,4.943,64.36      l0.391,0.391v4.552h13.333V94z"/></g><g><path d="M65.945,94h-16v-2.667h13.333v-4.552l0.391-0.391c4.595-4.595,5.473-41.007,4.943-64.36l2.665-0.062      c0.136,5.946,1.11,57.388-5.333,65.855V94z"/></g><g><rect x="35.388" y="86" width="29.224" height="2.667"/></g></g><g><path d="M54.055,66h-8c-2.206,0-4-1.794-4-4V40.667c0-2.206,1.794-4,4-4h8c2.206,0,4,1.794,4,4V62     C58.055,64.206,56.26,66,54.055,66z M46.055,39.333c-0.735,0-1.333,0.598-1.333,1.333V62c0,0.735,0.599,1.333,1.333,1.333h8     c0.735,0,1.333-0.599,1.333-1.333V40.667c0-0.735-0.599-1.333-1.333-1.333H46.055z"/></g></g></g><text x="0" y="115" fill="#000000" font-size="5px" font-weight="bold" font-family="'Helvetica Neue', Helvetica, Arial-Unicode, Arial, Sans-serif">Created by Paperclip</text><text x="0" y="120" fill="#000000" font-size="5px" font-weight="bold" font-family="'Helvetica Neue', Helvetica, Arial-Unicode, Arial, Sans-serif">from the Noun Project</text></svg>