<svg xmlns="http://www.w3.org/2000/svg" xmlns:xlink="http://www.w3.org/1999/xlink" version="1.1" x="0px" y="0px" viewBox="0 0 30 37.5" xml:space="preserve"><g transform="translate(-210 -260)"><g xmlns="http://www.w3.org/2000/svg" xmlns:xlink="http://www.w3.org/1999/xlink"><path d="M237.934,263.975l-5.033,7.357l-4.17,0.781l-8.519,12.451c-0.313,0.455-0.935,0.572-1.391,0.26    c-0.455-0.31-0.572-0.934-0.261-1.389l8.987-13.135l4.17-0.781l4.565-6.674c0.312-0.457,0.934-0.572,1.39-0.262    C238.129,262.897,238.245,263.52,237.934,263.975z"/><rect x="230.05" y="264.298" transform="matrix(0.5648 -0.8252 0.8252 0.5648 -119.8343 306.3657)" width="1" height="5"/><rect x="231.179" y="262.647" transform="matrix(0.5641 -0.8257 0.8257 0.5641 -117.9436 306.889)" width="1.001" height="5"/><rect x="232.308" y="260.997" transform="matrix(0.5641 -0.8257 0.8257 0.5641 -116.0889 307.1002)" width="1.001" height="5"/><rect x="233.438" y="259.346" transform="matrix(0.565 -0.8251 0.8251 0.565 -114.2845 306.9199)" width="1" height="5"/><path d="M229,288h-11c-1.654,0-3-1.346-3-3v-12h2v12c0,0.551,0.449,1,1,1h11c0.552,0,1-0.449,1-1v-12h2v12    C232,286.654,230.654,288,229,288z"/></g></g><text x="0" y="45" fill="#000000" font-size="5px" font-weight="bold" font-family="'Helvetica Neue', Helvetica, Arial-Unicode, Arial, Sans-serif">Created by Hea Poh Lin</text><text x="0" y="50" fill="#000000" font-size="5px" font-weight="bold" font-family="'Helvetica Neue', Helvetica, Arial-Unicode, Arial, Sans-serif">from the Noun Project</text></svg>