<svg xmlns="http://www.w3.org/2000/svg" xmlns:xlink="http://www.w3.org/1999/xlink" version="1.1" x="0px" y="0px" viewBox="0 0 90 112.5" enable-background="new 0 0 90 90" xml:space="preserve"><g><g><path d="M84.727,81.586c-0.77,0-1.393-0.623-1.393-1.393v-7.465c0-0.77,0.624-1.393,1.393-1.393s1.393,0.623,1.393,1.393v7.465    C86.12,80.963,85.496,81.586,84.727,81.586z"/></g><g><path d="M79.75,81.586c-0.77,0-1.393-0.623-1.393-1.393v-7.465c0-0.77,0.624-1.393,1.393-1.393s1.393,0.623,1.393,1.393v7.465    C81.143,80.963,80.52,81.586,79.75,81.586z"/></g><g><path d="M69.792,81.586c-0.77,0-1.393-0.623-1.393-1.393v-7.465c0-0.77,0.624-1.393,1.393-1.393s1.393,0.623,1.393,1.393v7.465    C71.186,80.963,70.562,81.586,69.792,81.586z"/></g><g><path d="M74.769,81.586c-0.77,0-1.393-0.623-1.393-1.393v-7.465c0-0.77,0.624-1.393,1.393-1.393s1.393,0.623,1.393,1.393v7.465    C76.162,80.963,75.539,81.586,74.769,81.586z"/></g><g><path d="M86.562,81.893c0,1.396-0.892,2.528-1.999,2.528H4.363c-1.106,0-1.999-1.132-1.999-2.528l0,0    c0-1.397,0.892-2.525,1.999-2.525h80.201C85.67,79.367,86.562,80.495,86.562,81.893L86.562,81.893z"/></g><g><path d="M55.341,67.013c-1.653,0-3.315-0.588-4.657-1.664L3.679,27.594c-0.6-0.481-0.695-1.358-0.213-1.958    c0.481-0.6,1.358-0.696,1.958-0.213l47.004,37.753c0.976,0.783,2.203,1.157,3.374,1.024c1.005-0.114,1.888-0.593,2.485-1.35    l9.995-12.636c1.348-1.707,0.9-4.336-0.999-5.86L20.279,6.601c-0.6-0.481-0.695-1.358-0.213-1.958    c0.48-0.6,1.357-0.696,1.958-0.213l47.004,37.754c3.086,2.477,3.733,6.855,1.44,9.76l-9.995,12.636    c-1.061,1.343-2.608,2.192-4.357,2.391C55.859,66.998,55.6,67.013,55.341,67.013z"/></g><g><path d="M1.641,24.644c-0.307,0-0.616-0.101-0.874-0.309c-0.599-0.483-0.693-1.36-0.21-1.959L16.737,2.315    c0.484-0.599,1.361-0.692,1.959-0.21c0.599,0.483,0.693,1.36,0.21,1.959L2.727,24.125C2.451,24.467,2.048,24.644,1.641,24.644z"/></g><g><path d="M4.55,27.901c-0.303,0-0.607-0.098-0.863-0.3c-0.603-0.477-0.706-1.354-0.229-1.957l16.6-20.994    c0.477-0.603,1.353-0.705,1.957-0.229c0.603,0.477,0.706,1.354,0.229,1.957l-16.6,20.994C5.369,27.72,4.961,27.901,4.55,27.901z"/></g><g><path d="M69.255,67.07c-1.653,0-3.671-0.75-5.583-2.198c-0.613-0.464-0.734-1.338-0.27-1.951c0.465-0.614,1.337-0.733,1.951-0.27    c2.362,1.788,4.307,1.811,4.55,1.493l2.583-3.323c0.031-0.04,0.058-0.163,0.03-0.373c-0.112-0.842-0.981-2.263-2.668-3.538    c-0.614-0.464-0.735-1.338-0.271-1.951c0.464-0.613,1.338-0.735,1.951-0.271c2.11,1.595,3.512,3.611,3.75,5.393    c0.125,0.94-0.079,1.787-0.59,2.448l-2.582,3.321C71.474,66.671,70.462,67.07,69.255,67.07z"/></g><g><path d="M64.512,65.155c-0.298,0-0.599-0.096-0.853-0.293c-0.608-0.472-0.719-1.347-0.247-1.954l6.175-7.963    c0.472-0.608,1.347-0.719,1.954-0.247c0.608,0.472,0.719,1.347,0.247,1.954l-6.175,7.963    C65.339,64.97,64.928,65.155,64.512,65.155z"/></g><g><g><path d="M89.078,69.603c-0.894-4.511-0.917-10.006-11.737-7.87l-6.074,6.575c1.632,0.562,3.958,0.645,7.355-0.03     C89.401,66.141,90.375,76.144,89.078,69.603z"/></g></g></g><text x="0" y="105" fill="#000000" font-size="5px" font-weight="bold" font-family="'Helvetica Neue', Helvetica, Arial-Unicode, Arial, Sans-serif">Created by Ashley Fiveash</text><text x="0" y="110" fill="#000000" font-size="5px" font-weight="bold" font-family="'Helvetica Neue', Helvetica, Arial-Unicode, Arial, Sans-serif">from the Noun Project</text></svg>