<svg xmlns="http://www.w3.org/2000/svg" xmlns:xlink="http://www.w3.org/1999/xlink" version="1.1" x="0px" y="0px" viewBox="0 0 512 640" enable-background="new 0 0 512 512" xml:space="preserve"><g><path d="M510,174.1c0-40.7-33.1-73.7-73.7-73.7H75.7C35.1,100.3,2,133.4,2,174.1V297h16.4v147.5c0,22.6,18.4,41,41,41h393.3   c22.6,0,41-18.4,41-41V297H510V174.1z M477.2,444.5c0,13.6-11,24.6-24.6,24.6H59.4c-13.6,0-24.6-11-24.6-24.6V297h49.2v81.9h65.5   V297h213v81.9h65.5V297h49.2V444.5z M100.3,346.1h32.8v16.4h-32.8V346.1z M133.1,329.7h-32.8V297h32.8V329.7z M378.9,346.1h32.8   v16.4h-32.8V346.1z M411.7,329.7h-32.8V297h32.8V329.7z M493.6,280.6H18.4V174.1c0-31.6,25.7-57.4,57.4-57.4h360.5   c31.6,0,57.4,25.7,57.4,57.4V280.6z"/><polygon points="174.1,43 337.9,43 337.9,92.1 354.3,92.1 354.3,26.6 157.7,26.6 157.7,92.1 174.1,92.1  "/><path d="M280.6,141.3h-49.2v32.8h-32.8v49.2h32.8V256h49.2v-32.8h32.8v-49.2h-32.8V141.3z M297,190.5v16.4h-32.8v32.8h-16.4v-32.8   H215v-16.4h32.8v-32.8h16.4v32.8H297z"/><rect x="247.8" y="329.7" width="16.4" height="16.4"/><rect x="215" y="329.7" width="16.4" height="16.4"/><rect x="280.6" y="329.7" width="16.4" height="16.4"/></g><text x="0" y="527" fill="#000000" font-size="5px" font-weight="bold" font-family="'Helvetica Neue', Helvetica, Arial-Unicode, Arial, Sans-serif">Created by Icon Fair</text><text x="0" y="532" fill="#000000" font-size="5px" font-weight="bold" font-family="'Helvetica Neue', Helvetica, Arial-Unicode, Arial, Sans-serif">from the Noun Project</text></svg>