<svg xmlns="http://www.w3.org/2000/svg" xmlns:xlink="http://www.w3.org/1999/xlink" viewBox="0 0 58 73.75" version="1.1" x="0px" y="0px"><title>Group 71</title><desc>Created with Sketch.</desc><g stroke="none" stroke-width="1" fill="none" fill-rule="evenodd"><g transform="translate(-1082.000000, -1114.000000)" fill="#000000"><g transform="translate(1082.000000, 1114.000000)"><path d="M13.6699,27 C13.4439,27 13.2309,27.069 13.0529,27.201 C11.8939,28.058 8.9139,30.3 6.2839,32.614 C3.5619,35.011 1.9999,38.489 1.9999,42.157 L1.9999,45 C2.1169,47.034 3.1069,53 5.9999,53 L51.9999,53 C54.8939,53 55.8829,47.034 56.0019,44.944 L55.9999,42.157 C55.9999,38.489 54.4389,35.011 51.7149,32.614 C49.0859,30.3 46.1069,28.058 44.9469,27.202 C44.7699,27.069 44.5559,27 44.3299,27 L13.6699,27 Z M51.9999,55 L5.9999,55 C0.6159,55 0.0239,45.462 0.0019,45.056 L-9.99999997e-05,42.157 C-9.99999997e-05,37.915 1.8089,33.89 4.9629,31.112 C7.6499,28.748 10.6849,26.465 11.8629,25.593 C12.3889,25.205 13.0129,25 13.6699,25 L44.3299,25 C44.9869,25 45.6109,25.205 46.1369,25.594 C47.3159,26.465 50.3499,28.748 53.0359,31.112 L53.0369,31.112 C56.1909,33.89 57.9999,37.915 57.9999,42.157 L57.9999,45 C57.9759,45.462 57.3839,55 51.9999,55 L51.9999,55 Z"/><path d="M5,55 C4.448,55 4,55.448 4,56 C4,56.552 4.448,57 5,57 L53,57 C53.552,57 54,56.552 54,56 C54,55.448 53.552,55 53,55 L5,55 Z M53,59 L5,59 C3.346,59 2,57.654 2,56 C2,54.346 3.346,53 5,53 L53,53 C54.654,53 56,54.346 56,56 C56,57.654 54.654,59 53,59 L53,59 Z"/><path d="M10,23 C9.448,23 9,23.448 9,24 C9,24.552 9.448,25 10,25 L48,25 C48.552,25 49,24.552 49,24 C49,23.448 48.552,23 48,23 L10,23 Z M48,27 L10,27 C8.346,27 7,25.654 7,24 C7,22.346 8.346,21 10,21 L48,21 C49.654,21 51,22.346 51,24 C51,25.654 49.654,27 48,27 L48,27 Z"/><path d="M12,21 L46,21 L46,14 L12,14 L12,21 Z M10,23 L48,23 L48,12 L10,12 L10,23 Z"/><path d="M11,16 L9,16 C8.447,16 8,15.553 8,15 C8,14.447 8.447,14 9,14 L11,14 C11.553,14 12,14.447 12,15 C12,15.553 11.553,16 11,16"/><path d="M11,20 L9,20 C8.447,20 8,19.553 8,19 C8,18.447 8.447,18 9,18 L11,18 C11.553,18 12,18.447 12,19 C12,19.553 11.553,20 11,20"/><path d="M49,16 L47,16 C46.447,16 46,15.553 46,15 C46,14.447 46.447,14 47,14 L49,14 C49.553,14 50,14.447 50,15 C50,15.553 49.553,16 49,16"/><path d="M49,20 L47,20 C46.447,20 46,19.553 46,19 C46,18.447 46.447,18 47,18 L49,18 C49.553,18 50,18.447 50,19 C50,19.553 49.553,20 49,20"/><path d="M11.4277,12 L45.9457,12 C45.7967,10.704 45.3427,9.712 44.5917,9.042 C43.1937,7.795 41.1337,7.994 41.1147,7.993 C41.0757,7.998 41.0377,8 40.9997,8 L22.9997,8 C19.4897,8 16.9377,7.106 15.4137,5.346 C14.6807,4.497 14.3137,3.585 14.1357,2.806 C12.6267,3.952 10.3747,6.025 10.0767,8.361 C9.9147,9.629 10.3577,10.823 11.4277,12 M46.9997,14 L10.9997,14 C10.7347,14 10.4807,13.895 10.2927,13.707 C8.5757,11.99 7.8357,10.104 8.0937,8.103 C8.6737,3.591 14.2577,0.275 14.4947,0.137 C14.8267,-0.057 15.2407,-0.043 15.5587,0.171 C15.8777,0.386 16.0447,0.764 15.9897,1.145 C15.9827,1.202 15.7967,2.751 16.9477,4.061 C18.0777,5.348 20.1147,6 22.9997,6 L40.9527,6 C41.4107,5.963 43.9907,5.826 45.9227,7.549 C47.3007,8.778 47.9997,10.612 47.9997,13 C47.9997,13.553 47.5527,14 46.9997,14"/><path d="M29,32 C24.589,32 21,35.589 21,40 C21,44.411 24.589,48 29,48 C33.411,48 37,44.411 37,40 C37,35.589 33.411,32 29,32 M29,50 C23.486,50 19,45.514 19,40 C19,34.486 23.486,30 29,30 C34.514,30 39,34.486 39,40 C39,45.514 34.514,50 29,50"/></g></g></g><text x="0" y="74" fill="#000000" font-size="5px" font-weight="bold" font-family="'Helvetica Neue', Helvetica, Arial-Unicode, Arial, Sans-serif">Created by Oliviu Stoian</text><text x="0" y="79" fill="#000000" font-size="5px" font-weight="bold" font-family="'Helvetica Neue', Helvetica, Arial-Unicode, Arial, Sans-serif">from the Noun Project</text></svg>