<svg xmlns="http://www.w3.org/2000/svg" xmlns:xlink="http://www.w3.org/1999/xlink" version="1.1" x="0px" y="0px" viewBox="0 0 100 125" style="enable-background:new 0 0 100 100;" xml:space="preserve"><g><rect style="" width="100" height="100" display="none" clip-rule="evenodd" fill="none"/><path style="" d="M68,17c2.679,0,5.084,1.171,6.733,3.03l-0.159-0.011   c1.165,0.075,2.314,0.375,3.376,0.892c0.27-0.758,0.747-1.453,1.42-1.993c1.938-1.556,4.77-1.247,6.326,0.691   c1.556,1.938,1.246,4.77-0.691,6.326c-0.674,0.541-1.455,0.856-2.254,0.956c0.789,3.282-0.31,6.873-3.116,9.127   c-0.813,0.653-1.705,1.141-2.635,1.47v27.85c4.609,1.05,8.405,4.471,9.865,9.061c2.854,0.763,5.157,2.903,6.133,5.685   C95.836,80.558,98,83.027,98,86c0,3.313-2.687,6-6,6H74.707c-1.648,1.841-4.042,3-6.707,3h-9.803c-1.038,1.793-2.977,3-5.197,3H8   c-3.313,0-6-2.687-6-6s2.687-6,6-6c0.179,0,0.359,0.008,0.537,0.024C9.761,82.477,13.132,80,17,80c0.737,0,1.468,0.09,2.178,0.267   c0.752-2.286,2.09-4.28,3.822-5.828V26c0-4.969,4.031-9,9-9H68L68,17z M38,39.5v15c0,0.828,0.672,1.5,1.5,1.5s1.5-0.672,1.5-1.5   v-15c0-0.828-0.672-1.5-1.5-1.5S38,38.672,38,39.5L38,39.5z M72.5,5C74.985,5,77,7.015,77,9.5S74.985,14,72.5,14S68,11.985,68,9.5   S70.015,5,72.5,5L72.5,5z M72.5,8C71.672,8,71,8.672,71,9.5c0,0.828,0.672,1.5,1.5,1.5c0.828,0,1.5-0.672,1.5-1.5   C74,8.672,73.328,8,72.5,8L72.5,8z M81.018,23.365L81.018,23.365c0.518,0.646,1.463,0.748,2.109,0.23   c0.646-0.519,0.749-1.463,0.23-2.109c-0.518-0.646-1.463-0.749-2.108-0.23C80.602,21.775,80.499,22.719,81.018,23.365   L81.018,23.365z M77,68.438V86c0,1.052-0.181,2.062-0.513,3H92c1.657,0,3-1.343,3-3c0-1.657-1.343-3-3-3   c-0.037,0-0.073,0.001-0.11,0.003c-0.734,0.025-1.367-0.471-1.518-1.19c-0.509-2.418-2.485-4.284-4.93-4.652   c-0.616-0.093-1.089-0.526-1.235-1.132C83.316,72.331,80.513,69.486,77,68.438L77,68.438z M59,92h9c3.314,0,6-2.686,6-6V38   c-2.633-0.001-5.241-1.153-7.018-3.365c-3.112-3.876-2.493-9.54,1.383-12.652c0.72-0.578,1.501-1.027,2.317-1.351   C69.875,20.228,68.964,20,68,20H32c-3.314,0-6,2.686-6,6v46.407C27.818,71.504,29.86,71,32,71c5.95,0,11.11,3.883,12.863,9.392   C45.539,80.135,46.261,80,47,80c3.313,0,6,2.687,6,6C56.313,86,59,88.687,59,92L59,92z M32,74c-5.03,0-9.365,3.576-10.311,8.51   c-0.091,0.472-0.368,0.84-0.798,1.057c-0.429,0.217-0.89,0.221-1.324,0.013C18.765,83.195,17.89,83,17,83   c-2.931,0-5.436,2.141-5.883,5.035c-0.072,0.465-0.325,0.836-0.733,1.071c-0.408,0.235-0.856,0.269-1.294,0.098   C8.742,89.068,8.373,89,8,89c-1.657,0-3,1.343-3,3c0,1.657,1.343,3,3,3h45c1.657,0,3-1.343,3-3c0-1.657-1.343-3-3-3   c-0.448,0-0.887,0.098-1.291,0.291c-0.584,0.279-1.25,0.165-1.708-0.293c-0.458-0.458-0.572-1.123-0.293-1.708   C49.903,86.886,50,86.448,50,86c0-1.657-1.343-3-3-3c-0.782,0-1.522,0.299-2.083,0.842c-0.415,0.401-0.981,0.528-1.527,0.341   c-0.546-0.187-0.917-0.633-0.999-1.204C41.643,77.828,37.208,74,32,74L32,74z M87.5,2C83.358,2,80,5.358,80,9.5   c0,4.142,3.358,7.5,7.5,7.5S95,13.642,95,9.5C95,5.358,91.642,2,87.5,2L87.5,2z M87.5,5C89.985,5,92,7.015,92,9.5   S89.985,14,87.5,14c-2.485,0-4.5-2.015-4.5-4.5S85.015,5,87.5,5L87.5,5z M78.678,25.243c-2.075-2.584-5.851-2.997-8.435-0.922   c-2.584,2.075-2.997,5.851-0.922,8.435c2.075,2.584,5.851,2.997,8.435,0.922C80.34,31.604,80.753,27.827,78.678,25.243   L78.678,25.243z M62,36.5c0-2.485-2.015-4.5-4.5-4.5h-6c-0.828,0-1.5,0.672-1.5,1.5s0.672,1.5,1.5,1.5h6c0.828,0,1.5,0.672,1.5,1.5   v24c0,0.828,0.672,1.5,1.5,1.5s1.5-0.672,1.5-1.5V36.5z" fill-rule="evenodd" clip-rule="evenodd"/></g><text x="0" y="115" fill="#000000" font-size="5px" font-weight="bold" font-family="'Helvetica Neue', Helvetica, Arial-Unicode, Arial, Sans-serif">Created by Stanislav Levin</text><text x="0" y="120" fill="#000000" font-size="5px" font-weight="bold" font-family="'Helvetica Neue', Helvetica, Arial-Unicode, Arial, Sans-serif">from the Noun Project</text></svg>