<svg xmlns="http://www.w3.org/2000/svg" xmlns:xlink="http://www.w3.org/1999/xlink" version="1.1" x="0px" y="0px" viewBox="0 0 100 125" enable-background="new 0 0 100 100" xml:space="preserve"><g><path fill="#000000" d="M31.158,30.159c3.648,0,6.607-0.649,6.607-1.45s-2.959-1.451-6.607-1.451c-3.649,0-6.607,0.65-6.607,1.451   S27.509,30.159,31.158,30.159z M31.158,28.123c2.523,0,4.29,0.303,5.191,0.587c-0.901,0.284-2.668,0.585-5.191,0.585   c-2.524,0-4.291-0.302-5.191-0.585C26.868,28.426,28.634,28.123,31.158,28.123z"/><path fill="#000000" d="M18.105,45.502c-0.238,0-0.433,0.194-0.433,0.433v4.351c0,0.238,0.194,0.433,0.433,0.433   c0.239,0,0.433-0.194,0.433-0.433v-4.351C18.538,45.696,18.344,45.502,18.105,45.502z"/><path fill="#000000" d="M18.105,56.029c-0.238,0-0.433,0.194-0.433,0.435v4.35c0,0.238,0.194,0.433,0.433,0.433   c0.239,0,0.433-0.194,0.433-0.433v-4.35C18.538,56.224,18.344,56.029,18.105,56.029z"/><path fill="#000000" d="M18.105,66.183c-0.238,0-0.433,0.193-0.433,0.432v4.352c0,0.236,0.194,0.431,0.433,0.431   c0.239,0,0.433-0.194,0.433-0.431v-4.352C18.538,66.376,18.344,66.183,18.105,66.183z"/><path fill="#000000" d="M65.962,39.291c-0.238,0-0.433,0.194-0.433,0.433v4.35c0,0.239,0.194,0.433,0.433,0.433   s0.433-0.194,0.433-0.433v-4.35C66.395,39.485,66.2,39.291,65.962,39.291z"/><path fill="#000000" d="M65.962,49.819c-0.238,0-0.433,0.194-0.433,0.432v4.352c0,0.236,0.194,0.431,0.433,0.431   s0.433-0.194,0.433-0.431v-4.352C66.395,50.013,66.2,49.819,65.962,49.819z"/><path fill="#000000" d="M65.962,59.97c-0.238,0-0.433,0.193-0.433,0.433v4.343c0,0.24,0.194,0.435,0.433,0.435   s0.433-0.194,0.433-0.435v-4.343C66.395,60.163,66.2,59.97,65.962,59.97z"/><path fill="#000000" d="M93.675,20.491c0-5.972-12.854-7.226-23.636-7.226c-0.835,0-1.513,0.677-1.513,1.513v9.906   c-6.12-0.066-12.215-0.526-16.556-1.259c-4.605-2.446-12.656-3.713-20.667-3.713c-12.21,0-24.57,2.926-24.57,8.519v49.986   c0,5.593,12.36,8.518,24.57,8.518c12.21,0,24.569-2.925,24.569-8.518V77.46c4.271,0.46,9.294,0.732,14.141,0.732   c0.009,0,0.018,0,0.025,0c10.782,0,23.636-1.254,23.636-7.227V21.225c0-0.105-0.04-0.198-0.059-0.298   C93.631,20.78,93.675,20.644,93.675,20.491z M71.553,16.3c15.538,0.181,19.096,3.135,19.096,4.191s-3.558,4.012-19.096,4.192V16.3z    M31.304,22.738c13.94,0,21.543,3.628,21.543,5.492v1.014c-1.859,2.307-9.713,4.911-21.543,4.911   c-11.831,0-19.685-2.604-21.544-4.911V28.23C9.76,26.366,17.363,22.738,31.304,22.738z M31.304,83.708   c-5.141,0-9.412-0.493-12.766-1.211v-4.28c0-0.24-0.194-0.435-0.433-0.435c-0.238,0-0.433,0.194-0.433,0.435v4.082   c-5.172-1.225-7.913-2.968-7.913-4.082V32.012c1.88,1.247,4.657,2.231,7.913,2.943v4.105c0,0.238,0.194,0.433,0.433,0.433   c0.239,0,0.433-0.194,0.433-0.433v-3.916c3.898,0.773,8.382,1.171,12.766,1.171c8.471,0,17.298-1.492,21.543-4.304v46.205   C52.847,80.081,45.244,83.708,31.304,83.708z M70.039,75.166c-0.008,0-0.017,0-0.025,0c-1.198,0-2.409-0.023-3.619-0.056v-3.116   c0-0.238-0.194-0.433-0.433-0.433s-0.433,0.194-0.433,0.433v3.092c-3.405-0.108-6.717-0.343-9.656-0.667V28.23   c0-0.437-0.1-0.851-0.245-1.255c3.003,0.331,6.405,0.559,9.901,0.668v4.142c0,0.238,0.194,0.433,0.433,0.433   s0.433-0.194,0.433-0.433v-4.119c1.214,0.03,2.43,0.052,3.645,0.052c7.581,0,16.169-0.629,20.609-3.073v46.321   C90.648,72.055,86.862,75.166,70.039,75.166z"/></g><text x="0" y="115" fill="#000000" font-size="5px" font-weight="bold" font-family="'Helvetica Neue', Helvetica, Arial-Unicode, Arial, Sans-serif">Created by Patrick Trouvé</text><text x="0" y="120" fill="#000000" font-size="5px" font-weight="bold" font-family="'Helvetica Neue', Helvetica, Arial-Unicode, Arial, Sans-serif">from the Noun Project</text></svg>