<svg xmlns="http://www.w3.org/2000/svg" xmlns:xlink="http://www.w3.org/1999/xlink" version="1.1" x="0px" y="0px" viewBox="0 0 100 125" enable-background="new 0 0 100 100" xml:space="preserve"><path d="M35.343,45.692c0.301,0.286,0.685,0.424,1.062,0.424c0.409,0,0.817-0.152,1.116-0.469l0.092-0.1v8.172  c0,0.013,0.004,0.024,0.004,0.036v36.324c0,2.713,2.209,4.922,4.924,4.922h0.757c2.713,0,4.922-2.209,4.922-4.922V56.855  c0.085-0.486,0.367-0.917,0.779-1.192c0.597-0.395,1.408-0.394,2-0.002c0.409,0.273,0.689,0.697,0.778,1.175v33.242  c0,2.713,2.209,4.922,4.924,4.922h0.757c2.715,0,4.924-2.209,4.924-4.922v-36.36c0-0.013-0.004-0.023-0.004-0.034V48.81  c0.331-0.347,1.054-0.877,1.516-1.224c1.369-1.017,2.785-2.062,3.171-3.502c0.476-1.762,0.746-3.47,0.793-5.093v-0.008  c0.006-0.049,0.006-0.104,0.006-0.152c0.002-0.006,0.002-0.009,0.002-0.015c0.002-0.008,0-0.013,0.002-0.021  c0-0.009,0.002-0.019,0.002-0.028c0-0.011-0.002-0.021-0.002-0.03c0.002-0.107,0.002-0.215,0.002-0.322  c0-0.851-0.689-1.54-1.538-1.54s-1.538,0.689-1.538,1.54v0.019c-0.977,2.09-2.114,3.289-3.144,3.289  c-0.132,0-0.279-0.024-0.416-0.055c-1.648-0.431-1.64-4.44-1.632-7.364l0.009-0.648c0-4.525,1-6.247,1.416-6.571  c0.761-0.085,1.354-0.738,1.354-1.523v-3.448c0-0.83-0.032-1.615-0.1-2.363l7.225-7.563c0.586-0.616,0.563-1.593-0.053-2.178  l-4.794-4.587c-0.294-0.277-0.678-0.439-1.094-0.422c-0.407,0.008-0.8,0.177-1.077,0.476L58.23,9.925  c-0.254-0.245-0.516-0.491-0.8-0.723c-0.092-0.092-0.2-0.169-0.299-0.247c-0.094-0.077-0.194-0.152-0.294-0.23  c-0.107-0.077-0.207-0.147-0.314-0.224c-0.209-0.145-0.416-0.284-0.631-0.416c-0.209-0.13-0.424-0.252-0.64-0.377  c-0.177-0.1-0.362-0.192-0.546-0.277c-0.169-0.085-0.339-0.169-0.516-0.239c-0.162-0.075-0.315-0.145-0.484-0.207  c-1.969-0.845-4.31-1.346-7.017-1.346c-0.039,0-0.085,0-0.124,0.008h-0.038c-0.139-0.008-0.277-0.008-0.416-0.008  c-4.024,0-7.234,0.893-7.372,0.93c-0.663,0.194-1.124,0.793-1.124,1.485v23.432l-7.117,7.441c-0.279,0.299-0.431,0.693-0.424,1.1  c0.008,0.409,0.177,0.802,0.476,1.079L35.343,45.692z M45.155,56.548c-0.008,0.064-0.011,0.13-0.011,0.194v33.336  c0,1.017-0.828,1.843-1.845,1.843h-0.757c-1.019,0-1.845-0.826-1.845-1.843v-34.82h4.814C45.338,55.667,45.212,56.098,45.155,56.548  z M48.461,52.18h-7.769v-4.641h7.769V52.18z M48.465,44.462h-7.772v-2.133l7.772-8.132V44.462z M50.873,26.392  c-0.446,0.463-1.239,0.478-1.7,0.039c-0.486-0.461-0.501-1.224-0.04-1.7c0.224-0.239,0.539-0.378,0.87-0.378  c0.307,0,0.601,0.124,0.83,0.339c0.232,0.224,0.362,0.516,0.371,0.84C51.212,25.854,51.088,26.155,50.873,26.392z M59.303,90.078  c0,1.017-0.828,1.843-1.845,1.843h-0.757c-1.017,0-1.845-0.826-1.845-1.843V56.716c0-0.07-0.004-0.139-0.013-0.207  c-0.06-0.435-0.183-0.855-0.352-1.25h4.813V90.078z M60.453,44.647c0.401,0.1,0.8,0.152,1.194,0.152c0.307,0,0.631-0.03,0.977-0.107  c-0.209,0.154-0.401,0.301-0.563,0.416c-1.115,0.83-2.169,1.608-2.615,2.593c-0.092,0.2-0.147,0.424-0.147,0.646v3.833H51.54v-6.153  c0-0.009,0.002-0.017,0.002-0.026V30.979l7.757-8.119v1.687c-1.254,0.868-2.77,3.154-2.77,9.109l-0.007,0.64  C56.514,38.452,56.497,43.615,60.453,44.647z M57.861,14.766l0.008-0.015l2.239-2.34l0.032-0.03l3.5-3.662l2.57,2.453l-4.602,4.811  l-0.299,0.322l-2.271,2.37l-1.977,2.071l-3.086,3.231c-0.192-0.484-0.469-0.93-0.832-1.316c-0.06-0.07-0.122-0.13-0.185-0.192  c-0.454-0.431-0.977-0.753-1.553-0.955l3.363-3.515L57.861,14.766z M40.693,9.279c1.184-0.247,3.171-0.561,5.417-0.561  c2.739,0,5.048,0.439,6.94,1.316c0.177,0.083,0.354,0.168,0.524,0.26c0.378,0.201,0.732,0.416,1.062,0.648  c0.523,0.369,1.002,0.778,1.448,1.231l-5.287,5.524c0.139-0.454,0.207-0.93,0.207-1.431c0-2.839-2.308-5.148-5.148-5.148  c-2.839,0-5.148,2.308-5.148,5.148s2.308,5.148,5.148,5.148c0.578,0,1.132-0.092,1.655-0.277l-6.818,7.127V9.279z M47.927,16.266  c0,1.139-0.932,2.069-2.071,2.069c-1.139,0-2.069-0.93-2.069-2.069c0-1.139,0.93-2.069,2.069-2.069  C46.995,14.197,47.927,15.127,47.927,16.266z M37.614,35.942l3.078-3.216l5.332-5.586c0.215,0.561,0.554,1.077,1.017,1.516  c0.414,0.392,0.9,0.7,1.423,0.892v0.192l-7.772,8.134l-3.078,3.216l-1.254,1.316l-2.57-2.461L37.614,35.942z"/><text x="0" y="115" fill="#000000" font-size="5px" font-weight="bold" font-family="'Helvetica Neue', Helvetica, Arial-Unicode, Arial, Sans-serif">Created by Philip Glenn</text><text x="0" y="120" fill="#000000" font-size="5px" font-weight="bold" font-family="'Helvetica Neue', Helvetica, Arial-Unicode, Arial, Sans-serif">from the Noun Project</text></svg>