<svg xmlns="http://www.w3.org/2000/svg" xmlns:xlink="http://www.w3.org/1999/xlink" version="1.1" x="0px" y="0px" viewBox="0 0 100 125" enable-background="new 0 0 100 100" xml:space="preserve"><path d="M79.427,3H21.532C18.317,3,16,5.52,16,8.736v82.182C16,94.134,18.317,97,21.532,97h57.895C82.644,97,85,94.134,85,90.918  V8.736C85,5.52,82.644,3,79.427,3z M71.824,56.154c-1.479-3.747-1.623-6.779-0.541-8.768c1.031-1.898,2.928-2.294,3-2.309  c0.149-0.028,0.306-0.041,0.428-0.132C80.893,40.343,67.733,18,58.606,5h13.157c0.598,13,2.047,17.129,7.264,25.536  c1.81,2.916,1.37,10.48-1.206,20.796c-1.309,5.231,5.128,21.412,5.194,21.574C83.045,72.979,83,73.025,83,73.086v16.147  L71.824,56.154z M83,8.736v58.819c-2-6.099-4.002-13.23-3.369-15.764c1.943-7.779,3.754-17.924,1.031-22.311  C75.596,21.316,74.346,18,73.766,5h2.922c0.585,2,2.122,10.819,2.189,11.648c0,0.552,0.447,0.976,1,0.976s1-0.46,1-1.012  c0-0.447-0.706-4.484-1.084-6.545C79.328,7.53,79.009,6,78.756,5h0.671C81.54,5,83,6.622,83,8.736z M50.519,15.6  c-1.162,0-2.107-0.945-2.107-2.107c0-1.161,0.945-2.105,2.107-2.105c1.161,0,2.106,0.944,2.106,2.105  C52.625,14.654,51.68,15.6,50.519,15.6z M50.519,17.6c0.191,0,0.374-0.031,0.558-0.057l6.593,19.004  c0.008,0.021,0.82,2.101-0.083,4.082c-0.633,1.387-1.972,2.445-3.885,3.116c-0.08,0.019-1.957,0.491-2.858,2.379  c-0.781,1.636-0.576,3.744,0.609,6.264c0.14,0.407,0.771,1.962,2.452,2.658c1.583,0.652,3.533,0.348,5.8-0.912  c0.068-0.038,0.14-0.09,0.197-0.143c0.036-0.034,0.891-0.805,1.841-0.432c0.98,0.388,3.357,2.659,4.252,14.258  C66.019,67.992,68.423,85,69.982,95h-5.736l-5.769-21.67c-2.132-8.26-5.258-13.399-9.29-15.152c-3.271-1.422-5.873-0.075-6-0.006  c-1.101,0.629-1.815,1.592-2.123,2.894c-1.129,4.781,3.91,13.022,4.894,14.547C46.064,79.178,44.576,86,41.751,95h-9.14  c-0.096-3-1.676-4.593-4.747-5.343c-0.111-0.026-0.197-0.108-0.2-0.104c-0.989-0.494-1.555-1.17-1.733-2.001  c-0.4-1.875,1.238-4.405,1.903-5.215c0.046-0.057,0.236-0.127,0.27-0.191C33.014,72.455,23,63.183,18,59.519v-9.152l12.094-12.244  c3.068-3.069,1.16-7.812,1.096-7.974L22.445,5h2.69l12.946,36.373c0.021,0.057,0.045,0.087,0.076,0.14  c0.008,0.015,0.83,1.504,0.28,3.221c-0.476,1.484-1.829,2.739-4.001,3.731c-0.222,0.095-5.452,2.384-6.959,7.483  c-0.983,3.325-0.147,6.998,2.484,10.919c2.421,3.607,4.296,6.084,5.666,7.894c3.158,4.172,3.193,4.29,1.919,6.411  c-0.444,0.74-2.1,2.734-2.7,3.44c-0.358,0.42-0.307,1.052,0.114,1.409c0.188,0.16,0.418,0.238,0.647,0.238  c0.283,0,0.564-0.119,0.762-0.352c0.232-0.273,2.282-2.692,2.891-3.707c1.995-3.319,1.141-4.448-2.039-8.648  c-1.355-1.79-3.21-4.242-5.599-7.803c-2.28-3.396-3.031-6.5-2.231-9.224c1.231-4.194,5.789-6.21,5.855-6.239  c2.727-1.245,4.441-2.913,5.096-4.956c0.74-2.309-0.167-4.245-0.4-4.698L27.257,5h2.796c5.407,15,12.547,32.664,16.466,33.833  c0.18,0.035,0.405,0.035,0.659,0.035c0.788,0,1.844-0.242,2.615-1.071c1.128-1.213,1.305-3.288,0.523-6.152  c-0.396-1.452-1.067-3.493-1.845-5.908C46.464,19.498,43.75,11,42.965,5h3.24l1.87,5.261c-1.004,0.749-1.664,1.91-1.664,3.256  C46.412,15.781,48.254,17.6,50.519,17.6z M47.944,75.232c-0.01-0.179-0.067-0.414-0.167-0.563c-1.614-2.423-5.617-9.531-4.766-13.13  c0.177-0.751,0.56-1.3,1.15-1.638c0.018-0.009,1.881-0.966,4.229,0.055c2.364,1.027,5.697,4.369,8.153,13.886L62.176,95H43.849  C45.92,88,48.196,79.846,47.944,75.232z M32.182,5h8.77c0.768,6,3.558,14.95,5.618,21.347c0.771,2.393,1.436,4.434,1.819,5.842  c0.766,2.809,0.297,3.855-0.05,4.237c-0.442,0.486-1.191,0.479-1.391,0.456C45.08,36.161,39.836,26,32.182,5z M20.545,5.094  l8.767,25.694c0.015,0.038,1.542,3.782-0.595,5.92L18,47.538V8.736C18,7.021,18.989,5.582,20.545,5.094z M18,90.918V62.055  c4,3.802,12.138,11.467,8.365,19.09c-0.472,0.601-2.942,3.832-2.315,6.788c0.307,1.447,1.21,2.573,2.758,3.348  c0.171,0.085,0.331,0.254,0.601,0.32C29.035,91.997,30.496,93,30.61,95h-9.078C19.419,95,18,93.031,18,90.918z M79.427,95h-7.42  C70.452,85,68,67.715,67.981,67.6c-0.729-9.472-2.539-14.698-5.535-15.85c-1.615-0.621-3.104,0.109-3.811,0.721  c-1.628,0.885-2.988,1.135-3.946,0.751c-1.01-0.406-1.334-1.438-1.345-1.472c-0.016-0.054-0.035-0.108-0.059-0.158  c-0.918-1.933-1.143-3.518-0.649-4.581c0.479-1.03,1.5-1.312,1.628-1.349c2.556-0.89,4.289-2.313,5.153-4.23  c1.25-2.776,0.15-5.524,0.122-5.588l-6.606-19.047c1.021-0.748,1.691-1.946,1.691-3.305c0-2.264-1.842-4.105-4.106-4.105  c-0.203,0-0.397,0.08-0.592,0.109L48.326,5h7.866c13.861,20,20.673,35.309,17.48,38.227c-0.745,0.207-2.816,0.939-4.059,3.187  c-1.418,2.565-1.257,6.084,0.464,10.444l12.421,36.461C81.799,94.261,80.688,95,79.427,95z"/><text x="0" y="115" fill="#000000" font-size="5px" font-weight="bold" font-family="'Helvetica Neue', Helvetica, Arial-Unicode, Arial, Sans-serif">Created by Gregory Sujkowski</text><text x="0" y="120" fill="#000000" font-size="5px" font-weight="bold" font-family="'Helvetica Neue', Helvetica, Arial-Unicode, Arial, Sans-serif">from the Noun Project</text></svg>