<svg xmlns="http://www.w3.org/2000/svg" data-name="Livello 1" viewBox="0 0 100 125" x="0px" y="0px"><title>pentola</title><path d="M8.29,65.58a3.26,3.26,0,0,1,3.49-2c1.78,0.08,3.57,0,5.42,0l0.16-2.11H82.45l0.16,2.11c1.76,0,3.5.09,5.22,0,2-.13,3.28.6,3.87,2.52v4.21c-0.7,1.87-2.07,2.51-4,2.39-1.68-.1-3.38,0-5.17,0,0,3.2,0,6.22,0,9.24A16.86,16.86,0,0,1,70.14,98.3c-1,.28-1.94.47-2.91,0.7H32.5a4.18,4.18,0,0,0-.71-0.25,17.05,17.05,0,0,1-14.5-16.93c0-3,0-6,0-9.14-1.86,0-3.56-.07-5.26,0a3.7,3.7,0,0,1-3.73-1.86V65.58Zm70.8-.74H20.64c0,6-.13,11.92,0,17.83A13.48,13.48,0,0,0,33.89,95.6q16,0.13,32.1,0c6.66-.05,12.6-5.29,13-11.93,0.41-6.2.16-12.44,0.2-18.66A0.64,0.64,0,0,0,79.1,64.84ZM82.5,67l0.13,2.35H88.2V67H82.5ZM17.22,67H11.67v2.32h5.55V67Z"/><path d="M83.2,52.94L18.67,58.59a6.14,6.14,0,0,1,.32-5,13.9,13.9,0,0,1,5.13-5.34A29.13,29.13,0,0,1,36,43.72c2.51-.39,5-1,7.46-1.55a3,3,0,0,0,1-.76l-0.25-.35h-1a4.58,4.58,0,0,1-.66,0c-1.87-.29-2.66-1.86-2.61-5.21a2.75,2.75,0,0,1,2.6-2.8c4.23-.4,8.46-0.78,12.7-1.09,1.89-.14,2.89.82,3.12,2.75,0.07,0.61.16,1.22,0.2,1.83,0.12,2.14-.6,3-2.71,3.46a3.43,3.43,0,0,0-1,.71L55,41.37H65.09a26,26,0,0,1,13.17,3.5,15.93,15.93,0,0,1,2.91,2.22A6.28,6.28,0,0,1,83.2,52.94ZM79,50l0.18-.32A21.31,21.31,0,0,0,77.1,48a23.34,23.34,0,0,0-11.59-3.4c-3.67-.14-7.35-0.1-11-0.16a2.71,2.71,0,0,1-2.76-2.61c0-.44,0-0.88,0-1.31,0-2.79.42-3.35,3.13-3.86a1.77,1.77,0,0,0,.39-0.2L55,35.24l-11.76,1,0.17,1.38c0.57,0,1,0,1.44,0a2.57,2.57,0,0,1,2.55,2.06,16.94,16.94,0,0,1,.35,2.6,2.67,2.67,0,0,1-2.29,2.91c-2.79.57-5.56,1.21-8.37,1.65A25.17,25.17,0,0,0,23.94,52.6a23.29,23.29,0,0,0-1.89,2.08L22.25,55Z"/><path d="M81.4,17.27c-0.54,1.8-1.11,3.53-1.57,5.3A16.81,16.81,0,0,0,83.1,37.9c1.71,2.16,3.58,4.2,5.29,6.36a16.45,16.45,0,0,1,2,3.2c1.34,2.86.58,5.72-2.16,7.27a46.08,46.08,0,0,1-6,2.39,2.63,2.63,0,0,1-.08-0.52c0.29-.18.6-0.34,0.89-0.53A38,38,0,0,0,87.2,53.3a3.23,3.23,0,0,0,.53-4.9A50.3,50.3,0,0,0,83.85,44c-2.94-3.12-5.59-6.39-6.75-10.64A17.63,17.63,0,0,1,81.4,17.27Z"/><path d="M82.57,1c-0.24.72-.37,1.13-0.5,1.54a7.85,7.85,0,0,0,1.64,8.06c0.93,1,1.89,2.07,2.72,3.2a6.35,6.35,0,0,1-.65,8.79,10.51,10.51,0,0,1-2.87,2.07c0.57-.83,1.17-1.64,1.7-2.49,1.93-3.09,1.74-5.08-.61-7.84a27.21,27.21,0,0,1-2.95-3.84A7.64,7.64,0,0,1,82.57,1Z"/><path d="M26.21,75.48a64.77,64.77,0,0,0,.05,7.09,10.14,10.14,0,0,0,4.63,7.33,1.58,1.58,0,0,1,.57,2.38,1.6,1.6,0,0,1-2.42.36,5.72,5.72,0,0,1-.54-0.38,13.88,13.88,0,0,1-5.71-11.18c-0.09-3.94,0-7.89,0-11.84,0-1.3.67-2.08,1.69-2.07S26,67.94,26.05,69.3c0,2.06,0,4.12,0,6.18h0.15Z"/><text x="0" y="115" fill="#000000" font-size="5px" font-weight="bold" font-family="'Helvetica Neue', Helvetica, Arial-Unicode, Arial, Sans-serif">Created by chiara ardenghi</text><text x="0" y="120" fill="#000000" font-size="5px" font-weight="bold" font-family="'Helvetica Neue', Helvetica, Arial-Unicode, Arial, Sans-serif">from the Noun Project</text></svg>