<svg xmlns="http://www.w3.org/2000/svg" xmlns:xlink="http://www.w3.org/1999/xlink" version="1.1" x="0px" y="0px" viewBox="0 0 100 125" enable-background="new 0 0 100 100" xml:space="preserve"><g><g><path d="M71.842,38.928c-0.24-3.188-3.029-5.587-6.217-5.347c-3.19,0.242-5.589,3.031-5.349,6.218    c0.198,2.628,2.144,4.78,4.694,5.262l1.334,17.752c0.074,0.849,0.822,1.488,1.67,1.424c0.414-0.031,0.793-0.223,1.064-0.541    c0.27-0.316,0.4-0.717,0.367-1.127l-1.342-17.768C70.467,43.918,72.037,41.512,71.842,38.928z M65.852,36.608    c1.51-0.114,2.83,1.021,2.943,2.53c0.113,1.509-1.021,2.829-2.531,2.942s-2.83-1.021-2.943-2.53    C63.206,38.042,64.342,36.722,65.852,36.608z"/><path d="M82.086,45.149c-0.412-0.069-0.826,0.026-1.166,0.269c-0.338,0.242-0.562,0.6-0.627,1.005l-0.422,2.49    c-0.16,0.941-0.709,1.661-1.49,2l0.795-4.687c0.137-0.843-0.436-1.645-1.275-1.787c-0.41-0.07-0.824,0.026-1.168,0.27    c-0.338,0.244-0.559,0.602-0.623,1.004l-0.793,4.681c-0.627-0.578-0.91-1.438-0.748-2.379l0.424-2.5    c0.135-0.842-0.438-1.642-1.275-1.784c-0.412-0.07-0.824,0.025-1.164,0.268c-0.34,0.242-0.562,0.601-0.629,1.006L71.5,47.514    c-0.441,2.598,0.928,5.155,3.287,6.237l-2.979,17.551c-0.133,0.842,0.439,1.642,1.277,1.784c0.41,0.069,0.824-0.026,1.164-0.269    c0.338-0.242,0.561-0.6,0.627-1.005l2.977-17.569c2.545-0.28,4.648-2.245,5.082-4.811l0.424-2.496    C83.496,46.094,82.924,45.292,82.086,45.149z"/></g><path d="M52.334,54.759c-0.066,0-0.128,0.016-0.193,0.02c0.112-0.386,0.193-0.786,0.193-1.209c0-2.366-1.917-4.284-4.283-4.284   s-4.283,1.918-4.283,4.284c0,0.008,0.002,0.015,0.002,0.023c-1.637,0.095-3.004,1.149-3.551,2.618   c-0.089-0.008-0.176-0.027-0.267-0.027c-1.58,0-2.863,1.282-2.863,2.863s1.283,2.863,2.863,2.863c0,1.316,1.067,2.383,2.384,2.383   c0.431,0,0.828-0.124,1.178-0.323c0.153,0.112,0.316,0.209,0.49,0.29c0,0.01-0.002,0.019-0.002,0.029   c0,1.447,1.172,2.62,2.618,2.62c1.447,0,2.621-1.173,2.621-2.62c0-0.155-0.02-0.306-0.047-0.454   c0.421,0.286,0.927,0.454,1.473,0.454c1.446,0,2.619-1.173,2.619-2.62c0-0.46-0.129-0.885-0.337-1.261   c1.282-0.282,2.244-1.421,2.244-2.789C55.193,56.04,53.914,54.759,52.334,54.759z"/><circle cx="34.236" cy="60.477" r="1.19"/><circle cx="57.811" cy="54.76" r="1.423"/><circle cx="55.193" cy="49.286" r="1.194"/><circle cx="59.234" cy="48.091" r="1.196"/><path d="M54.246,44.59c4.286-0.955-0.953-4.045-2.618-3.093c-1.664,0.953-3.098,0.953-7.146-1.19   c-4.047-2.144-5.716-0.477-10.479,2.857c-4.762,3.334,0.953,6.668,0.953,6.668c1.429,4.048,7.381-1.905,9.525-3.811   C46.628,44.116,49.959,45.545,54.246,44.59z"/><path d="M63.314,63.039l-0.265-3.517c-0.811,1.398-1.794,2.723-2.99,3.92c-7.423,7.423-19.458,7.423-26.88,0   c-7.424-7.425-7.424-19.459,0-26.881c6.887-6.888,17.74-7.373,25.2-1.478c0.402-0.718,0.904-1.374,1.485-1.953   c-8.423-6.628-20.655-6.073-28.421,1.694c-8.382,8.381-8.382,21.969,0,30.352c8.38,8.381,21.97,8.381,30.352,0   c0.569-0.569,1.092-1.167,1.584-1.78C63.359,63.275,63.325,63.161,63.314,63.039z"/><g><path d="M69.512,66.91c-0.416,0.163-0.852,0.285-1.311,0.319c-0.115,0.008-0.229,0.013-0.344,0.013    c-1.256,0-2.402-0.537-3.234-1.391c-0.336,0.38-0.66,0.768-1.023,1.131c-9.379,9.378-24.585,9.378-33.963,0    c-9.379-9.38-9.379-24.584,0-33.963c8.861-8.861,22.919-9.338,32.354-1.453c1.028-0.539,2.179-0.883,3.409-0.977    c0.223-0.017,0.445-0.025,0.664-0.025c1.576,0,3.061,0.432,4.35,1.174c-0.787-1.024-1.643-2.014-2.58-2.953    c-11.717-11.715-30.713-11.715-42.428,0c-11.716,11.716-11.716,30.711,0,42.428c11.715,11.715,30.711,11.714,42.428-0.001    c0.4-0.4,0.783-0.811,1.156-1.227L69.512,66.91z"/></g></g><text x="0" y="115" fill="#000000" font-size="5px" font-weight="bold" font-family="'Helvetica Neue', Helvetica, Arial-Unicode, Arial, Sans-serif">Created by Berkay Sargın</text><text x="0" y="120" fill="#000000" font-size="5px" font-weight="bold" font-family="'Helvetica Neue', Helvetica, Arial-Unicode, Arial, Sans-serif">from the Noun Project</text></svg>