<svg xmlns="http://www.w3.org/2000/svg" xmlns:xlink="http://www.w3.org/1999/xlink" version="1.1" x="0px" y="0px" viewBox="0 0 100 125" style="enable-background:new 0 0 100 100;" xml:space="preserve"><path d="M86.9,90.4H13.1c-1.2,0-2.1-0.9-2.1-2.1v0c0-1.2,0.9-2.1,2.1-2.1h73.8c1.2,0,2.1,0.9,2.1,2.1v0  C89,89.4,88.1,90.4,86.9,90.4z"/><path d="M36,85.8H18c-0.3,0-0.5-0.2-0.5-0.5V70.9c0-0.3,0.2-0.5,0.5-0.5H36c0.3,0,0.5,0.2,0.5,0.5v14.3  C36.5,85.6,36.2,85.8,36,85.8z M18.5,84.8h16.9V71.4H18.5V84.8z"/><path d="M84.5,85.8h-3c-0.3,0-0.5-0.2-0.5-0.5V70.9c0-0.3,0.2-0.5,0.5-0.5h3c0.3,0,0.5,0.2,0.5,0.5v14.3  C85,85.6,84.7,85.8,84.5,85.8z M82,84.8h2V71.4h-2V84.8z"/><path d="M76.6,86c-0.1,0-0.2,0-0.2-0.1c-0.1-0.1-0.2-0.2-0.3-0.3l-4.6-13.6c0-0.1,0-0.3,0-0.4  c0.1-0.1,0.2-0.2,0.3-0.3l2.8-1c0.3-0.1,0.5,0.1,0.6,0.3l4.6,13.6c0.1,0.3-0.1,0.5-0.3,0.6l-2.8,1C76.7,86,76.6,86,76.6,86z   M72.6,72.2l4.3,12.6l1.9-0.6l-4.3-12.6L72.6,72.2z"/><g><path d="M32.1,59.5c-0.8,0.8,2.8,3.5,2.8,3.5s9.6,9.7,23.1,15.9c0,0,1.1,0.7,1.3-0.3c0.2-1.1-1.5-1.4-1.5-1.4   s-10.5-4.2-22.5-15.4C34.9,61.5,32.6,58.9,32.1,59.5z"/><path d="M37.5,46l-0.3-0.4L19.7,27.8c-1.5-1.5-4-1.6-5.5-0.1c-1.5,1.5-1.6,4-0.1,5.5l17.4,17.9l-6.3,6.2l0.4,0.4   c22.3,21.7,36.6,28.8,43.7,21.8l0.4-0.3L37.5,46z M14.8,32.5c-1.1-1.1-1.1-3,0.1-4.1c1.1-1.1,3-1.1,4.1,0.1l3.4,3.5l-2.2,2.8   c-0.2,0.2-0.1,0.6,0.1,0.8c0.2,0.2,0.6,0.1,0.8-0.1l2.1-2.6l1.3,1.3l-1.7,2.1c-0.2,0.2-0.1,0.6,0.1,0.8c0.2,0.2,0.6,0.1,0.8-0.1   l1.6-2l0.8,0.8c0,0-0.1,0.1-0.1,0.1l-2.3,2.9c-0.2,0.2-0.1,0.6,0.1,0.8c0.2,0.2,0.6,0.1,0.8-0.1l2.3-2.9l1.3,1.3c0,0,0,0,0,0   l-1.9,2.4c-0.2,0.2-0.1,0.6,0.1,0.8c0.2,0.2,0.6,0.1,0.8-0.1l1.8-2.3l7.5,7.8l-4.2,4.1L14.8,32.5z M26.6,57.3l1-0.9l1.2,1.2   c0.3,0.3,0.8,0.3,1.1,0c0.3-0.3,0.3-0.8,0-1.1l-1.2-1.2l3.6-3.5l0.7-0.7l4.1-4l0,0l1.5,1.5l29.6,30.5   C61.5,84.8,47.5,77.5,26.6,57.3z"/></g><text x="0" y="115" fill="#000000" font-size="5px" font-weight="bold" font-family="'Helvetica Neue', Helvetica, Arial-Unicode, Arial, Sans-serif">Created by Myly</text><text x="0" y="120" fill="#000000" font-size="5px" font-weight="bold" font-family="'Helvetica Neue', Helvetica, Arial-Unicode, Arial, Sans-serif">from the Noun Project</text></svg>