<svg xmlns="http://www.w3.org/2000/svg" xmlns:xlink="http://www.w3.org/1999/xlink" version="1.1" x="0px" y="0px" viewBox="0 0 90 112.5" enable-background="new 0 0 90 90" xml:space="preserve"><g><path d="M66.2,28.9v-8.3h-3.4v-5.7c0-3.6-2.9-6.5-6.5-6.5s-6.5,2.9-6.5,6.5v5.7h-3.4v8.6h1c-2.7,2.2-5,5.9-6.7,10   c0.4,1.6,0.8,2.9,1.1,4.4C44,36,48.4,29.4,53,29.4H58c12,0,21.7,14.4,21.7,26.3v20.1c0,1-0.8,1.8-1.8,1.8h-34c0,0.5,0,0.9,0,1.3   c0,0.5-0.1,0.9-0.3,1.2h34.3c2.4,0,4.3-1.9,4.3-4.3V55.7C82.2,45.5,75.5,33.5,66.2,28.9z M52.3,14.8c0-2.2,1.8-4,4-4s4,1.8,4,4v5.7   h-8V14.8z M48.8,23.1h0.9h13h0.9v3.5H48.8V23.1z"/><path d="M77.6,54.3V53c0-8-6.7-16.2-11.5-18.7l-1.8-0.9v2.1c0,9.1,3.8,18.8,12.1,18.8H77.6z M66.8,37.9c3.6,2.8,7.5,8.3,8.1,13.8   C69.4,50.6,67.3,43.3,66.8,37.9z"/><path d="M38.3,38.2c0.6-0.2,1.1-0.8,0.9-1.4c-0.1-0.6-0.3-1.3-0.5-2c-0.5-2.1-1.4-5.8-1.3-7.3c1.7-0.3,3.3-0.5,3.3-0.5l1.7-0.3   l-6.2-10.5H10.6l0.1,2.2h-0.1H9v3.8h1.5h0.3l0.1,1.7l5.3,1.3c-0.1,1.9-0.4,6.3-2.5,9.6c-0.4,0.7-0.3,1.5,0.2,2.1   c0.5,0.5,1.4,0.7,2,0.3c1.6-0.9,5.2-3.8,6.6-10.2c2.8,0.8,4.3,1.9,4.4,2.5c0.3,1.4,1.3,7.3,1.3,8.8c0,0.6,0.5,1.2,1.1,1.2   c-0.5,3.1-2.4,4.1-4.6,6c-2.7,2.3-6.6,5-8.1,7.8c-1.6,3-2.8,18.9-3.2,24.9c-0.1,1.3,0.9,2.3,2.2,2.3h23.9c1.2,0,2.2-1,2.2-2.2   c-0.1-6.1-0.5-22.8-1.1-28.7C40,44,39.2,41.9,38.3,38.2z M30.7,37.9c0-2.3-1.3-9.1-1.3-9.2C28.8,25.9,24,24.5,22,24l-3.4-0.9L14,22   v-3.5h21l3.7,6.3c-0.7,0.1-1.5,0.3-2.3,0.4l-0.6,0.1l-0.3,0.6c-0.8,1.7-0.1,5,1,9.5c0.2,0.6,0.3,1.3,0.4,1.8L30.7,37.9z"/></g><text x="0" y="105" fill="#000000" font-size="5px" font-weight="bold" font-family="'Helvetica Neue', Helvetica, Arial-Unicode, Arial, Sans-serif">Created by Kevin Augustine LO</text><text x="0" y="110" fill="#000000" font-size="5px" font-weight="bold" font-family="'Helvetica Neue', Helvetica, Arial-Unicode, Arial, Sans-serif">from the Noun Project</text></svg>