<svg xmlns="http://www.w3.org/2000/svg" xmlns:xlink="http://www.w3.org/1999/xlink" version="1.1" x="0px" y="0px" viewBox="0 0 100 125" enable-background="new 0 0 100 100" xml:space="preserve"><g><path fill="#000000" d="M16.6,66.2c-0.6,0-1,0.5-1,1c0,0.6-0.5,1-1,1s-1-0.5-1-1c0-0.6-0.5-1-1-1c-0.6,0-1,0.5-1,1   c0,1.7,1.4,3.1,3.1,3.1s3.1-1.4,3.1-3.1C17.6,66.7,17.1,66.2,16.6,66.2z"/><path fill="#000000" d="M29.1,74.7c-0.6,0-1,0.5-1,1c0,0.3-0.3,0.6-0.6,0.6s-0.6-0.3-0.6-0.6c0-0.6-0.5-1-1-1c-0.6,0-1,0.5-1,1   c0,1.5,1.2,2.7,2.7,2.7s2.7-1.2,2.7-2.7C30.1,75.1,29.7,74.7,29.1,74.7z"/><path fill="#000000" d="M76.4,59.3c-0.6,0-1,0.5-1,1c0,0.5-0.4,0.9-0.9,0.9c-0.5,0-0.9-0.4-0.9-0.9c0-0.6-0.5-1-1-1   c-0.6,0-1,0.5-1,1c0,1.6,1.3,3,3,3c1.6,0,3-1.3,3-3C77.4,59.8,76.9,59.3,76.4,59.3z"/><path fill="#000000" d="M86.6,53.9c-0.6,0-1,0.5-1,1c0,0.3-0.5,0.3-0.5,0c0-0.6-0.5-1-1-1c-0.6,0-1,0.5-1,1c0,1.3,1,2.3,2.3,2.3   c1.3,0,2.3-1,2.3-2.3C87.7,54.4,87.2,53.9,86.6,53.9z"/><path fill="#000000" d="M63.5,72c-0.6,0-1,0.5-1,1c0,0.5-0.4,0.8-0.8,0.8c-0.5,0-0.8-0.4-0.8-0.8c0-0.6-0.5-1-1-1s-1,0.5-1,1   c0,1.6,1.3,2.9,2.9,2.9c1.6,0,2.9-1.3,2.9-2.9C64.5,72.5,64.1,72,63.5,72z"/><path fill="#000000" d="M47.2,80.4c-0.6,0-1,0.5-1,1c0,1-0.8,1.8-1.8,1.8s-1.8-0.8-1.8-1.8c0-0.6-0.5-1-1-1s-1,0.5-1,1   c0,2.1,1.7,3.8,3.8,3.8s3.8-1.7,3.8-3.8C48.2,80.9,47.8,80.4,47.2,80.4z"/><path fill="#000000" d="M95,40.5c0-0.1,0-0.1,0-0.2c0,0,0,0,0,0c0-0.1,0-0.1,0-0.2c-0.1-2.2-1.3-4.5-3-5.7   c-2.3-1.6-28.1-8.3-33.3-8.7c-5.3-0.4-8.9,2.2-9.3,2.5c-3.3,2.1-8.2,4.6-11.6,6.4c-2.3-2.1-5.2-3.4-7.9-3.4   c-7.4,0-11.2,5.6-11.6,11c-1.9,0.6-4.6,1.5-5.6,1.9c-4.5,1.7-6.5,4.9-7.3,7.3C5,52,5,52.6,5,53.2c0,0,0,0,0,0c0,0.1,0,0.1,0,0.2   c0,0,0,0,0,0c0,0.7,0.1,1.7,0.2,2.8c0.4,6.7,0.7,12.3,1.5,13.9c1.4,2.7,5.9,5.9,15.2,10.8c2.6,1.4,4.6,2.7,6.5,3.9   c4.6,3.1,8.2,5.5,17.2,6c0.3,0,0.6,0,1,0c9.3,0,15.6-7.1,21.7-14c3.3-3.7,6.3-7.1,9.7-9.3c2.9-1.8,5.3-3.2,7.4-4.4   c5.2-3,8.3-4.8,9.1-8.5c0.4-1.9,0.4-7.9,0.5-11.9c0-0.8,0-1.4,0-2C95,40.7,95,40.6,95,40.5z M29.8,33.3c2.3,0,5,1.3,7,3.3   c0,0,0,0,0,0c1.5,1.5,2.4,3.5,2.7,5.6c0,0,0,0,0,0l0.1,2.1c0,0.3,0.2,0.6,0.5,0.8c0.3,0.2,0.6,0.2,0.9,0.1c1.4-0.5,2.8-0.7,4.4-0.2   l1.1,0.2c0.4,0.1,0.7-0.1,1-0.3c0.2-0.3,0.3-0.7,0.2-1c-0.2-0.7-0.4-1.4-0.4-2.2c0-3.6,3-6.6,6.6-6.6c3.6,0,6.6,3,6.6,6.6   c0,3.6-3,6.6-6.6,6.6c-1,0-2-0.2-3-0.7c-0.4-0.2-0.8-0.1-1.1,0.1c-0.3,0.3-0.4,0.7-0.3,1.1c0,0,0.3,0.8,0.4,1.4   c0.1,0.4,0.1,0.7,0.1,1c0,3.6-3,6.6-6.6,6.6c-3.3,0-6.1-2.5-6.6-5.8c0-0.3-0.2-0.6-0.5-0.8c-0.3-0.2-0.6-0.2-0.9-0.1l-0.7,0.3   c-0.1,0-0.3,0-0.4,0.1c-1.4,0.7-3,1.1-4.6,1.1c-5.3,0-9.7-4.3-9.7-9.7l0-0.3c0,0,0,0,0,0C20.3,38.3,23.4,33.3,29.8,33.3z M7.2,52.1   c0.7-2,2.3-4.7,6.1-6.1c0.9-0.3,3.1-1.1,4.9-1.7c0.6,6,5.6,10.6,11.7,10.6c1.8,0,3.6-0.4,5.2-1.2c0,0,0,0,0.1,0   c1,3.7,4.4,6.3,8.3,6.3c4.8,0,8.7-3.9,8.7-8.7c0-0.3,0-0.7-0.1-1.1c0.6,0.1,1.3,0.2,1.9,0.2c4.8,0,8.7-3.9,8.7-8.7   s-3.9-8.7-8.7-8.7c-4.8,0-8.7,3.9-8.7,8.7c0,0.4,0,0.8,0.1,1.1c-1.3-0.3-2.6-0.3-3.8,0l0-0.8c0,0,0-0.1,0-0.1   c-0.2-2.1-1.1-4.1-2.4-5.9c3.5-1.7,8.1-4.2,11.3-6.2c0,0,0.1,0,0.1-0.1c0,0,3.1-2.5,8-2.1c5.2,0.4,30.5,7.1,32.2,8.3   c1,0.7,2.1,2.3,2.2,4.1c0.1,1.7-0.7,3.3-2.3,4.6c-1.3,1.1-3.6,2.2-6.4,3.5c-6.4,2.9-15.1,6.9-23.3,16.1   c-0.1,0.1-12.2,12.6-27.8,5.7C20.6,64.5,11.3,57.5,7.9,54.8c-0.5-0.4-0.8-0.9-0.9-1.5c0,0,0-0.1,0-0.1c0,0,0,0,0,0   C7,52.8,7.1,52.4,7.2,52.1z M92.5,54.2c-0.6,2.8-3.1,4.3-8.1,7.2c-2,1.2-4.6,2.6-7.5,4.5c-3.6,2.3-6.8,5.9-10.1,9.7   c-6,6.8-12.2,13.8-21,13.3c-8.4-0.4-11.9-2.7-16.2-5.6c-1.9-1.2-4-2.7-6.7-4.1c-8.7-4.5-13.2-7.6-14.3-9.9c-0.6-1.2-1-8.3-1.3-12.3   c3.9,3.1,13,9.8,25,15.1c3.6,1.6,7.1,2.3,10.3,2.2c11.6,0,19.7-8.3,19.8-8.5c8-9,16.5-12.8,22.6-15.7c3-1.4,5.4-2.5,6.9-3.8   c0.3-0.3,0.6-0.6,0.9-0.8C92.8,48.9,92.8,52.9,92.5,54.2z"/><path fill="#000000" d="M40.7,27.4c5,0,9.1-4.1,9.1-9.1c0-5-4.1-9.1-9.1-9.1s-9.1,4.1-9.1,9.1C31.6,23.3,35.7,27.4,40.7,27.4z    M40.7,11.2c3.9,0,7.1,3.2,7.1,7.1s-3.2,7.1-7.1,7.1c-3.9,0-7.1-3.2-7.1-7.1S36.8,11.2,40.7,11.2z"/><path fill="#000000" d="M22.3,43.3c0.1,0,0.2,0,0.3-0.1c1.3-0.4,2.4-0.7,3.3-1c2.4-0.7,4.1-1.2,9.3-3.6c0.5-0.2,0.7-0.9,0.5-1.4   c-0.2-0.5-0.9-0.7-1.4-0.5c-5,2.4-6.6,2.8-9,3.5c-0.9,0.3-2,0.6-3.3,1c-0.5,0.2-0.8,0.8-0.7,1.3C21.5,43,21.9,43.3,22.3,43.3z"/></g><text x="0" y="115" fill="#000000" font-size="5px" font-weight="bold" font-family="'Helvetica Neue', Helvetica, Arial-Unicode, Arial, Sans-serif">Created by parkjisun</text><text x="0" y="120" fill="#000000" font-size="5px" font-weight="bold" font-family="'Helvetica Neue', Helvetica, Arial-Unicode, Arial, Sans-serif">from the Noun Project</text></svg>